<svg width="176" height="136" viewBox="0 0 176 136" fill="none" xmlns="http://www.w3.org/2000/svg">
<path d="M0 16C0 7.16344 7.16344 0 16 0H160C168.837 0 176 7.16344 176 16V120C176 128.837 168.837 136 160 136H16C7.16344 136 0 128.837 0 120V16Z" fill="white"/>
<path d="M16 0.5H160C168.56 0.5 175.5 7.43959 175.5 16V120C175.5 128.56 168.56 135.5 160 135.5H16C7.43959 135.5 0.5 128.56 0.5 120V16C0.5 7.43959 7.43959 0.5 16 0.5Z" stroke="#B02E0C" stroke-opacity="0.16"/>
<rect x="15.5" y="82.5" width="146" height="41" stroke="black"/>
<path d="M30 88V118" stroke="black" stroke-linecap="square"/>
<path d="M41.6992 88V118" stroke="black" stroke-linecap="square"/>
<path d="M53.3984 88V118" stroke="black" stroke-linecap="square"/>
<path d="M65.1016 88V118" stroke="black" stroke-linecap="square"/>
<path d="M76.8008 88V118" stroke="black" stroke-linecap="square"/>
<path d="M88.5 88V118" stroke="black" stroke-linecap="square"/>
<path d="M100.199 88V118" stroke="black" stroke-linecap="square"/>
<path d="M111.898 88V118" stroke="black" stroke-linecap="square"/>
<path d="M123.602 88V118" stroke="black" stroke-linecap="square"/>
<path d="M135.301 88V118" stroke="black" stroke-linecap="square"/>
<path d="M147 88V118" stroke="black" stroke-linecap="square"/>
<path d="M21 100V92C21 89.7909 22.7909 88 25 88H152C154.209 88 156 89.7909 156 92V100" stroke="#F7941D" stroke-linecap="square"/>
<path d="M21 106V114C21 116.209 22.7909 118 25 118H152C154.209 118 156 116.209 156 114V106" stroke="#F7941D" stroke-linecap="square"/>
<path d="M90.496 131.136V132H86.592V126.304H87.6V131.136H90.496Z" fill="black"/>
<rect x="15.3193" y="12.3193" width="84.3615" height="52.3615" stroke="black" stroke-width="0.638542"/>
<rect x="19.3193" y="16.3193" width="54.3615" height="44.3615" rx="4.78907" stroke="#F7941D" stroke-width="0.638542"/>
<rect x="41.3193" y="16.3193" width="54.3615" height="44.3615" rx="4.78907" stroke="#F7941D" stroke-width="0.638542"/>
<circle cx="24.5542" cy="21.5542" r="2.55422" fill="#F7941D"/>
<circle cx="46.1831" cy="21.5542" r="2.55422" fill="#F7941D"/>
<circle cx="67.8159" cy="21.5542" r="2.55422" fill="#F7941D"/>
<circle cx="89.4448" cy="21.5542" r="2.55422" fill="#F7941D"/>
<circle cx="24.5542" cy="21.5542" r="2.55422" fill="#F7941D"/>
<circle cx="46.1831" cy="21.5542" r="2.55422" fill="#F7941D"/>
<circle cx="67.8159" cy="21.5542" r="2.55422" fill="#F7941D"/>
<circle cx="89.4448" cy="21.5542" r="2.55422" fill="#F7941D"/>
<path d="M22.7388 27C16.4238 17.2549 21.9467 13.5425 30 20.8127" stroke="#B02E0C" stroke-width="0.519288" stroke-linecap="round"/>
<path d="M92.5025 27.5004C98.8175 17.7553 92.002 12.5 84.5024 20.5009" stroke="#B02E0C" stroke-width="0.519288" stroke-linecap="round"/>
<path d="M54.952 73L56.984 70.048L55.096 67.304H56.288L57.584 69.32L58.936 67.304H60.056L58.168 70.048L60.192 73H58.976L57.552 70.824L56.104 73H54.952Z" fill="black"/>
<path d="M106.24 35.304L104.096 38.736V41H103.112V38.736L100.96 35.304H102.112L103.624 37.824L105.12 35.304H106.24Z" fill="black"/>
<path d="M19 44L21 45.1547V42.8453L19 44ZM20.8 44V44.2H26V44V43.8H20.8V44Z" fill="black"/>
<path d="M27.444 41.728H29.466C29.886 41.728 30.234 41.824 30.504 42.016C30.768 42.208 30.906 42.508 30.906 42.916C30.906 43.174 30.84 43.396 30.72 43.576C30.594 43.756 30.42 43.888 30.198 43.966C30.3 43.99 30.39 44.026 30.468 44.074C30.54 44.122 30.6 44.176 30.642 44.23C30.684 44.29 30.72 44.362 30.75 44.446C30.774 44.536 30.792 44.614 30.804 44.68C30.816 44.746 30.822 44.83 30.834 44.938C30.834 44.968 30.84 45.022 30.846 45.1C30.852 45.184 30.858 45.238 30.858 45.262C30.858 45.286 30.864 45.334 30.87 45.394C30.876 45.46 30.882 45.508 30.888 45.532C30.888 45.556 30.894 45.598 30.906 45.646C30.918 45.694 30.924 45.736 30.936 45.76C30.942 45.784 30.954 45.814 30.966 45.85C30.978 45.886 30.99 45.91 31.008 45.934C31.02 45.958 31.038 45.982 31.062 46H30.258C30.246 45.988 30.234 45.97 30.222 45.946C30.21 45.922 30.204 45.898 30.198 45.874C30.186 45.85 30.18 45.826 30.18 45.802C30.174 45.778 30.168 45.748 30.162 45.712C30.156 45.676 30.156 45.64 30.156 45.616L30.144 45.508L30.132 45.4C30.132 45.376 30.126 45.334 30.126 45.274C30.12 45.214 30.12 45.172 30.12 45.148C30.096 44.8 30.024 44.566 29.898 44.434C29.772 44.302 29.532 44.236 29.184 44.236H28.188V46H27.444V41.728ZM28.188 42.34V43.678H29.178C29.322 43.678 29.442 43.672 29.544 43.654C29.64 43.642 29.742 43.612 29.844 43.57C29.946 43.528 30.024 43.456 30.078 43.36C30.132 43.264 30.162 43.144 30.162 42.994C30.162 42.862 30.138 42.748 30.09 42.658C30.042 42.568 29.97 42.502 29.88 42.454C29.79 42.412 29.7 42.382 29.604 42.364C29.508 42.352 29.4 42.34 29.274 42.34H28.188ZM33.4866 41.776V46H32.7546V43.096H31.7106V42.592C32.4366 42.592 32.8446 42.322 32.9346 41.776H33.4866Z" fill="black"/>
<path d="M41 44L43 45.1547V42.8453L41 44ZM42.8 44V44.2H48V44V43.8H42.8V44Z" fill="black"/>
<path d="M49.444 41.728H51.466C51.886 41.728 52.234 41.824 52.504 42.016C52.768 42.208 52.906 42.508 52.906 42.916C52.906 43.174 52.84 43.396 52.72 43.576C52.594 43.756 52.42 43.888 52.198 43.966C52.3 43.99 52.39 44.026 52.468 44.074C52.54 44.122 52.6 44.176 52.642 44.23C52.684 44.29 52.72 44.362 52.75 44.446C52.774 44.536 52.792 44.614 52.804 44.68C52.816 44.746 52.822 44.83 52.834 44.938C52.834 44.968 52.84 45.022 52.846 45.1C52.852 45.184 52.858 45.238 52.858 45.262C52.858 45.286 52.864 45.334 52.87 45.394C52.876 45.46 52.882 45.508 52.888 45.532C52.888 45.556 52.894 45.598 52.906 45.646C52.918 45.694 52.924 45.736 52.936 45.76C52.942 45.784 52.954 45.814 52.966 45.85C52.978 45.886 52.99 45.91 53.008 45.934C53.02 45.958 53.038 45.982 53.062 46H52.258C52.246 45.988 52.234 45.97 52.222 45.946C52.21 45.922 52.204 45.898 52.198 45.874C52.186 45.85 52.18 45.826 52.18 45.802C52.174 45.778 52.168 45.748 52.162 45.712C52.156 45.676 52.156 45.64 52.156 45.616L52.144 45.508L52.132 45.4C52.132 45.376 52.126 45.334 52.126 45.274C52.12 45.214 52.12 45.172 52.12 45.148C52.096 44.8 52.024 44.566 51.898 44.434C51.772 44.302 51.532 44.236 51.184 44.236H50.188V46H49.444V41.728ZM50.188 42.34V43.678H51.178C51.322 43.678 51.442 43.672 51.544 43.654C51.64 43.642 51.742 43.612 51.844 43.57C51.946 43.528 52.024 43.456 52.078 43.36C52.132 43.264 52.162 43.144 52.162 42.994C52.162 42.862 52.138 42.748 52.09 42.658C52.042 42.568 51.97 42.502 51.88 42.454C51.79 42.412 51.7 42.382 51.604 42.364C51.508 42.352 51.4 42.34 51.274 42.34H50.188ZM56.2306 45.394V46H53.3626C53.3626 45.814 53.3926 45.64 53.4406 45.484C53.4886 45.328 53.5426 45.196 53.6026 45.088C53.6626 44.98 53.7586 44.866 53.8786 44.752C53.9986 44.638 54.1126 44.542 54.2086 44.47C54.3046 44.398 54.4426 44.302 54.6166 44.182C54.6286 44.176 54.6826 44.14 54.7906 44.068C54.8986 43.996 54.9646 43.954 54.9886 43.936C55.0126 43.918 55.0666 43.876 55.1506 43.81C55.2346 43.744 55.2886 43.69 55.3126 43.648C55.3366 43.612 55.3726 43.558 55.4206 43.486C55.4686 43.42 55.4986 43.354 55.5166 43.282C55.5286 43.21 55.5406 43.138 55.5406 43.054C55.5406 42.838 55.4746 42.664 55.3546 42.538C55.2346 42.412 55.0666 42.346 54.8626 42.346C54.7426 42.346 54.6346 42.37 54.5506 42.406C54.4606 42.442 54.3886 42.49 54.3406 42.55C54.2926 42.61 54.2506 42.688 54.2206 42.784C54.1846 42.88 54.1666 42.964 54.1546 43.048C54.1426 43.132 54.1366 43.234 54.1366 43.342H53.4706V43.234C53.4706 42.784 53.5966 42.424 53.8486 42.16C54.1006 41.896 54.4486 41.758 54.8806 41.758C55.2886 41.758 55.6126 41.878 55.8646 42.106C56.1106 42.334 56.2366 42.64 56.2366 43.018C56.2366 43.174 56.2126 43.318 56.1646 43.45C56.1166 43.588 56.0626 43.696 56.0086 43.78C55.9546 43.864 55.8646 43.966 55.7326 44.074C55.6006 44.188 55.4986 44.266 55.4386 44.308C55.3726 44.356 55.2526 44.434 55.0846 44.548C54.5806 44.872 54.2806 45.154 54.1846 45.394H56.2306Z" fill="black"/>
<circle cx="24.5542" cy="55.5542" r="2.55422" fill="#F7941D"/>
<circle cx="46.1831" cy="55.5542" r="2.55422" fill="#F7941D"/>
<circle cx="67.8159" cy="55.5542" r="2.55422" fill="#F7941D"/>
<circle cx="89.4448" cy="55.5542" r="2.55422" fill="#F7941D"/>
<path d="M84.45 24.728H86.076C86.37 24.728 86.628 24.764 86.856 24.824C87.078 24.884 87.282 24.998 87.474 25.166C87.894 25.544 88.104 26.084 88.104 26.792C88.104 27.548 87.9 28.13 87.504 28.526C87.324 28.706 87.132 28.826 86.928 28.898C86.724 28.97 86.454 29 86.118 29H84.45V24.728ZM85.194 25.364V28.37H86.076C86.544 28.37 86.874 28.238 87.066 27.962C87.258 27.692 87.354 27.314 87.354 26.828C87.354 26.372 87.246 26.012 87.03 25.754C86.814 25.496 86.478 25.364 86.028 25.364H85.194ZM90.5921 24.776V29H89.8601V26.096H88.8161V25.592C89.5421 25.592 89.9501 25.322 90.0401 24.776H90.5921Z" fill="black"/>
<path d="M86.45 46.728H88.076C88.37 46.728 88.628 46.764 88.856 46.824C89.078 46.884 89.282 46.998 89.474 47.166C89.894 47.544 90.104 48.084 90.104 48.792C90.104 49.548 89.9 50.13 89.504 50.526C89.324 50.706 89.132 50.826 88.928 50.898C88.724 50.97 88.454 51 88.118 51H86.45V46.728ZM87.194 47.364V50.37H88.076C88.544 50.37 88.874 50.238 89.066 49.962C89.258 49.692 89.354 49.314 89.354 48.828C89.354 48.372 89.246 48.012 89.03 47.754C88.814 47.496 88.478 47.364 88.028 47.364H87.194ZM93.3361 50.394V51H90.4681C90.4681 50.814 90.4981 50.64 90.5461 50.484C90.5941 50.328 90.6481 50.196 90.7081 50.088C90.7681 49.98 90.8641 49.866 90.9841 49.752C91.1041 49.638 91.2181 49.542 91.3141 49.47C91.4101 49.398 91.5481 49.302 91.7221 49.182C91.7341 49.176 91.7881 49.14 91.8961 49.068C92.0041 48.996 92.0701 48.954 92.0941 48.936C92.1181 48.918 92.1721 48.876 92.2561 48.81C92.3401 48.744 92.3941 48.69 92.4181 48.648C92.4421 48.612 92.4781 48.558 92.5261 48.486C92.5741 48.42 92.6041 48.354 92.6221 48.282C92.6341 48.21 92.6461 48.138 92.6461 48.054C92.6461 47.838 92.5801 47.664 92.4601 47.538C92.3401 47.412 92.1721 47.346 91.9681 47.346C91.8481 47.346 91.7401 47.37 91.6561 47.406C91.5661 47.442 91.4941 47.49 91.4461 47.55C91.3981 47.61 91.3561 47.688 91.3261 47.784C91.2901 47.88 91.2721 47.964 91.2601 48.048C91.2481 48.132 91.2421 48.234 91.2421 48.342H90.5761V48.234C90.5761 47.784 90.7021 47.424 90.9541 47.16C91.2061 46.896 91.5541 46.758 91.9861 46.758C92.3941 46.758 92.7181 46.878 92.9701 47.106C93.2161 47.334 93.3421 47.64 93.3421 48.018C93.3421 48.174 93.3181 48.318 93.2701 48.45C93.2221 48.588 93.1681 48.696 93.1141 48.78C93.0601 48.864 92.9701 48.966 92.8381 49.074C92.7061 49.188 92.6041 49.266 92.5441 49.308C92.4781 49.356 92.3581 49.434 92.1901 49.548C91.6861 49.872 91.3861 50.154 91.2901 50.394H93.3361Z" fill="black"/>
<path d="M120.366 31.856V33.008H119.298V35H117.978L117.966 33.008H114.402V31.652L118.002 26.528H119.298V31.856H120.366ZM117.99 31.856V28.22L115.53 31.856H117.99ZM130.853 33.704V35H124.997V26.456H126.509V33.704H130.853ZM137.264 33.068C137.108 33.74 136.772 34.268 136.268 34.64C135.764 35.024 135.152 35.204 134.456 35.204C133.52 35.204 132.776 34.904 132.224 34.304C131.672 33.704 131.408 32.924 131.408 31.976C131.408 31.016 131.684 30.212 132.248 29.576C132.812 28.952 133.532 28.628 134.408 28.628C135.308 28.628 136.028 28.94 136.556 29.564C137.084 30.188 137.348 31.028 137.348 32.096V32.24H132.776C132.788 32.864 132.944 33.356 133.244 33.692C133.532 34.028 133.952 34.196 134.48 34.196C134.852 34.196 135.152 34.112 135.392 33.932C135.632 33.752 135.812 33.464 135.956 33.068H137.264ZM135.98 31.328C135.932 30.812 135.776 30.404 135.488 30.104C135.2 29.804 134.84 29.648 134.396 29.648C133.94 29.648 133.58 29.792 133.304 30.08C133.028 30.368 132.86 30.788 132.8 31.328H135.98ZM144.064 28.808V34.28C144.064 35.348 143.836 36.14 143.38 36.644C142.924 37.16 142.168 37.412 141.088 37.412C139.384 37.412 138.46 36.788 138.316 35.528H139.684C139.804 36.152 140.284 36.452 141.124 36.452C141.688 36.452 142.096 36.308 142.36 36.02C142.624 35.732 142.756 35.276 142.756 34.628V33.896C142.3 34.592 141.652 34.94 140.788 34.94C139.96 34.94 139.3 34.664 138.82 34.112C138.34 33.56 138.1 32.804 138.1 31.856C138.1 30.896 138.352 30.116 138.856 29.528C139.36 28.94 140.02 28.64 140.86 28.64C141.292 28.64 141.664 28.724 141.964 28.892C142.252 29.06 142.528 29.312 142.792 29.672V28.808H144.064ZM141.1 29.744C140.584 29.744 140.176 29.936 139.888 30.296C139.6 30.668 139.456 31.184 139.456 31.832C139.456 32.456 139.6 32.96 139.9 33.32C140.2 33.692 140.596 33.872 141.1 33.872C141.604 33.872 142.012 33.692 142.312 33.308C142.6 32.924 142.756 32.408 142.756 31.76C142.756 31.136 142.6 30.644 142.312 30.284C142.024 29.924 141.616 29.744 141.1 29.744ZM151.177 28.808V34.28C151.177 35.348 150.949 36.14 150.493 36.644C150.037 37.16 149.281 37.412 148.201 37.412C146.497 37.412 145.573 36.788 145.429 35.528H146.797C146.917 36.152 147.397 36.452 148.237 36.452C148.801 36.452 149.209 36.308 149.473 36.02C149.737 35.732 149.869 35.276 149.869 34.628V33.896C149.413 34.592 148.765 34.94 147.901 34.94C147.073 34.94 146.413 34.664 145.933 34.112C145.453 33.56 145.213 32.804 145.213 31.856C145.213 30.896 145.465 30.116 145.969 29.528C146.473 28.94 147.133 28.64 147.973 28.64C148.405 28.64 148.777 28.724 149.077 28.892C149.365 29.06 149.641 29.312 149.905 29.672V28.808H151.177ZM148.213 29.744C147.697 29.744 147.289 29.936 147.001 30.296C146.713 30.668 146.569 31.184 146.569 31.832C146.569 32.456 146.713 32.96 147.013 33.32C147.313 33.692 147.709 33.872 148.213 33.872C148.717 33.872 149.125 33.692 149.425 33.308C149.713 32.924 149.869 32.408 149.869 31.76C149.869 31.136 149.713 30.644 149.425 30.284C149.137 29.924 148.729 29.744 148.213 29.744ZM158.159 33.068C158.003 33.74 157.667 34.268 157.163 34.64C156.659 35.024 156.047 35.204 155.351 35.204C154.415 35.204 153.671 34.904 153.119 34.304C152.567 33.704 152.303 32.924 152.303 31.976C152.303 31.016 152.579 30.212 153.143 29.576C153.707 28.952 154.427 28.628 155.303 28.628C156.203 28.628 156.923 28.94 157.451 29.564C157.979 30.188 158.243 31.028 158.243 32.096V32.24H153.671C153.683 32.864 153.839 33.356 154.139 33.692C154.427 34.028 154.847 34.196 155.375 34.196C155.747 34.196 156.047 34.112 156.287 33.932C156.527 33.752 156.707 33.464 156.851 33.068H158.159ZM156.875 31.328C156.827 30.812 156.671 30.404 156.383 30.104C156.095 29.804 155.735 29.648 155.291 29.648C154.835 29.648 154.475 29.792 154.199 30.08C153.923 30.368 153.755 30.788 153.695 31.328H156.875ZM165.151 26.456V35H163.867V34.148C163.471 34.832 162.811 35.168 161.887 35.168C161.011 35.168 160.315 34.88 159.799 34.28C159.283 33.692 159.031 32.9 159.031 31.892C159.031 30.908 159.283 30.116 159.787 29.528C160.291 28.94 160.975 28.64 161.839 28.64C162.703 28.64 163.363 28.964 163.807 29.612V26.456H165.151ZM162.09 29.744C161.562 29.744 161.155 29.936 160.855 30.32C160.555 30.704 160.411 31.22 160.411 31.868C160.411 32.552 160.555 33.092 160.867 33.476C161.179 33.872 161.599 34.064 162.139 34.064C162.667 34.064 163.087 33.872 163.387 33.488C163.687 33.104 163.843 32.576 163.843 31.892C163.843 31.22 163.687 30.692 163.375 30.308C163.063 29.936 162.643 29.744 162.09 29.744ZM124.775 38.456H128.675C129.563 38.456 130.247 38.66 130.727 39.044C131.207 39.428 131.447 39.956 131.447 40.604C131.447 41.012 131.327 41.384 131.111 41.708C130.883 42.032 130.583 42.26 130.223 42.404C130.715 42.524 131.111 42.764 131.399 43.124C131.687 43.484 131.831 43.94 131.831 44.48C131.831 45.236 131.579 45.848 131.075 46.304C130.571 46.772 129.923 47 129.131 47H124.775V38.456ZM126.239 39.668V42.02H128.279C128.855 42.02 129.275 41.936 129.551 41.756C129.815 41.576 129.959 41.276 129.959 40.844C129.959 40.364 129.815 40.052 129.527 39.896C129.239 39.752 128.843 39.668 128.327 39.668H126.239ZM126.239 43.1V45.776H128.483C129.059 45.776 129.503 45.68 129.839 45.488C130.163 45.296 130.331 44.948 130.331 44.444C130.331 44.168 130.271 43.94 130.175 43.748C130.079 43.556 129.935 43.424 129.743 43.328C129.551 43.244 129.359 43.184 129.167 43.148C128.963 43.124 128.723 43.1 128.459 43.1H126.239ZM138.6 45.068C138.444 45.74 138.108 46.268 137.604 46.64C137.1 47.024 136.488 47.204 135.792 47.204C134.856 47.204 134.112 46.904 133.56 46.304C133.008 45.704 132.744 44.924 132.744 43.976C132.744 43.016 133.02 42.212 133.584 41.576C134.148 40.952 134.868 40.628 135.744 40.628C136.644 40.628 137.364 40.94 137.892 41.564C138.42 42.188 138.684 43.028 138.684 44.096V44.24H134.112C134.124 44.864 134.28 45.356 134.58 45.692C134.868 46.028 135.288 46.196 135.816 46.196C136.188 46.196 136.488 46.112 136.728 45.932C136.968 45.752 137.148 45.464 137.292 45.068H138.6ZM137.316 43.328C137.268 42.812 137.112 42.404 136.824 42.104C136.536 41.804 136.176 41.648 135.732 41.648C135.276 41.648 134.916 41.792 134.64 42.08C134.364 42.368 134.196 42.788 134.136 43.328H137.316ZM139.664 42.716C139.808 41.324 140.708 40.616 142.376 40.616C143.144 40.616 143.768 40.772 144.224 41.072C144.68 41.384 144.92 41.852 144.92 42.488V45.632C144.92 45.812 144.932 45.932 144.98 45.992C145.028 46.064 145.112 46.088 145.244 46.088C145.34 46.088 145.436 46.088 145.556 46.064V47.024C145.196 47.12 144.908 47.156 144.668 47.156C144.08 47.156 143.744 46.916 143.66 46.412C143.132 46.916 142.412 47.156 141.488 47.156C140.84 47.156 140.336 47 139.964 46.664C139.58 46.328 139.4 45.884 139.4 45.308C139.4 45.14 139.412 44.972 139.46 44.816C139.496 44.672 139.544 44.54 139.592 44.42C139.64 44.312 139.724 44.204 139.844 44.108C139.964 44.012 140.06 43.94 140.132 43.868C140.204 43.808 140.336 43.748 140.504 43.688C140.672 43.64 140.804 43.592 140.888 43.568C140.972 43.544 141.116 43.508 141.332 43.472C141.536 43.448 141.668 43.424 141.74 43.412C141.812 43.4 141.956 43.376 142.172 43.352C142.652 43.292 142.988 43.244 143.168 43.196C143.336 43.148 143.456 43.088 143.528 42.992C143.576 42.932 143.612 42.788 143.612 42.548C143.612 41.924 143.18 41.612 142.34 41.612C141.884 41.612 141.56 41.696 141.356 41.864C141.14 42.032 141.008 42.32 140.96 42.716H139.664ZM143.6 43.892C143.492 43.952 143.372 44 143.24 44.048C143.096 44.096 142.988 44.12 142.904 44.132C142.82 44.144 142.688 44.156 142.508 44.18C142.328 44.204 142.208 44.228 142.16 44.228C141.992 44.252 141.86 44.276 141.764 44.3C141.668 44.324 141.548 44.348 141.404 44.396C141.26 44.444 141.152 44.504 141.08 44.576C141.008 44.648 140.936 44.732 140.888 44.852C140.828 44.972 140.804 45.104 140.804 45.26C140.804 45.56 140.9 45.788 141.092 45.944C141.284 46.112 141.56 46.184 141.92 46.184C142.52 46.184 142.988 46.028 143.324 45.692C143.504 45.512 143.6 45.152 143.6 44.624V43.892ZM147.7 40.808V41.684C148.204 40.988 148.852 40.64 149.644 40.64C150.052 40.64 150.4 40.736 150.7 40.916C151 41.108 151.228 41.36 151.372 41.696C151.864 41 152.536 40.64 153.376 40.64C153.952 40.64 154.444 40.82 154.828 41.168C155.212 41.516 155.404 41.996 155.404 42.608V47H154.036V43.196C154.036 42.764 153.952 42.416 153.808 42.164C153.652 41.924 153.364 41.792 152.932 41.792C152.488 41.792 152.152 41.936 151.924 42.212C151.684 42.488 151.576 42.872 151.576 43.364V47H150.208V43.124C150.208 42.692 150.136 42.356 150.004 42.128C149.872 41.912 149.596 41.792 149.188 41.792C148.72 41.792 148.372 41.948 148.132 42.248C147.892 42.548 147.772 42.944 147.772 43.436V47H146.404V40.808H147.7Z" fill="black"/>
<path d="M65.5 105.5L67.5 106.655V104.345L65.5 105.5ZM76 105.5L74 104.345V106.655L76 105.5ZM67.3 105.5V105.7H74.2V105.5V105.3H67.3V105.5Z" fill="black"/>
<path d="M72.522 99.988H71.808C71.76 99.49 71.454 99.238 70.878 99.238C70.62 99.238 70.422 99.292 70.278 99.4C70.134 99.508 70.062 99.652 70.062 99.832C70.062 100.006 70.11 100.126 70.218 100.186C70.326 100.252 70.56 100.33 70.926 100.42C71.022 100.45 71.094 100.468 71.148 100.48C71.622 100.6 71.946 100.708 72.12 100.804C72.498 101.008 72.69 101.326 72.69 101.758C72.69 101.95 72.654 102.118 72.594 102.268C72.528 102.424 72.444 102.55 72.336 102.652C72.228 102.754 72.096 102.838 71.952 102.904C71.802 102.976 71.646 103.024 71.49 103.054C71.328 103.084 71.16 103.096 70.992 103.096C70.452 103.096 70.02 102.97 69.69 102.712C69.354 102.46 69.192 102.082 69.192 101.584H69.93C69.93 101.896 70.032 102.13 70.236 102.28C70.44 102.43 70.704 102.502 71.034 102.502C71.322 102.502 71.544 102.448 71.706 102.328C71.868 102.208 71.952 102.046 71.952 101.83C71.952 101.698 71.904 101.584 71.82 101.5C71.736 101.416 71.64 101.35 71.544 101.314C71.442 101.278 71.268 101.23 71.022 101.164C70.992 101.158 70.968 101.152 70.956 101.146C70.422 101.014 70.074 100.9 69.906 100.81C69.558 100.63 69.372 100.354 69.348 99.976V99.892C69.348 99.514 69.486 99.214 69.774 98.986C70.062 98.758 70.446 98.644 70.926 98.644C71.388 98.644 71.766 98.758 72.06 98.974C72.348 99.196 72.504 99.532 72.522 99.988Z" fill="black"/>
</svg>
