<svg width="176" height="136" viewBox="0 0 176 136" fill="none" xmlns="http://www.w3.org/2000/svg">
<path d="M0 16C0 7.16344 7.16344 0 16 0H160C168.837 0 176 7.16344 176 16V120C176 128.837 168.837 136 160 136H16C7.16344 136 0 128.837 0 120V16Z" fill="white"/>
<path d="M16 0.5H160C168.56 0.5 175.5 7.43959 175.5 16V120C175.5 128.56 168.56 135.5 160 135.5H16C7.43959 135.5 0.5 128.56 0.5 120V16C0.5 7.43959 7.43959 0.5 16 0.5Z" stroke="#B02E0C" stroke-opacity="0.16"/>
<rect x="15.5" y="82.5" width="146" height="41" stroke="black"/>
<path d="M30 88V118" stroke="black" stroke-linecap="square"/>
<path d="M41.6992 88V118" stroke="black" stroke-linecap="square"/>
<path d="M53.4004 88V118" stroke="black" stroke-linecap="square"/>
<path d="M65.0996 88V118" stroke="black" stroke-linecap="square"/>
<path d="M76.8008 88V118" stroke="black" stroke-linecap="square"/>
<path d="M88.5 88V118" stroke="black" stroke-linecap="square"/>
<path d="M100.199 88V118" stroke="black" stroke-linecap="square"/>
<path d="M111.9 88V118" stroke="black" stroke-linecap="square"/>
<path d="M123.6 88V118" stroke="black" stroke-linecap="square"/>
<path d="M135.301 88V118" stroke="black" stroke-linecap="square"/>
<path d="M147 88V118" stroke="black" stroke-linecap="square"/>
<path d="M70.522 95.728V96.358H68.188V97.492H70.354V98.098H68.188V99.358H70.558V100H67.444V95.728H70.522ZM74.3013 96.988H73.5873C73.5393 96.49 73.2333 96.238 72.6573 96.238C72.3993 96.238 72.2013 96.292 72.0573 96.4C71.9133 96.508 71.8413 96.652 71.8413 96.832C71.8413 97.006 71.8893 97.126 71.9973 97.186C72.1053 97.252 72.3393 97.33 72.7053 97.42C72.8013 97.45 72.8733 97.468 72.9273 97.48C73.4013 97.6 73.7253 97.708 73.8993 97.804C74.2773 98.008 74.4693 98.326 74.4693 98.758C74.4693 98.95 74.4333 99.118 74.3733 99.268C74.3073 99.424 74.2233 99.55 74.1153 99.652C74.0073 99.754 73.8753 99.838 73.7313 99.904C73.5813 99.976 73.4253 100.024 73.2693 100.054C73.1073 100.084 72.9393 100.096 72.7713 100.096C72.2313 100.096 71.7993 99.97 71.4693 99.712C71.1333 99.46 70.9713 99.082 70.9713 98.584H71.7093C71.7093 98.896 71.8113 99.13 72.0153 99.28C72.2193 99.43 72.4833 99.502 72.8133 99.502C73.1013 99.502 73.3233 99.448 73.4853 99.328C73.6473 99.208 73.7313 99.046 73.7313 98.83C73.7313 98.698 73.6833 98.584 73.5993 98.5C73.5153 98.416 73.4193 98.35 73.3233 98.314C73.2213 98.278 73.0473 98.23 72.8013 98.164C72.7713 98.158 72.7473 98.152 72.7353 98.146C72.2013 98.014 71.8533 97.9 71.6853 97.81C71.3373 97.63 71.1513 97.354 71.1273 96.976V96.892C71.1273 96.514 71.2653 96.214 71.5533 95.986C71.8413 95.758 72.2253 95.644 72.7053 95.644C73.1673 95.644 73.5453 95.758 73.8393 95.974C74.1273 96.196 74.2833 96.532 74.3013 96.988Z" fill="#B02E0C"/>
<path d="M21 100V92C21 89.7909 22.7909 88 25 88H152C154.209 88 156 89.7909 156 92V100" stroke="#F7941D" stroke-linecap="square"/>
<path d="M21 106V114C21 116.209 22.7909 118 25 118H152C154.209 118 156 116.209 156 114V106" stroke="#F7941D" stroke-linecap="square"/>
<path d="M90.496 131.136V132H86.592V126.304H87.6V131.136H90.496Z" fill="black"/>
<rect x="15.3193" y="12.3193" width="52.3615" height="52.3615" stroke="black" stroke-width="0.638542"/>
<rect x="18.831" y="15.831" width="45.3374" height="45.3374" rx="4.78907" stroke="#F7941D" stroke-width="0.638542"/>
<circle cx="24.898" cy="21.897" r="2.55422" fill="#F7941D"/>
<circle cx="41.5542" cy="21.897" r="2.55422" fill="#B02E0C"/>
<circle cx="24.898" cy="55.1021" r="2.55422" fill="#F7941D"/>
<circle cx="41.5542" cy="55.1021" r="2.55422" fill="#F7941D"/>
<circle cx="58.1011" cy="21.897" r="2.55422" fill="#F7941D"/>
<circle cx="58.1011" cy="55.1021" r="2.55422" fill="#F7941D"/>
<path d="M22.3436 26.6865C15.958 16.6293 21.5427 12.798 29.6859 20.301" stroke="#B02E0C" stroke-width="0.519288" stroke-linecap="round"/>
<path d="M38.952 73L40.984 70.048L39.096 67.304H40.288L41.584 69.32L42.936 67.304H44.056L42.168 70.048L44.192 73H42.976L41.552 70.824L40.104 73H38.952Z" fill="black"/>
<path d="M76.24 35.304L74.096 38.736V41H73.112V38.736L70.96 35.304H72.112L73.624 37.824L75.12 35.304H76.24Z" fill="black"/>
<path d="M19 34L21 35.1547V32.8453L19 34ZM20.8 34V34.2H29.5V34V33.8H20.8V34Z" fill="black"/>
<path d="M31.444 31.728H33.466C33.886 31.728 34.234 31.824 34.504 32.016C34.768 32.208 34.906 32.508 34.906 32.916C34.906 33.174 34.84 33.396 34.72 33.576C34.594 33.756 34.42 33.888 34.198 33.966C34.3 33.99 34.39 34.026 34.468 34.074C34.54 34.122 34.6 34.176 34.642 34.23C34.684 34.29 34.72 34.362 34.75 34.446C34.774 34.536 34.792 34.614 34.804 34.68C34.816 34.746 34.822 34.83 34.834 34.938C34.834 34.968 34.84 35.022 34.846 35.1C34.852 35.184 34.858 35.238 34.858 35.262C34.858 35.286 34.864 35.334 34.87 35.394C34.876 35.46 34.882 35.508 34.888 35.532C34.888 35.556 34.894 35.598 34.906 35.646C34.918 35.694 34.924 35.736 34.936 35.76C34.942 35.784 34.954 35.814 34.966 35.85C34.978 35.886 34.99 35.91 35.008 35.934C35.02 35.958 35.038 35.982 35.062 36H34.258C34.246 35.988 34.234 35.97 34.222 35.946C34.21 35.922 34.204 35.898 34.198 35.874C34.186 35.85 34.18 35.826 34.18 35.802C34.174 35.778 34.168 35.748 34.162 35.712C34.156 35.676 34.156 35.64 34.156 35.616L34.144 35.508L34.132 35.4C34.132 35.376 34.126 35.334 34.126 35.274C34.12 35.214 34.12 35.172 34.12 35.148C34.096 34.8 34.024 34.566 33.898 34.434C33.772 34.302 33.532 34.236 33.184 34.236H32.188V36H31.444V31.728ZM32.188 32.34V33.678H33.178C33.322 33.678 33.442 33.672 33.544 33.654C33.64 33.642 33.742 33.612 33.844 33.57C33.946 33.528 34.024 33.456 34.078 33.36C34.132 33.264 34.162 33.144 34.162 32.994C34.162 32.862 34.138 32.748 34.09 32.658C34.042 32.568 33.97 32.502 33.88 32.454C33.79 32.412 33.7 32.382 33.604 32.364C33.508 32.352 33.4 32.34 33.274 32.34H32.188Z" fill="black"/>
<path d="M54.45 25.728H56.076C56.37 25.728 56.628 25.764 56.856 25.824C57.078 25.884 57.282 25.998 57.474 26.166C57.894 26.544 58.104 27.084 58.104 27.792C58.104 28.548 57.9 29.13 57.504 29.526C57.324 29.706 57.132 29.826 56.928 29.898C56.724 29.97 56.454 30 56.118 30H54.45V25.728ZM55.194 26.364V29.37H56.076C56.544 29.37 56.874 29.238 57.066 28.962C57.258 28.692 57.354 28.314 57.354 27.828C57.354 27.372 57.246 27.012 57.03 26.754C56.814 26.496 56.478 26.364 56.028 26.364H55.194ZM60.5921 25.776V30H59.8601V27.096H58.8161V26.592C59.5421 26.592 59.9501 26.322 60.0401 25.776H60.5921Z" fill="black"/>
<path d="M38.45 25.728H40.076C40.37 25.728 40.628 25.764 40.856 25.824C41.078 25.884 41.282 25.998 41.474 26.166C41.894 26.544 42.104 27.084 42.104 27.792C42.104 28.548 41.9 29.13 41.504 29.526C41.324 29.706 41.132 29.826 40.928 29.898C40.724 29.97 40.454 30 40.118 30H38.45V25.728ZM39.194 26.364V29.37H40.076C40.544 29.37 40.874 29.238 41.066 28.962C41.258 28.692 41.354 28.314 41.354 27.828C41.354 27.372 41.246 27.012 41.03 26.754C40.814 26.496 40.478 26.364 40.028 26.364H39.194ZM42.5941 27.15C42.6061 26.718 42.7321 26.382 42.9781 26.13C43.2181 25.884 43.5481 25.758 43.9621 25.758C44.3461 25.758 44.6641 25.866 44.9041 26.07C45.1441 26.28 45.2641 26.55 45.2641 26.886C45.2641 27.09 45.2101 27.27 45.1021 27.426C44.9941 27.582 44.8561 27.684 44.6761 27.744C44.9101 27.804 45.0961 27.924 45.2341 28.098C45.3661 28.272 45.4381 28.482 45.4381 28.734C45.4381 29.136 45.3001 29.46 45.0241 29.712C44.7481 29.964 44.3881 30.09 43.9501 30.09C43.5121 30.09 43.1581 29.964 42.8941 29.712C42.6241 29.46 42.4921 29.13 42.4921 28.71V28.62H43.1521C43.1701 29.208 43.4401 29.502 43.9681 29.502C44.1961 29.502 44.3821 29.436 44.5201 29.304C44.6521 29.172 44.7241 28.986 44.7241 28.752C44.7241 28.512 44.6461 28.332 44.4901 28.218C44.3341 28.11 44.1301 28.05 43.8841 28.05C43.8061 28.05 43.7341 28.056 43.6681 28.056V27.54H43.7281C43.8481 27.54 43.9561 27.534 44.0461 27.522C44.1301 27.51 44.2201 27.48 44.3101 27.444C44.4001 27.408 44.4721 27.342 44.5201 27.258C44.5681 27.174 44.5921 27.066 44.5921 26.934C44.5921 26.754 44.5321 26.604 44.4181 26.49C44.2981 26.382 44.1421 26.322 43.9501 26.322C43.5001 26.322 43.2661 26.598 43.2481 27.15H42.5941Z" fill="#B02E0C"/>
<path d="M54.45 46.728H56.076C56.37 46.728 56.628 46.764 56.856 46.824C57.078 46.884 57.282 46.998 57.474 47.166C57.894 47.544 58.104 48.084 58.104 48.792C58.104 49.548 57.9 50.13 57.504 50.526C57.324 50.706 57.132 50.826 56.928 50.898C56.724 50.97 56.454 51 56.118 51H54.45V46.728ZM55.194 47.364V50.37H56.076C56.544 50.37 56.874 50.238 57.066 49.962C57.258 49.692 57.354 49.314 57.354 48.828C57.354 48.372 57.246 48.012 57.03 47.754C56.814 47.496 56.478 47.364 56.028 47.364H55.194ZM61.3361 50.394V51H58.4681C58.4681 50.814 58.4981 50.64 58.5461 50.484C58.5941 50.328 58.6481 50.196 58.7081 50.088C58.7681 49.98 58.8641 49.866 58.9841 49.752C59.1041 49.638 59.2181 49.542 59.3141 49.47C59.4101 49.398 59.5481 49.302 59.7221 49.182C59.7341 49.176 59.7881 49.14 59.8961 49.068C60.0041 48.996 60.0701 48.954 60.0941 48.936C60.1181 48.918 60.1721 48.876 60.2561 48.81C60.3401 48.744 60.3941 48.69 60.4181 48.648C60.4421 48.612 60.4781 48.558 60.5261 48.486C60.5741 48.42 60.6041 48.354 60.6221 48.282C60.6341 48.21 60.6461 48.138 60.6461 48.054C60.6461 47.838 60.5801 47.664 60.4601 47.538C60.3401 47.412 60.1721 47.346 59.9681 47.346C59.8481 47.346 59.7401 47.37 59.6561 47.406C59.5661 47.442 59.4941 47.49 59.4461 47.55C59.3981 47.61 59.3561 47.688 59.3261 47.784C59.2901 47.88 59.2721 47.964 59.2601 48.048C59.2481 48.132 59.2421 48.234 59.2421 48.342H58.5761V48.234C58.5761 47.784 58.7021 47.424 58.9541 47.16C59.2061 46.896 59.5541 46.758 59.9861 46.758C60.3941 46.758 60.7181 46.878 60.9701 47.106C61.2161 47.334 61.3421 47.64 61.3421 48.018C61.3421 48.174 61.3181 48.318 61.2701 48.45C61.2221 48.588 61.1681 48.696 61.1141 48.78C61.0601 48.864 60.9701 48.966 60.8381 49.074C60.7061 49.188 60.6041 49.266 60.5441 49.308C60.4781 49.356 60.3581 49.434 60.1901 49.548C59.6861 49.872 59.3861 50.154 59.2901 50.394H61.3361Z" fill="black"/>
<path d="M88.6217 26.552V35H87.1577V29.192H85.0697V28.184C86.5217 28.184 87.3377 27.644 87.5177 26.552H88.6217ZM101.149 26.456V27.716H96.4815V29.984H100.813V31.196H96.4815V33.716H101.221V35H94.9935V26.456H101.149ZM103.692 28.808V29.72C104.184 29 104.868 28.64 105.744 28.64C106.44 28.64 106.968 28.832 107.316 29.216C107.664 29.6 107.844 30.152 107.844 30.872V35H106.476V31.4C106.476 31.16 106.464 30.956 106.44 30.788C106.416 30.62 106.356 30.452 106.284 30.284C106.212 30.116 106.092 29.996 105.924 29.912C105.756 29.828 105.54 29.78 105.276 29.78C104.268 29.78 103.764 30.416 103.764 31.664V35H102.396V28.808H103.692ZM115.143 26.456V35H113.859V34.148C113.463 34.832 112.803 35.168 111.879 35.168C111.003 35.168 110.307 34.88 109.791 34.28C109.275 33.692 109.023 32.9 109.023 31.892C109.023 30.908 109.275 30.116 109.779 29.528C110.283 28.94 110.967 28.64 111.831 28.64C112.695 28.64 113.355 28.964 113.799 29.612V26.456H115.143ZM112.083 29.744C111.555 29.744 111.147 29.936 110.847 30.32C110.547 30.704 110.403 31.22 110.403 31.868C110.403 32.552 110.547 33.092 110.859 33.476C111.171 33.872 111.591 34.064 112.131 34.064C112.659 34.064 113.079 33.872 113.379 33.488C113.679 33.104 113.835 32.576 113.835 31.892C113.835 31.22 113.679 30.692 113.367 30.308C113.055 29.936 112.635 29.744 112.083 29.744ZM126.274 28.976H124.846C124.75 27.98 124.138 27.476 122.986 27.476C122.47 27.476 122.074 27.584 121.786 27.8C121.498 28.016 121.354 28.304 121.354 28.664C121.354 29.012 121.45 29.252 121.666 29.372C121.882 29.504 122.35 29.66 123.082 29.84C123.274 29.9 123.418 29.936 123.526 29.96C124.474 30.2 125.122 30.416 125.47 30.608C126.226 31.016 126.61 31.652 126.61 32.516C126.61 32.9 126.538 33.236 126.418 33.536C126.286 33.848 126.118 34.1 125.902 34.304C125.686 34.508 125.422 34.676 125.134 34.808C124.834 34.952 124.522 35.048 124.21 35.108C123.886 35.168 123.55 35.192 123.214 35.192C122.134 35.192 121.27 34.94 120.61 34.424C119.938 33.92 119.614 33.164 119.614 32.168H121.09C121.09 32.792 121.294 33.26 121.702 33.56C122.11 33.86 122.638 34.004 123.298 34.004C123.874 34.004 124.318 33.896 124.642 33.656C124.966 33.416 125.134 33.092 125.134 32.66C125.134 32.396 125.038 32.168 124.87 32C124.702 31.832 124.51 31.7 124.318 31.628C124.114 31.556 123.766 31.46 123.274 31.328C123.214 31.316 123.166 31.304 123.142 31.292C122.074 31.028 121.378 30.8 121.042 30.62C120.346 30.26 119.974 29.708 119.926 28.952V28.784C119.926 28.028 120.202 27.428 120.778 26.972C121.354 26.516 122.122 26.288 123.082 26.288C124.006 26.288 124.762 26.516 125.35 26.948C125.926 27.392 126.238 28.064 126.274 28.976ZM133.168 28.808V35H131.884V34.076C131.356 34.808 130.684 35.168 129.844 35.168C129.16 35.168 128.632 34.976 128.272 34.592C127.912 34.208 127.732 33.644 127.732 32.912V28.808H129.1V32.348C129.1 32.564 129.1 32.744 129.112 32.876C129.112 33.008 129.136 33.152 129.184 33.32C129.232 33.488 129.292 33.608 129.376 33.692C129.46 33.788 129.58 33.86 129.736 33.92C129.892 33.992 130.084 34.016 130.312 34.016C130.816 34.016 131.2 33.836 131.44 33.476C131.68 33.116 131.8 32.648 131.8 32.084V28.808H133.168ZM135.93 28.808V29.636C136.338 28.964 137.01 28.628 137.946 28.628C138.798 28.628 139.482 28.928 139.998 29.528C140.502 30.128 140.766 30.932 140.766 31.928C140.766 32.912 140.514 33.692 140.01 34.28C139.506 34.868 138.846 35.156 138.018 35.156C137.13 35.156 136.458 34.832 136.002 34.184V37.292H134.646V28.808H135.93ZM137.67 29.732C137.13 29.732 136.71 29.924 136.41 30.308C136.098 30.692 135.954 31.232 135.954 31.904C135.954 32.576 136.098 33.104 136.41 33.488C136.722 33.872 137.142 34.064 137.694 34.064C138.21 34.064 138.618 33.872 138.93 33.488C139.23 33.104 139.386 32.588 139.386 31.928C139.386 31.256 139.23 30.728 138.918 30.332C138.606 29.936 138.198 29.732 137.67 29.732ZM143.266 28.808V29.636C143.674 28.964 144.346 28.628 145.282 28.628C146.134 28.628 146.818 28.928 147.334 29.528C147.838 30.128 148.102 30.932 148.102 31.928C148.102 32.912 147.85 33.692 147.346 34.28C146.842 34.868 146.182 35.156 145.354 35.156C144.466 35.156 143.794 34.832 143.338 34.184V37.292H141.982V28.808H143.266ZM145.006 29.732C144.466 29.732 144.046 29.924 143.746 30.308C143.434 30.692 143.29 31.232 143.29 31.904C143.29 32.576 143.434 33.104 143.746 33.488C144.058 33.872 144.478 34.064 145.03 34.064C145.546 34.064 145.954 33.872 146.266 33.488C146.566 33.104 146.722 32.588 146.722 31.928C146.722 31.256 146.566 30.728 146.254 30.332C145.942 29.936 145.534 29.732 145.006 29.732ZM152.162 28.628C153.098 28.628 153.854 28.928 154.418 29.516C154.97 30.116 155.258 30.908 155.258 31.904C155.258 32.912 154.97 33.716 154.418 34.304C153.866 34.904 153.11 35.192 152.162 35.192C151.19 35.192 150.422 34.904 149.858 34.304C149.282 33.716 149.006 32.912 149.006 31.904C149.006 30.908 149.282 30.116 149.858 29.516C150.434 28.928 151.202 28.628 152.162 28.628ZM152.138 29.708C151.586 29.708 151.166 29.912 150.854 30.296C150.542 30.692 150.386 31.232 150.386 31.904C150.386 32.6 150.542 33.152 150.854 33.536C151.166 33.932 151.598 34.124 152.15 34.124C152.678 34.124 153.098 33.932 153.41 33.536C153.722 33.14 153.878 32.588 153.878 31.892C153.878 31.22 153.722 30.68 153.41 30.296C153.098 29.912 152.678 29.708 152.138 29.708ZM159.912 28.688V29.996C159.672 29.972 159.504 29.96 159.432 29.96C158.232 29.96 157.644 30.74 157.644 32.276V35H156.288V28.808H157.572V30.044C158.004 29.132 158.7 28.664 159.648 28.664L159.912 28.688ZM163.65 28.808V29.804H162.402V33.068C162.402 33.26 162.402 33.404 162.414 33.476C162.414 33.548 162.438 33.632 162.486 33.728C162.522 33.824 162.594 33.884 162.69 33.908C162.786 33.944 162.93 33.956 163.11 33.956C163.326 33.956 163.506 33.956 163.65 33.932V35.012C163.374 35.048 163.062 35.06 162.726 35.06C162.486 35.06 162.27 35.048 162.09 35.012C161.91 34.976 161.766 34.928 161.646 34.88C161.526 34.832 161.418 34.76 161.346 34.64C161.262 34.52 161.202 34.424 161.154 34.352C161.106 34.28 161.082 34.136 161.058 33.944C161.034 33.752 161.034 33.608 161.034 33.512V32.984V32.912V32.84V32.756V29.804H160.002V28.808H161.034V26.948H162.402V28.808H163.65ZM97.2689 38.648V39.836H93.9209L93.5369 41.996C93.9089 41.6 94.4369 41.396 95.1209 41.396C95.8889 41.396 96.5249 41.648 97.0049 42.152C97.4849 42.656 97.7249 43.328 97.7249 44.144C97.7249 45.032 97.4369 45.764 96.8849 46.316C96.3209 46.88 95.6009 47.156 94.7249 47.156C93.8849 47.156 93.2129 46.928 92.6969 46.472C92.1809 46.016 91.9049 45.392 91.8809 44.612H93.2369C93.2609 45.044 93.4169 45.392 93.7049 45.644C93.9809 45.908 94.3289 46.028 94.7609 46.028C95.2529 46.028 95.6369 45.872 95.9129 45.56C96.1769 45.248 96.3209 44.792 96.3209 44.216C96.3209 43.664 96.1769 43.232 95.9009 42.92C95.6129 42.608 95.2289 42.452 94.7369 42.452C94.1369 42.452 93.6689 42.704 93.3329 43.208L92.1329 43.172L92.9369 38.648H97.2689ZM102.441 38.456H106.341C107.229 38.456 107.913 38.66 108.393 39.044C108.873 39.428 109.113 39.956 109.113 40.604C109.113 41.012 108.993 41.384 108.777 41.708C108.549 42.032 108.249 42.26 107.889 42.404C108.381 42.524 108.777 42.764 109.065 43.124C109.353 43.484 109.497 43.94 109.497 44.48C109.497 45.236 109.245 45.848 108.741 46.304C108.237 46.772 107.589 47 106.797 47H102.441V38.456ZM103.905 39.668V42.02H105.945C106.521 42.02 106.941 41.936 107.217 41.756C107.481 41.576 107.625 41.276 107.625 40.844C107.625 40.364 107.481 40.052 107.193 39.896C106.905 39.752 106.509 39.668 105.993 39.668H103.905ZM103.905 43.1V45.776H106.149C106.725 45.776 107.169 45.68 107.505 45.488C107.829 45.296 107.997 44.948 107.997 44.444C107.997 44.168 107.937 43.94 107.841 43.748C107.745 43.556 107.601 43.424 107.409 43.328C107.217 43.244 107.025 43.184 106.833 43.148C106.629 43.124 106.389 43.1 106.125 43.1H103.905ZM110.662 42.716C110.806 41.324 111.706 40.616 113.374 40.616C114.142 40.616 114.766 40.772 115.222 41.072C115.678 41.384 115.918 41.852 115.918 42.488V45.632C115.918 45.812 115.93 45.932 115.978 45.992C116.026 46.064 116.11 46.088 116.242 46.088C116.338 46.088 116.434 46.088 116.554 46.064V47.024C116.194 47.12 115.906 47.156 115.666 47.156C115.078 47.156 114.742 46.916 114.658 46.412C114.13 46.916 113.41 47.156 112.486 47.156C111.838 47.156 111.334 47 110.962 46.664C110.578 46.328 110.398 45.884 110.398 45.308C110.398 45.14 110.41 44.972 110.458 44.816C110.494 44.672 110.542 44.54 110.59 44.42C110.638 44.312 110.722 44.204 110.842 44.108C110.962 44.012 111.058 43.94 111.13 43.868C111.202 43.808 111.334 43.748 111.502 43.688C111.67 43.64 111.802 43.592 111.886 43.568C111.97 43.544 112.114 43.508 112.33 43.472C112.534 43.448 112.666 43.424 112.738 43.412C112.81 43.4 112.954 43.376 113.17 43.352C113.65 43.292 113.986 43.244 114.166 43.196C114.334 43.148 114.454 43.088 114.526 42.992C114.574 42.932 114.61 42.788 114.61 42.548C114.61 41.924 114.178 41.612 113.338 41.612C112.882 41.612 112.558 41.696 112.354 41.864C112.138 42.032 112.006 42.32 111.958 42.716H110.662ZM114.598 43.892C114.49 43.952 114.37 44 114.238 44.048C114.094 44.096 113.986 44.12 113.902 44.132C113.818 44.144 113.686 44.156 113.506 44.18C113.326 44.204 113.206 44.228 113.158 44.228C112.99 44.252 112.858 44.276 112.762 44.3C112.666 44.324 112.546 44.348 112.402 44.396C112.258 44.444 112.15 44.504 112.078 44.576C112.006 44.648 111.934 44.732 111.886 44.852C111.826 44.972 111.802 45.104 111.802 45.26C111.802 45.56 111.898 45.788 112.09 45.944C112.282 46.112 112.558 46.184 112.918 46.184C113.518 46.184 113.986 46.028 114.322 45.692C114.502 45.512 114.598 45.152 114.598 44.624V43.892ZM120.894 40.688V41.996C120.654 41.972 120.486 41.96 120.414 41.96C119.214 41.96 118.626 42.74 118.626 44.276V47H117.27V40.808H118.554V42.044C118.986 41.132 119.682 40.664 120.63 40.664L120.894 40.688ZM125.117 38.456H129.017C129.905 38.456 130.589 38.66 131.069 39.044C131.549 39.428 131.789 39.956 131.789 40.604C131.789 41.012 131.669 41.384 131.453 41.708C131.225 42.032 130.925 42.26 130.565 42.404C131.057 42.524 131.453 42.764 131.741 43.124C132.029 43.484 132.173 43.94 132.173 44.48C132.173 45.236 131.921 45.848 131.417 46.304C130.913 46.772 130.265 47 129.473 47H125.117V38.456ZM126.581 39.668V42.02H128.621C129.197 42.02 129.617 41.936 129.893 41.756C130.157 41.576 130.301 41.276 130.301 40.844C130.301 40.364 130.157 40.052 129.869 39.896C129.581 39.752 129.185 39.668 128.669 39.668H126.581ZM126.581 43.1V45.776H128.825C129.401 45.776 129.845 45.68 130.181 45.488C130.505 45.296 130.673 44.948 130.673 44.444C130.673 44.168 130.613 43.94 130.517 43.748C130.421 43.556 130.277 43.424 130.085 43.328C129.893 43.244 129.701 43.184 129.509 43.148C129.305 43.124 129.065 43.1 128.801 43.1H126.581ZM138.942 45.068C138.786 45.74 138.45 46.268 137.946 46.64C137.442 47.024 136.83 47.204 136.134 47.204C135.198 47.204 134.454 46.904 133.902 46.304C133.35 45.704 133.086 44.924 133.086 43.976C133.086 43.016 133.362 42.212 133.926 41.576C134.49 40.952 135.21 40.628 136.086 40.628C136.986 40.628 137.706 40.94 138.234 41.564C138.762 42.188 139.026 43.028 139.026 44.096V44.24H134.454C134.466 44.864 134.622 45.356 134.922 45.692C135.21 46.028 135.63 46.196 136.158 46.196C136.53 46.196 136.83 46.112 137.07 45.932C137.31 45.752 137.49 45.464 137.634 45.068H138.942ZM137.658 43.328C137.61 42.812 137.454 42.404 137.166 42.104C136.878 41.804 136.518 41.648 136.074 41.648C135.618 41.648 135.258 41.792 134.982 42.08C134.706 42.368 134.538 42.788 134.478 43.328H137.658ZM140.006 42.716C140.15 41.324 141.05 40.616 142.718 40.616C143.486 40.616 144.11 40.772 144.566 41.072C145.022 41.384 145.262 41.852 145.262 42.488V45.632C145.262 45.812 145.274 45.932 145.322 45.992C145.37 46.064 145.454 46.088 145.586 46.088C145.682 46.088 145.778 46.088 145.898 46.064V47.024C145.538 47.12 145.25 47.156 145.01 47.156C144.422 47.156 144.086 46.916 144.002 46.412C143.474 46.916 142.754 47.156 141.83 47.156C141.182 47.156 140.678 47 140.306 46.664C139.922 46.328 139.742 45.884 139.742 45.308C139.742 45.14 139.754 44.972 139.802 44.816C139.838 44.672 139.886 44.54 139.934 44.42C139.982 44.312 140.066 44.204 140.186 44.108C140.306 44.012 140.402 43.94 140.474 43.868C140.546 43.808 140.678 43.748 140.846 43.688C141.014 43.64 141.146 43.592 141.23 43.568C141.314 43.544 141.458 43.508 141.674 43.472C141.878 43.448 142.01 43.424 142.082 43.412C142.154 43.4 142.298 43.376 142.514 43.352C142.994 43.292 143.33 43.244 143.51 43.196C143.678 43.148 143.798 43.088 143.87 42.992C143.918 42.932 143.954 42.788 143.954 42.548C143.954 41.924 143.522 41.612 142.682 41.612C142.226 41.612 141.902 41.696 141.698 41.864C141.482 42.032 141.35 42.32 141.302 42.716H140.006ZM143.942 43.892C143.834 43.952 143.714 44 143.582 44.048C143.438 44.096 143.33 44.12 143.246 44.132C143.162 44.144 143.03 44.156 142.85 44.18C142.67 44.204 142.55 44.228 142.502 44.228C142.334 44.252 142.202 44.276 142.106 44.3C142.01 44.324 141.89 44.348 141.746 44.396C141.602 44.444 141.494 44.504 141.422 44.576C141.35 44.648 141.278 44.732 141.23 44.852C141.17 44.972 141.146 45.104 141.146 45.26C141.146 45.56 141.242 45.788 141.434 45.944C141.626 46.112 141.902 46.184 142.262 46.184C142.862 46.184 143.33 46.028 143.666 45.692C143.846 45.512 143.942 45.152 143.942 44.624V43.892ZM148.042 40.808V41.684C148.546 40.988 149.194 40.64 149.986 40.64C150.394 40.64 150.742 40.736 151.042 40.916C151.342 41.108 151.57 41.36 151.714 41.696C152.206 41 152.878 40.64 153.718 40.64C154.294 40.64 154.786 40.82 155.17 41.168C155.554 41.516 155.746 41.996 155.746 42.608V47H154.378V43.196C154.378 42.764 154.294 42.416 154.15 42.164C153.994 41.924 153.706 41.792 153.274 41.792C152.83 41.792 152.494 41.936 152.266 42.212C152.026 42.488 151.918 42.872 151.918 43.364V47H150.55V43.124C150.55 42.692 150.478 42.356 150.346 42.128C150.214 41.912 149.938 41.792 149.53 41.792C149.062 41.792 148.714 41.948 148.474 42.248C148.234 42.548 148.114 42.944 148.114 43.436V47H146.746V40.808H148.042Z" fill="black"/>
<path d="M24.5 97.5V93H82.5" stroke="#B02E0C" stroke-width="1.8" stroke-linecap="square"/>
<path d="M152.5 97.5V93H94.5" stroke="#B02E0C" stroke-width="1.8" stroke-linecap="square"/>
<path d="M42.5 111.5L44.5 112.655V110.345L42.5 111.5ZM53 111.5L51 110.345V112.655L53 111.5ZM44.3 111.5V111.7H51.2V111.5V111.3H44.3V111.5Z" fill="black"/>
<path d="M49.522 105.988H48.808C48.76 105.49 48.454 105.238 47.878 105.238C47.62 105.238 47.422 105.292 47.278 105.4C47.134 105.508 47.062 105.652 47.062 105.832C47.062 106.006 47.11 106.126 47.218 106.186C47.326 106.252 47.56 106.33 47.926 106.42C48.022 106.45 48.094 106.468 48.148 106.48C48.622 106.6 48.946 106.708 49.12 106.804C49.498 107.008 49.69 107.326 49.69 107.758C49.69 107.95 49.654 108.118 49.594 108.268C49.528 108.424 49.444 108.55 49.336 108.652C49.228 108.754 49.096 108.838 48.952 108.904C48.802 108.976 48.646 109.024 48.49 109.054C48.328 109.084 48.16 109.096 47.992 109.096C47.452 109.096 47.02 108.97 46.69 108.712C46.354 108.46 46.192 108.082 46.192 107.584H46.93C46.93 107.896 47.032 108.13 47.236 108.28C47.44 108.43 47.704 108.502 48.034 108.502C48.322 108.502 48.544 108.448 48.706 108.328C48.868 108.208 48.952 108.046 48.952 107.83C48.952 107.698 48.904 107.584 48.82 107.5C48.736 107.416 48.64 107.35 48.544 107.314C48.442 107.278 48.268 107.23 48.022 107.164C47.992 107.158 47.968 107.152 47.956 107.146C47.422 107.014 47.074 106.9 46.906 106.81C46.558 106.63 46.372 106.354 46.348 105.976V105.892C46.348 105.514 46.486 105.214 46.774 104.986C47.062 104.758 47.446 104.644 47.926 104.644C48.388 104.644 48.766 104.758 49.06 104.974C49.348 105.196 49.504 105.532 49.522 105.988Z" fill="black"/>
</svg>
