<svg width="176" height="136" viewBox="0 0 176 136" fill="none" xmlns="http://www.w3.org/2000/svg">
<path d="M0 16C0 7.16344 7.16344 0 16 0H160C168.837 0 176 7.16344 176 16V120C176 128.837 168.837 136 160 136H16C7.16344 136 0 128.837 0 120V16Z" fill="white"/>
<path d="M16 0.5H160C168.56 0.5 175.5 7.43959 175.5 16V120C175.5 128.56 168.56 135.5 160 135.5H16C7.43959 135.5 0.5 128.56 0.5 120V16C0.5 7.43959 7.43959 0.5 16 0.5Z" stroke="#B02E0C" stroke-opacity="0.16"/>
<rect x="15.5" y="82.5" width="146" height="41" stroke="black"/>
<path d="M30 88V118" stroke="black" stroke-linecap="square"/>
<path d="M41.6992 88V118" stroke="black" stroke-linecap="square"/>
<path d="M53.4004 88V118" stroke="black" stroke-linecap="square"/>
<path d="M65.0996 88V118" stroke="black" stroke-linecap="square"/>
<path d="M76.8008 88V118" stroke="black" stroke-linecap="square"/>
<path d="M88.5 88V118" stroke="black" stroke-linecap="square"/>
<path d="M100.199 88V118" stroke="black" stroke-linecap="square"/>
<path d="M111.9 88V118" stroke="black" stroke-linecap="square"/>
<path d="M123.6 88V118" stroke="black" stroke-linecap="square"/>
<path d="M135.301 88V118" stroke="black" stroke-linecap="square"/>
<path d="M147 88V118" stroke="black" stroke-linecap="square"/>
<path d="M21 100V92C21 89.7909 22.7909 88 25 88H152C154.209 88 156 89.7909 156 92V100" stroke="#F7941D" stroke-linecap="square"/>
<path d="M21 106V114C21 116.209 22.7909 118 25 118H152C154.209 118 156 116.209 156 114V106" stroke="#F7941D" stroke-linecap="square"/>
<path d="M30.5 102.5L32.5 103.655V101.345L30.5 102.5ZM41 102.5L39 101.345V103.655L41 102.5ZM32.3 102.5V102.7H39.2V102.5V102.3H32.3V102.5Z" fill="black"/>
<path d="M90.496 131.136V132H86.592V126.304H87.6V131.136H90.496Z" fill="black"/>
<rect x="15.3193" y="12.3193" width="52.3615" height="52.3615" stroke="black" stroke-width="0.638542"/>
<rect x="18.831" y="15.831" width="45.3374" height="45.3374" rx="4.78907" stroke="#F7941D" stroke-width="0.638542"/>
<circle cx="24.898" cy="21.897" r="2.55422" fill="#F7941D"/>
<circle cx="24.898" cy="55.1021" r="2.55422" fill="#F7941D"/>
<circle cx="42" cy="55" r="2" fill="#B02E0C"/>
<circle cx="58.1011" cy="21.897" r="2.55422" fill="#F7941D"/>
<circle cx="58.1011" cy="55.1021" r="2.55422" fill="#F7941D"/>
<path d="M22.3436 26.6865C15.958 16.6293 21.5427 12.798 29.6859 20.301" stroke="#B02E0C" stroke-width="0.519288" stroke-linecap="round"/>
<path d="M38.952 73L40.984 70.048L39.096 67.304H40.288L41.584 69.32L42.936 67.304H44.056L42.168 70.048L44.192 73H42.976L41.552 70.824L40.104 73H38.952Z" fill="black"/>
<path d="M76.24 35.304L74.096 38.736V41H73.112V38.736L70.96 35.304H72.112L73.624 37.824L75.12 35.304H76.24Z" fill="black"/>
<path d="M19 34L21 35.1547V32.8453L19 34ZM20.8 34V34.2H29.5V34V33.8H20.8V34Z" fill="black"/>
<path d="M31.444 31.728H33.466C33.886 31.728 34.234 31.824 34.504 32.016C34.768 32.208 34.906 32.508 34.906 32.916C34.906 33.174 34.84 33.396 34.72 33.576C34.594 33.756 34.42 33.888 34.198 33.966C34.3 33.99 34.39 34.026 34.468 34.074C34.54 34.122 34.6 34.176 34.642 34.23C34.684 34.29 34.72 34.362 34.75 34.446C34.774 34.536 34.792 34.614 34.804 34.68C34.816 34.746 34.822 34.83 34.834 34.938C34.834 34.968 34.84 35.022 34.846 35.1C34.852 35.184 34.858 35.238 34.858 35.262C34.858 35.286 34.864 35.334 34.87 35.394C34.876 35.46 34.882 35.508 34.888 35.532C34.888 35.556 34.894 35.598 34.906 35.646C34.918 35.694 34.924 35.736 34.936 35.76C34.942 35.784 34.954 35.814 34.966 35.85C34.978 35.886 34.99 35.91 35.008 35.934C35.02 35.958 35.038 35.982 35.062 36H34.258C34.246 35.988 34.234 35.97 34.222 35.946C34.21 35.922 34.204 35.898 34.198 35.874C34.186 35.85 34.18 35.826 34.18 35.802C34.174 35.778 34.168 35.748 34.162 35.712C34.156 35.676 34.156 35.64 34.156 35.616L34.144 35.508L34.132 35.4C34.132 35.376 34.126 35.334 34.126 35.274C34.12 35.214 34.12 35.172 34.12 35.148C34.096 34.8 34.024 34.566 33.898 34.434C33.772 34.302 33.532 34.236 33.184 34.236H32.188V36H31.444V31.728ZM32.188 32.34V33.678H33.178C33.322 33.678 33.442 33.672 33.544 33.654C33.64 33.642 33.742 33.612 33.844 33.57C33.946 33.528 34.024 33.456 34.078 33.36C34.132 33.264 34.162 33.144 34.162 32.994C34.162 32.862 34.138 32.748 34.09 32.658C34.042 32.568 33.97 32.502 33.88 32.454C33.79 32.412 33.7 32.382 33.604 32.364C33.508 32.352 33.4 32.34 33.274 32.34H32.188Z" fill="black"/>
<path d="M54.45 25.728H56.076C56.37 25.728 56.628 25.764 56.856 25.824C57.078 25.884 57.282 25.998 57.474 26.166C57.894 26.544 58.104 27.084 58.104 27.792C58.104 28.548 57.9 29.13 57.504 29.526C57.324 29.706 57.132 29.826 56.928 29.898C56.724 29.97 56.454 30 56.118 30H54.45V25.728ZM55.194 26.364V29.37H56.076C56.544 29.37 56.874 29.238 57.066 28.962C57.258 28.692 57.354 28.314 57.354 27.828C57.354 27.372 57.246 27.012 57.03 26.754C56.814 26.496 56.478 26.364 56.028 26.364H55.194ZM60.5921 25.776V30H59.8601V27.096H58.8161V26.592C59.5421 26.592 59.9501 26.322 60.0401 25.776H60.5921Z" fill="black"/>
<path d="M54.45 46.728H56.076C56.37 46.728 56.628 46.764 56.856 46.824C57.078 46.884 57.282 46.998 57.474 47.166C57.894 47.544 58.104 48.084 58.104 48.792C58.104 49.548 57.9 50.13 57.504 50.526C57.324 50.706 57.132 50.826 56.928 50.898C56.724 50.97 56.454 51 56.118 51H54.45V46.728ZM55.194 47.364V50.37H56.076C56.544 50.37 56.874 50.238 57.066 49.962C57.258 49.692 57.354 49.314 57.354 48.828C57.354 48.372 57.246 48.012 57.03 47.754C56.814 47.496 56.478 47.364 56.028 47.364H55.194ZM61.3361 50.394V51H58.4681C58.4681 50.814 58.4981 50.64 58.5461 50.484C58.5941 50.328 58.6481 50.196 58.7081 50.088C58.7681 49.98 58.8641 49.866 58.9841 49.752C59.1041 49.638 59.2181 49.542 59.3141 49.47C59.4101 49.398 59.5481 49.302 59.7221 49.182C59.7341 49.176 59.7881 49.14 59.8961 49.068C60.0041 48.996 60.0701 48.954 60.0941 48.936C60.1181 48.918 60.1721 48.876 60.2561 48.81C60.3401 48.744 60.3941 48.69 60.4181 48.648C60.4421 48.612 60.4781 48.558 60.5261 48.486C60.5741 48.42 60.6041 48.354 60.6221 48.282C60.6341 48.21 60.6461 48.138 60.6461 48.054C60.6461 47.838 60.5801 47.664 60.4601 47.538C60.3401 47.412 60.1721 47.346 59.9681 47.346C59.8481 47.346 59.7401 47.37 59.6561 47.406C59.5661 47.442 59.4941 47.49 59.4461 47.55C59.3981 47.61 59.3561 47.688 59.3261 47.784C59.2901 47.88 59.2721 47.964 59.2601 48.048C59.2481 48.132 59.2421 48.234 59.2421 48.342H58.5761V48.234C58.5761 47.784 58.7021 47.424 58.9541 47.16C59.2061 46.896 59.5541 46.758 59.9861 46.758C60.3941 46.758 60.7181 46.878 60.9701 47.106C61.2161 47.334 61.3421 47.64 61.3421 48.018C61.3421 48.174 61.3181 48.318 61.2701 48.45C61.2221 48.588 61.1681 48.696 61.1141 48.78C61.0601 48.864 60.9701 48.966 60.8381 49.074C60.7061 49.188 60.6041 49.266 60.5441 49.308C60.4781 49.356 60.3581 49.434 60.1901 49.548C59.6861 49.872 59.3861 50.154 59.2901 50.394H61.3361Z" fill="black"/>
<path d="M38.45 46.728H40.076C40.37 46.728 40.628 46.764 40.856 46.824C41.078 46.884 41.282 46.998 41.474 47.166C41.894 47.544 42.104 48.084 42.104 48.792C42.104 49.548 41.9 50.13 41.504 50.526C41.324 50.706 41.132 50.826 40.928 50.898C40.724 50.97 40.454 51 40.118 51H38.45V46.728ZM39.194 47.364V50.37H40.076C40.544 50.37 40.874 50.238 41.066 49.962C41.258 49.692 41.354 49.314 41.354 48.828C41.354 48.372 41.246 48.012 41.03 47.754C40.814 47.496 40.478 47.364 40.028 47.364H39.194ZM42.5941 48.15C42.6061 47.718 42.7321 47.382 42.9781 47.13C43.2181 46.884 43.5481 46.758 43.9621 46.758C44.3461 46.758 44.6641 46.866 44.9041 47.07C45.1441 47.28 45.2641 47.55 45.2641 47.886C45.2641 48.09 45.2101 48.27 45.1021 48.426C44.9941 48.582 44.8561 48.684 44.6761 48.744C44.9101 48.804 45.0961 48.924 45.2341 49.098C45.3661 49.272 45.4381 49.482 45.4381 49.734C45.4381 50.136 45.3001 50.46 45.0241 50.712C44.7481 50.964 44.3881 51.09 43.9501 51.09C43.5121 51.09 43.1581 50.964 42.8941 50.712C42.6241 50.46 42.4921 50.13 42.4921 49.71V49.62H43.1521C43.1701 50.208 43.4401 50.502 43.9681 50.502C44.1961 50.502 44.3821 50.436 44.5201 50.304C44.6521 50.172 44.7241 49.986 44.7241 49.752C44.7241 49.512 44.6461 49.332 44.4901 49.218C44.3341 49.11 44.1301 49.05 43.8841 49.05C43.8061 49.05 43.7341 49.056 43.6681 49.056V48.54H43.7281C43.8481 48.54 43.9561 48.534 44.0461 48.522C44.1301 48.51 44.2201 48.48 44.3101 48.444C44.4001 48.408 44.4721 48.342 44.5201 48.258C44.5681 48.174 44.5921 48.066 44.5921 47.934C44.5921 47.754 44.5321 47.604 44.4181 47.49C44.2981 47.382 44.1421 47.322 43.9501 47.322C43.5001 47.322 43.2661 47.598 43.2481 48.15H42.5941Z" fill="black"/>
<path d="M102.31 27.144V37H100.602V30.224H98.1662V29.048C99.8602 29.048 100.812 28.418 101.022 27.144H102.31ZM118.298 33.206C118.2 34.438 117.766 35.418 116.982 36.146C116.198 36.874 115.19 37.238 113.958 37.238C112.544 37.238 111.41 36.762 110.57 35.81C109.716 34.858 109.296 33.598 109.296 32.016C109.296 31.064 109.478 30.21 109.842 29.426C110.206 28.642 110.752 28.012 111.48 27.536C112.208 27.06 113.062 26.808 114.042 26.808C115.092 26.808 116.016 27.102 116.8 27.69C117.584 28.278 118.046 29.118 118.214 30.21H116.478C116.352 29.622 116.072 29.146 115.638 28.81C115.19 28.474 114.658 28.292 114.014 28.292C113.342 28.292 112.782 28.488 112.32 28.852C111.858 29.23 111.536 29.692 111.34 30.238C111.144 30.784 111.06 31.372 111.06 32.016C111.06 32.506 111.116 32.968 111.228 33.388C111.34 33.822 111.508 34.214 111.732 34.578C111.956 34.942 112.25 35.222 112.642 35.432C113.034 35.656 113.482 35.754 114 35.754C115.484 35.754 116.324 34.914 116.548 33.206H118.298ZM125.994 29.776V37H124.496V35.922C123.88 36.776 123.096 37.196 122.116 37.196C121.318 37.196 120.702 36.972 120.282 36.524C119.862 36.076 119.652 35.418 119.652 34.564V29.776H121.248V33.906C121.248 34.158 121.248 34.368 121.262 34.522C121.262 34.676 121.29 34.844 121.346 35.04C121.402 35.236 121.472 35.376 121.57 35.474C121.668 35.586 121.808 35.67 121.99 35.74C122.172 35.824 122.396 35.852 122.662 35.852C123.25 35.852 123.698 35.642 123.978 35.222C124.258 34.802 124.398 34.256 124.398 33.598V29.776H125.994ZM131.779 29.636V31.162C131.499 31.134 131.303 31.12 131.219 31.12C129.819 31.12 129.133 32.03 129.133 33.822V37H127.551V29.776H129.049V31.218C129.553 30.154 130.365 29.608 131.471 29.608L131.779 29.636ZM136.14 29.776V30.938H134.684V34.746C134.684 34.97 134.684 35.138 134.698 35.222C134.698 35.306 134.726 35.404 134.782 35.516C134.824 35.628 134.908 35.698 135.02 35.726C135.132 35.768 135.3 35.782 135.51 35.782C135.762 35.782 135.972 35.782 136.14 35.754V37.014C135.818 37.056 135.454 37.07 135.062 37.07C134.782 37.07 134.53 37.056 134.32 37.014C134.11 36.972 133.942 36.916 133.802 36.86C133.662 36.804 133.536 36.72 133.452 36.58C133.354 36.44 133.284 36.328 133.228 36.244C133.172 36.16 133.144 35.992 133.116 35.768C133.088 35.544 133.088 35.376 133.088 35.264V34.648V34.564V34.48V34.382V30.938H131.884V29.776H133.088V27.606H134.684V29.776H136.14ZM137.205 32.002C137.373 30.378 138.423 29.552 140.369 29.552C141.265 29.552 141.993 29.734 142.525 30.084C143.057 30.448 143.337 30.994 143.337 31.736V35.404C143.337 35.614 143.351 35.754 143.407 35.824C143.463 35.908 143.561 35.936 143.715 35.936C143.827 35.936 143.939 35.936 144.079 35.908V37.028C143.659 37.14 143.323 37.182 143.043 37.182C142.357 37.182 141.965 36.902 141.867 36.314C141.251 36.902 140.411 37.182 139.333 37.182C138.577 37.182 137.989 37 137.555 36.608C137.107 36.216 136.897 35.698 136.897 35.026C136.897 34.83 136.911 34.634 136.967 34.452C137.009 34.284 137.065 34.13 137.121 33.99C137.177 33.864 137.275 33.738 137.415 33.626C137.555 33.514 137.667 33.43 137.751 33.346C137.835 33.276 137.989 33.206 138.185 33.136C138.381 33.08 138.535 33.024 138.633 32.996C138.731 32.968 138.899 32.926 139.151 32.884C139.389 32.856 139.543 32.828 139.627 32.814C139.711 32.8 139.879 32.772 140.131 32.744C140.691 32.674 141.083 32.618 141.293 32.562C141.489 32.506 141.629 32.436 141.713 32.324C141.769 32.254 141.811 32.086 141.811 31.806C141.811 31.078 141.307 30.714 140.327 30.714C139.795 30.714 139.417 30.812 139.179 31.008C138.927 31.204 138.773 31.54 138.717 32.002H137.205ZM141.797 33.374C141.671 33.444 141.531 33.5 141.377 33.556C141.209 33.612 141.083 33.64 140.985 33.654C140.887 33.668 140.733 33.682 140.523 33.71C140.313 33.738 140.173 33.766 140.117 33.766C139.921 33.794 139.767 33.822 139.655 33.85C139.543 33.878 139.403 33.906 139.235 33.962C139.067 34.018 138.941 34.088 138.857 34.172C138.773 34.256 138.689 34.354 138.633 34.494C138.563 34.634 138.535 34.788 138.535 34.97C138.535 35.32 138.647 35.586 138.871 35.768C139.095 35.964 139.417 36.048 139.837 36.048C140.537 36.048 141.083 35.866 141.475 35.474C141.685 35.264 141.797 34.844 141.797 34.228V33.374ZM146.692 26.99V28.558H145.096V26.99H146.692ZM146.692 29.776V37H145.096V29.776H146.692ZM150.069 27.032V37H148.487V27.032H150.069ZM93.4437 47.332V48.676H92.1977V51H90.6577L90.6437 48.676H86.4857V47.094L90.6857 41.116H92.1977V47.332H93.4437ZM90.6717 47.332V43.09L87.8017 47.332H90.6717ZM98.8475 41.032H103.398C104.434 41.032 105.232 41.27 105.792 41.718C106.352 42.166 106.632 42.782 106.632 43.538C106.632 44.014 106.492 44.448 106.24 44.826C105.974 45.204 105.624 45.47 105.204 45.638C105.778 45.778 106.24 46.058 106.576 46.478C106.912 46.898 107.08 47.43 107.08 48.06C107.08 48.942 106.786 49.656 106.198 50.188C105.61 50.734 104.854 51 103.93 51H98.8475V41.032ZM100.556 42.446V45.19H102.936C103.608 45.19 104.098 45.092 104.42 44.882C104.728 44.672 104.896 44.322 104.896 43.818C104.896 43.258 104.728 42.894 104.392 42.712C104.056 42.544 103.594 42.446 102.992 42.446H100.556ZM100.556 46.45V49.572H103.174C103.846 49.572 104.364 49.46 104.756 49.236C105.134 49.012 105.33 48.606 105.33 48.018C105.33 47.696 105.26 47.43 105.148 47.206C105.036 46.982 104.868 46.828 104.644 46.716C104.42 46.618 104.196 46.548 103.972 46.506C103.734 46.478 103.454 46.45 103.146 46.45H100.556ZM108.439 46.002C108.607 44.378 109.657 43.552 111.603 43.552C112.499 43.552 113.227 43.734 113.759 44.084C114.291 44.448 114.571 44.994 114.571 45.736V49.404C114.571 49.614 114.585 49.754 114.641 49.824C114.697 49.908 114.795 49.936 114.949 49.936C115.061 49.936 115.173 49.936 115.313 49.908V51.028C114.893 51.14 114.557 51.182 114.277 51.182C113.591 51.182 113.199 50.902 113.101 50.314C112.485 50.902 111.645 51.182 110.567 51.182C109.811 51.182 109.223 51 108.789 50.608C108.341 50.216 108.131 49.698 108.131 49.026C108.131 48.83 108.145 48.634 108.201 48.452C108.243 48.284 108.299 48.13 108.355 47.99C108.411 47.864 108.509 47.738 108.649 47.626C108.789 47.514 108.901 47.43 108.985 47.346C109.069 47.276 109.223 47.206 109.419 47.136C109.615 47.08 109.769 47.024 109.867 46.996C109.965 46.968 110.133 46.926 110.385 46.884C110.623 46.856 110.777 46.828 110.861 46.814C110.945 46.8 111.113 46.772 111.365 46.744C111.925 46.674 112.317 46.618 112.527 46.562C112.723 46.506 112.863 46.436 112.947 46.324C113.003 46.254 113.045 46.086 113.045 45.806C113.045 45.078 112.541 44.714 111.561 44.714C111.029 44.714 110.651 44.812 110.413 45.008C110.161 45.204 110.007 45.54 109.951 46.002H108.439ZM113.031 47.374C112.905 47.444 112.765 47.5 112.611 47.556C112.443 47.612 112.317 47.64 112.219 47.654C112.121 47.668 111.967 47.682 111.757 47.71C111.547 47.738 111.407 47.766 111.351 47.766C111.155 47.794 111.001 47.822 110.889 47.85C110.777 47.878 110.637 47.906 110.469 47.962C110.301 48.018 110.175 48.088 110.091 48.172C110.007 48.256 109.923 48.354 109.867 48.494C109.797 48.634 109.769 48.788 109.769 48.97C109.769 49.32 109.881 49.586 110.105 49.768C110.329 49.964 110.651 50.048 111.071 50.048C111.771 50.048 112.317 49.866 112.709 49.474C112.919 49.264 113.031 48.844 113.031 48.228V47.374ZM120.376 43.636V45.162C120.096 45.134 119.9 45.12 119.816 45.12C118.416 45.12 117.73 46.03 117.73 47.822V51H116.148V43.776H117.646V45.218C118.15 44.154 118.962 43.608 120.068 43.608L120.376 43.636ZM125.303 41.032H129.853C130.889 41.032 131.687 41.27 132.247 41.718C132.807 42.166 133.087 42.782 133.087 43.538C133.087 44.014 132.947 44.448 132.695 44.826C132.429 45.204 132.079 45.47 131.659 45.638C132.233 45.778 132.695 46.058 133.031 46.478C133.367 46.898 133.535 47.43 133.535 48.06C133.535 48.942 133.241 49.656 132.653 50.188C132.065 50.734 131.309 51 130.385 51H125.303V41.032ZM127.011 42.446V45.19H129.391C130.063 45.19 130.553 45.092 130.875 44.882C131.183 44.672 131.351 44.322 131.351 43.818C131.351 43.258 131.183 42.894 130.847 42.712C130.511 42.544 130.049 42.446 129.447 42.446H127.011ZM127.011 46.45V49.572H129.629C130.301 49.572 130.819 49.46 131.211 49.236C131.589 49.012 131.785 48.606 131.785 48.018C131.785 47.696 131.715 47.43 131.603 47.206C131.491 46.982 131.323 46.828 131.099 46.716C130.875 46.618 130.651 46.548 130.427 46.506C130.189 46.478 129.909 46.45 129.601 46.45H127.011ZM141.432 48.746C141.25 49.53 140.858 50.146 140.27 50.58C139.682 51.028 138.968 51.238 138.156 51.238C137.064 51.238 136.196 50.888 135.552 50.188C134.908 49.488 134.6 48.578 134.6 47.472C134.6 46.352 134.922 45.414 135.58 44.672C136.238 43.944 137.078 43.566 138.1 43.566C139.15 43.566 139.99 43.93 140.606 44.658C141.222 45.386 141.53 46.366 141.53 47.612V47.78H136.196C136.21 48.508 136.392 49.082 136.742 49.474C137.078 49.866 137.568 50.062 138.184 50.062C138.618 50.062 138.968 49.964 139.248 49.754C139.528 49.544 139.738 49.208 139.906 48.746H141.432ZM139.934 46.716C139.878 46.114 139.696 45.638 139.36 45.288C139.024 44.938 138.604 44.756 138.086 44.756C137.554 44.756 137.134 44.924 136.812 45.26C136.49 45.596 136.294 46.086 136.224 46.716H139.934ZM142.673 46.002C142.841 44.378 143.891 43.552 145.837 43.552C146.733 43.552 147.461 43.734 147.993 44.084C148.525 44.448 148.805 44.994 148.805 45.736V49.404C148.805 49.614 148.819 49.754 148.875 49.824C148.931 49.908 149.029 49.936 149.183 49.936C149.295 49.936 149.407 49.936 149.547 49.908V51.028C149.127 51.14 148.791 51.182 148.511 51.182C147.825 51.182 147.433 50.902 147.335 50.314C146.719 50.902 145.879 51.182 144.801 51.182C144.045 51.182 143.457 51 143.023 50.608C142.575 50.216 142.365 49.698 142.365 49.026C142.365 48.83 142.379 48.634 142.435 48.452C142.477 48.284 142.533 48.13 142.589 47.99C142.645 47.864 142.743 47.738 142.883 47.626C143.023 47.514 143.135 47.43 143.219 47.346C143.303 47.276 143.457 47.206 143.653 47.136C143.849 47.08 144.003 47.024 144.101 46.996C144.199 46.968 144.367 46.926 144.619 46.884C144.857 46.856 145.011 46.828 145.095 46.814C145.179 46.8 145.347 46.772 145.599 46.744C146.159 46.674 146.551 46.618 146.761 46.562C146.957 46.506 147.097 46.436 147.181 46.324C147.237 46.254 147.279 46.086 147.279 45.806C147.279 45.078 146.775 44.714 145.795 44.714C145.263 44.714 144.885 44.812 144.647 45.008C144.395 45.204 144.241 45.54 144.185 46.002H142.673ZM147.265 47.374C147.139 47.444 146.999 47.5 146.845 47.556C146.677 47.612 146.551 47.64 146.453 47.654C146.355 47.668 146.201 47.682 145.991 47.71C145.781 47.738 145.641 47.766 145.585 47.766C145.389 47.794 145.235 47.822 145.123 47.85C145.011 47.878 144.871 47.906 144.703 47.962C144.535 48.018 144.409 48.088 144.325 48.172C144.241 48.256 144.157 48.354 144.101 48.494C144.031 48.634 144.003 48.788 144.003 48.97C144.003 49.32 144.115 49.586 144.339 49.768C144.563 49.964 144.885 50.048 145.305 50.048C146.005 50.048 146.551 49.866 146.943 49.474C147.153 49.264 147.265 48.844 147.265 48.228V47.374ZM152.049 43.776V44.798C152.637 43.986 153.393 43.58 154.317 43.58C154.793 43.58 155.199 43.692 155.549 43.902C155.899 44.126 156.165 44.42 156.333 44.812C156.907 44 157.691 43.58 158.671 43.58C159.343 43.58 159.917 43.79 160.365 44.196C160.813 44.602 161.037 45.162 161.037 45.876V51H159.441V46.562C159.441 46.058 159.343 45.652 159.175 45.358C158.993 45.078 158.657 44.924 158.153 44.924C157.635 44.924 157.243 45.092 156.977 45.414C156.697 45.736 156.571 46.184 156.571 46.758V51H154.975V46.478C154.975 45.974 154.891 45.582 154.737 45.316C154.583 45.064 154.261 44.924 153.785 44.924C153.239 44.924 152.833 45.106 152.553 45.456C152.273 45.806 152.133 46.268 152.133 46.842V51H150.537V43.776H152.049Z" fill="black"/>
<path d="M94.11 108.374C94.068 108.902 93.882 109.322 93.546 109.634C93.21 109.946 92.778 110.102 92.25 110.102C91.644 110.102 91.158 109.898 90.798 109.49C90.432 109.082 90.252 108.542 90.252 107.864C90.252 107.456 90.33 107.09 90.486 106.754C90.642 106.418 90.876 106.148 91.188 105.944C91.5 105.74 91.866 105.632 92.286 105.632C92.736 105.632 93.132 105.758 93.468 106.01C93.804 106.262 94.002 106.622 94.074 107.09H93.33C93.276 106.838 93.156 106.634 92.97 106.49C92.778 106.346 92.55 106.268 92.274 106.268C91.986 106.268 91.746 106.352 91.548 106.508C91.35 106.67 91.212 106.868 91.128 107.102C91.044 107.336 91.008 107.588 91.008 107.864C91.008 108.074 91.032 108.272 91.08 108.452C91.128 108.638 91.2 108.806 91.296 108.962C91.392 109.118 91.518 109.238 91.686 109.328C91.854 109.424 92.046 109.466 92.268 109.466C92.904 109.466 93.264 109.106 93.36 108.374H94.11ZM97.7021 109.352V110H94.7741V105.728H95.5301V109.352H97.7021Z" fill="#B02E0C"/>
<path d="M30.5 112H146.5" stroke="#B02E0C" stroke-width="0.8" stroke-linecap="square"/>
<path d="M37.522 96.988H36.808C36.76 96.49 36.454 96.238 35.878 96.238C35.62 96.238 35.422 96.292 35.278 96.4C35.134 96.508 35.062 96.652 35.062 96.832C35.062 97.006 35.11 97.126 35.218 97.186C35.326 97.252 35.56 97.33 35.926 97.42C36.022 97.45 36.094 97.468 36.148 97.48C36.622 97.6 36.946 97.708 37.12 97.804C37.498 98.008 37.69 98.326 37.69 98.758C37.69 98.95 37.654 99.118 37.594 99.268C37.528 99.424 37.444 99.55 37.336 99.652C37.228 99.754 37.096 99.838 36.952 99.904C36.802 99.976 36.646 100.024 36.49 100.054C36.328 100.084 36.16 100.096 35.992 100.096C35.452 100.096 35.02 99.97 34.69 99.712C34.354 99.46 34.192 99.082 34.192 98.584H34.93C34.93 98.896 35.032 99.13 35.236 99.28C35.44 99.43 35.704 99.502 36.034 99.502C36.322 99.502 36.544 99.448 36.706 99.328C36.868 99.208 36.952 99.046 36.952 98.83C36.952 98.698 36.904 98.584 36.82 98.5C36.736 98.416 36.64 98.35 36.544 98.314C36.442 98.278 36.268 98.23 36.022 98.164C35.992 98.158 35.968 98.152 35.956 98.146C35.422 98.014 35.074 97.9 34.906 97.81C34.558 97.63 34.372 97.354 34.348 96.976V96.892C34.348 96.514 34.486 96.214 34.774 95.986C35.062 95.758 35.446 95.644 35.926 95.644C36.388 95.644 36.766 95.758 37.06 95.974C37.348 96.196 37.504 96.532 37.522 96.988Z" fill="black"/>
</svg>
