<svg width="176" height="136" viewBox="0 0 176 136" fill="none" xmlns="http://www.w3.org/2000/svg">
<path d="M0 16C0 7.16344 7.16344 0 16 0H160C168.837 0 176 7.16344 176 16V120C176 128.837 168.837 136 160 136H16C7.16344 136 0 128.837 0 120V16Z" fill="white"/>
<path d="M16 0.5H160C168.56 0.5 175.5 7.43959 175.5 16V120C175.5 128.56 168.56 135.5 160 135.5H16C7.43959 135.5 0.5 128.56 0.5 120V16C0.5 7.43959 7.43959 0.5 16 0.5Z" stroke="#B02E0C" stroke-opacity="0.16"/>
<path d="M90.496 127.136V128H86.592V122.304H87.6V127.136H90.496Z" fill="black"/>
<rect x="15.5" y="78.5" width="146" height="41" stroke="black"/>
<path d="M30 84V114" stroke="black" stroke-linecap="square"/>
<path d="M41.6992 84V114" stroke="black" stroke-linecap="square"/>
<path d="M53.4004 84V114" stroke="black" stroke-linecap="square"/>
<path d="M65.0996 84V114" stroke="black" stroke-linecap="square"/>
<path d="M76.8008 84V114" stroke="black" stroke-linecap="square"/>
<path d="M88.5 84V114" stroke="black" stroke-linecap="square"/>
<path d="M100.199 84V114" stroke="black" stroke-linecap="square"/>
<path d="M111.9 84V114" stroke="black" stroke-linecap="square"/>
<path d="M123.6 84V114" stroke="black" stroke-linecap="square"/>
<path d="M135.301 84V114" stroke="black" stroke-linecap="square"/>
<path d="M147 84V114" stroke="black" stroke-linecap="square"/>
<path d="M21 96V88C21 85.7909 22.7909 84 25 84H152C154.209 84 156 85.7909 156 88V96" stroke="#F7941D" stroke-linecap="square"/>
<path d="M21 102V110C21 112.209 22.7909 114 25 114H152C154.209 114 156 112.209 156 110V102" stroke="#F7941D" stroke-linecap="square"/>
<path d="M30.5 98.5L32.5 99.6547V97.3453L30.5 98.5ZM41 98.5L39 97.3453V99.6547L41 98.5ZM32.3 98.5V98.7H39.2V98.5V98.3H32.3V98.5Z" fill="black"/>
<rect x="15.3193" y="8.31927" width="52.3615" height="52.3615" stroke="black" stroke-width="0.638542"/>
<rect x="18.831" y="11.831" width="45.3374" height="45.3374" rx="4.78907" stroke="#F7941D" stroke-width="0.638542"/>
<circle cx="24.898" cy="17.897" r="2.55422" fill="#F7941D"/>
<circle cx="24.898" cy="51.1021" r="2.55422" fill="#F7941D"/>
<circle cx="58.1011" cy="17.897" r="2.55422" fill="#F7941D"/>
<circle cx="58.1011" cy="51.1021" r="2.55422" fill="#F7941D"/>
<path d="M22.3436 22.6865C15.958 12.6293 21.5427 8.79801 29.6859 16.301" stroke="#B02E0C" stroke-width="0.519288" stroke-linecap="round"/>
<path d="M19 34L21 35.1547V32.8453L19 34ZM20.8 34V34.2H29.5V34V33.8H20.8V34Z" fill="black"/>
<path d="M38.952 69L40.984 66.048L39.096 63.304H40.288L41.584 65.32L42.936 63.304H44.056L42.168 66.048L44.192 69H42.976L41.552 66.824L40.104 69H38.952Z" fill="black"/>
<path d="M76.24 31.304L74.096 34.736V37H73.112V34.736L70.96 31.304H72.112L73.624 33.824L75.12 31.304H76.24Z" fill="black"/>
<path d="M31.444 31.728H33.466C33.886 31.728 34.234 31.824 34.504 32.016C34.768 32.208 34.906 32.508 34.906 32.916C34.906 33.174 34.84 33.396 34.72 33.576C34.594 33.756 34.42 33.888 34.198 33.966C34.3 33.99 34.39 34.026 34.468 34.074C34.54 34.122 34.6 34.176 34.642 34.23C34.684 34.29 34.72 34.362 34.75 34.446C34.774 34.536 34.792 34.614 34.804 34.68C34.816 34.746 34.822 34.83 34.834 34.938C34.834 34.968 34.84 35.022 34.846 35.1C34.852 35.184 34.858 35.238 34.858 35.262C34.858 35.286 34.864 35.334 34.87 35.394C34.876 35.46 34.882 35.508 34.888 35.532C34.888 35.556 34.894 35.598 34.906 35.646C34.918 35.694 34.924 35.736 34.936 35.76C34.942 35.784 34.954 35.814 34.966 35.85C34.978 35.886 34.99 35.91 35.008 35.934C35.02 35.958 35.038 35.982 35.062 36H34.258C34.246 35.988 34.234 35.97 34.222 35.946C34.21 35.922 34.204 35.898 34.198 35.874C34.186 35.85 34.18 35.826 34.18 35.802C34.174 35.778 34.168 35.748 34.162 35.712C34.156 35.676 34.156 35.64 34.156 35.616L34.144 35.508L34.132 35.4C34.132 35.376 34.126 35.334 34.126 35.274C34.12 35.214 34.12 35.172 34.12 35.148C34.096 34.8 34.024 34.566 33.898 34.434C33.772 34.302 33.532 34.236 33.184 34.236H32.188V36H31.444V31.728ZM32.188 32.34V33.678H33.178C33.322 33.678 33.442 33.672 33.544 33.654C33.64 33.642 33.742 33.612 33.844 33.57C33.946 33.528 34.024 33.456 34.078 33.36C34.132 33.264 34.162 33.144 34.162 32.994C34.162 32.862 34.138 32.748 34.09 32.658C34.042 32.568 33.97 32.502 33.88 32.454C33.79 32.412 33.7 32.382 33.604 32.364C33.508 32.352 33.4 32.34 33.274 32.34H32.188Z" fill="black"/>
<path d="M54.45 21.728H56.076C56.37 21.728 56.628 21.764 56.856 21.824C57.078 21.884 57.282 21.998 57.474 22.166C57.894 22.544 58.104 23.084 58.104 23.792C58.104 24.548 57.9 25.13 57.504 25.526C57.324 25.706 57.132 25.826 56.928 25.898C56.724 25.97 56.454 26 56.118 26H54.45V21.728ZM55.194 22.364V25.37H56.076C56.544 25.37 56.874 25.238 57.066 24.962C57.258 24.692 57.354 24.314 57.354 23.828C57.354 23.372 57.246 23.012 57.03 22.754C56.814 22.496 56.478 22.364 56.028 22.364H55.194ZM60.5921 21.776V26H59.8601V23.096H58.8161V22.592C59.5421 22.592 59.9501 22.322 60.0401 21.776H60.5921Z" fill="black"/>
<path d="M54.45 42.728H56.076C56.37 42.728 56.628 42.764 56.856 42.824C57.078 42.884 57.282 42.998 57.474 43.166C57.894 43.544 58.104 44.084 58.104 44.792C58.104 45.548 57.9 46.13 57.504 46.526C57.324 46.706 57.132 46.826 56.928 46.898C56.724 46.97 56.454 47 56.118 47H54.45V42.728ZM55.194 43.364V46.37H56.076C56.544 46.37 56.874 46.238 57.066 45.962C57.258 45.692 57.354 45.314 57.354 44.828C57.354 44.372 57.246 44.012 57.03 43.754C56.814 43.496 56.478 43.364 56.028 43.364H55.194ZM61.3361 46.394V47H58.4681C58.4681 46.814 58.4981 46.64 58.5461 46.484C58.5941 46.328 58.6481 46.196 58.7081 46.088C58.7681 45.98 58.8641 45.866 58.9841 45.752C59.1041 45.638 59.2181 45.542 59.3141 45.47C59.4101 45.398 59.5481 45.302 59.7221 45.182C59.7341 45.176 59.7881 45.14 59.8961 45.068C60.0041 44.996 60.0701 44.954 60.0941 44.936C60.1181 44.918 60.1721 44.876 60.2561 44.81C60.3401 44.744 60.3941 44.69 60.4181 44.648C60.4421 44.612 60.4781 44.558 60.5261 44.486C60.5741 44.42 60.6041 44.354 60.6221 44.282C60.6341 44.21 60.6461 44.138 60.6461 44.054C60.6461 43.838 60.5801 43.664 60.4601 43.538C60.3401 43.412 60.1721 43.346 59.9681 43.346C59.8481 43.346 59.7401 43.37 59.6561 43.406C59.5661 43.442 59.4941 43.49 59.4461 43.55C59.3981 43.61 59.3561 43.688 59.3261 43.784C59.2901 43.88 59.2721 43.964 59.2601 44.048C59.2481 44.132 59.2421 44.234 59.2421 44.342H58.5761V44.234C58.5761 43.784 58.7021 43.424 58.9541 43.16C59.2061 42.896 59.5541 42.758 59.9861 42.758C60.3941 42.758 60.7181 42.878 60.9701 43.106C61.2161 43.334 61.3421 43.64 61.3421 44.018C61.3421 44.174 61.3181 44.318 61.2701 44.45C61.2221 44.588 61.1681 44.696 61.1141 44.78C61.0601 44.864 60.9701 44.966 60.8381 45.074C60.7061 45.188 60.6041 45.266 60.5441 45.308C60.4781 45.356 60.3581 45.434 60.1901 45.548C59.6861 45.872 59.3861 46.154 59.2901 46.394H61.3361Z" fill="black"/>
<path d="M114.743 33.332V34.676H113.497V37H111.957L111.943 34.676H107.785V33.094L111.985 27.116H113.497V33.332H114.743ZM111.971 33.332V29.09L109.101 33.332H111.971ZM120.146 27.032H124.696C125.732 27.032 126.53 27.27 127.09 27.718C127.65 28.166 127.93 28.782 127.93 29.538C127.93 30.014 127.79 30.448 127.538 30.826C127.272 31.204 126.922 31.47 126.502 31.638C127.076 31.778 127.538 32.058 127.874 32.478C128.21 32.898 128.378 33.43 128.378 34.06C128.378 34.942 128.084 35.656 127.496 36.188C126.908 36.734 126.152 37 125.228 37H120.146V27.032ZM121.854 28.446V31.19H124.234C124.906 31.19 125.396 31.092 125.718 30.882C126.026 30.672 126.194 30.322 126.194 29.818C126.194 29.258 126.026 28.894 125.69 28.712C125.354 28.544 124.892 28.446 124.29 28.446H121.854ZM121.854 32.45V35.572H124.472C125.144 35.572 125.662 35.46 126.054 35.236C126.432 35.012 126.628 34.606 126.628 34.018C126.628 33.696 126.558 33.43 126.446 33.206C126.334 32.982 126.166 32.828 125.942 32.716C125.718 32.618 125.494 32.548 125.27 32.506C125.032 32.478 124.752 32.45 124.444 32.45H121.854ZM129.738 32.002C129.906 30.378 130.956 29.552 132.902 29.552C133.798 29.552 134.526 29.734 135.058 30.084C135.59 30.448 135.87 30.994 135.87 31.736V35.404C135.87 35.614 135.884 35.754 135.94 35.824C135.996 35.908 136.094 35.936 136.248 35.936C136.36 35.936 136.472 35.936 136.612 35.908V37.028C136.192 37.14 135.856 37.182 135.576 37.182C134.89 37.182 134.498 36.902 134.4 36.314C133.784 36.902 132.944 37.182 131.866 37.182C131.11 37.182 130.522 37 130.088 36.608C129.64 36.216 129.43 35.698 129.43 35.026C129.43 34.83 129.444 34.634 129.5 34.452C129.542 34.284 129.598 34.13 129.654 33.99C129.71 33.864 129.808 33.738 129.948 33.626C130.088 33.514 130.2 33.43 130.284 33.346C130.368 33.276 130.522 33.206 130.718 33.136C130.914 33.08 131.068 33.024 131.166 32.996C131.264 32.968 131.432 32.926 131.684 32.884C131.922 32.856 132.076 32.828 132.16 32.814C132.244 32.8 132.412 32.772 132.664 32.744C133.224 32.674 133.616 32.618 133.826 32.562C134.022 32.506 134.162 32.436 134.246 32.324C134.302 32.254 134.344 32.086 134.344 31.806C134.344 31.078 133.84 30.714 132.86 30.714C132.328 30.714 131.95 30.812 131.712 31.008C131.46 31.204 131.306 31.54 131.25 32.002H129.738ZM134.33 33.374C134.204 33.444 134.064 33.5 133.91 33.556C133.742 33.612 133.616 33.64 133.518 33.654C133.42 33.668 133.266 33.682 133.056 33.71C132.846 33.738 132.706 33.766 132.65 33.766C132.454 33.794 132.3 33.822 132.188 33.85C132.076 33.878 131.936 33.906 131.768 33.962C131.6 34.018 131.474 34.088 131.39 34.172C131.306 34.256 131.222 34.354 131.166 34.494C131.096 34.634 131.068 34.788 131.068 34.97C131.068 35.32 131.18 35.586 131.404 35.768C131.628 35.964 131.95 36.048 132.37 36.048C133.07 36.048 133.616 35.866 134.008 35.474C134.218 35.264 134.33 34.844 134.33 34.228V33.374ZM141.675 29.636V31.162C141.395 31.134 141.199 31.12 141.115 31.12C139.715 31.12 139.029 32.03 139.029 33.822V37H137.447V29.776H138.945V31.218C139.449 30.154 140.261 29.608 141.367 29.608L141.675 29.636ZM108.737 41.032H113.287C114.323 41.032 115.121 41.27 115.681 41.718C116.241 42.166 116.521 42.782 116.521 43.538C116.521 44.014 116.381 44.448 116.129 44.826C115.863 45.204 115.513 45.47 115.093 45.638C115.667 45.778 116.129 46.058 116.465 46.478C116.801 46.898 116.969 47.43 116.969 48.06C116.969 48.942 116.675 49.656 116.087 50.188C115.499 50.734 114.743 51 113.819 51H108.737V41.032ZM110.445 42.446V45.19H112.825C113.497 45.19 113.987 45.092 114.309 44.882C114.617 44.672 114.785 44.322 114.785 43.818C114.785 43.258 114.617 42.894 114.281 42.712C113.945 42.544 113.483 42.446 112.881 42.446H110.445ZM110.445 46.45V49.572H113.063C113.735 49.572 114.253 49.46 114.645 49.236C115.023 49.012 115.219 48.606 115.219 48.018C115.219 47.696 115.149 47.43 115.037 47.206C114.925 46.982 114.757 46.828 114.533 46.716C114.309 46.618 114.085 46.548 113.861 46.506C113.623 46.478 113.343 46.45 113.035 46.45H110.445ZM124.867 48.746C124.685 49.53 124.293 50.146 123.705 50.58C123.117 51.028 122.403 51.238 121.591 51.238C120.499 51.238 119.631 50.888 118.987 50.188C118.343 49.488 118.035 48.578 118.035 47.472C118.035 46.352 118.357 45.414 119.015 44.672C119.673 43.944 120.513 43.566 121.535 43.566C122.585 43.566 123.425 43.93 124.041 44.658C124.657 45.386 124.965 46.366 124.965 47.612V47.78H119.631C119.645 48.508 119.827 49.082 120.177 49.474C120.513 49.866 121.003 50.062 121.619 50.062C122.053 50.062 122.403 49.964 122.683 49.754C122.963 49.544 123.173 49.208 123.341 48.746H124.867ZM123.369 46.716C123.313 46.114 123.131 45.638 122.795 45.288C122.459 44.938 122.039 44.756 121.521 44.756C120.989 44.756 120.569 44.924 120.247 45.26C119.925 45.596 119.729 46.086 119.659 46.716H123.369ZM126.108 46.002C126.276 44.378 127.326 43.552 129.272 43.552C130.168 43.552 130.896 43.734 131.428 44.084C131.96 44.448 132.24 44.994 132.24 45.736V49.404C132.24 49.614 132.254 49.754 132.31 49.824C132.366 49.908 132.464 49.936 132.618 49.936C132.73 49.936 132.842 49.936 132.982 49.908V51.028C132.562 51.14 132.226 51.182 131.946 51.182C131.26 51.182 130.868 50.902 130.77 50.314C130.154 50.902 129.314 51.182 128.236 51.182C127.48 51.182 126.892 51 126.458 50.608C126.01 50.216 125.8 49.698 125.8 49.026C125.8 48.83 125.814 48.634 125.87 48.452C125.912 48.284 125.968 48.13 126.024 47.99C126.08 47.864 126.178 47.738 126.318 47.626C126.458 47.514 126.57 47.43 126.654 47.346C126.738 47.276 126.892 47.206 127.088 47.136C127.284 47.08 127.438 47.024 127.536 46.996C127.634 46.968 127.802 46.926 128.054 46.884C128.292 46.856 128.446 46.828 128.53 46.814C128.614 46.8 128.782 46.772 129.034 46.744C129.594 46.674 129.986 46.618 130.196 46.562C130.392 46.506 130.532 46.436 130.616 46.324C130.672 46.254 130.714 46.086 130.714 45.806C130.714 45.078 130.21 44.714 129.23 44.714C128.698 44.714 128.32 44.812 128.082 45.008C127.83 45.204 127.676 45.54 127.62 46.002H126.108ZM130.7 47.374C130.574 47.444 130.434 47.5 130.28 47.556C130.112 47.612 129.986 47.64 129.888 47.654C129.79 47.668 129.636 47.682 129.426 47.71C129.216 47.738 129.076 47.766 129.02 47.766C128.824 47.794 128.67 47.822 128.558 47.85C128.446 47.878 128.306 47.906 128.138 47.962C127.97 48.018 127.844 48.088 127.76 48.172C127.676 48.256 127.592 48.354 127.536 48.494C127.466 48.634 127.438 48.788 127.438 48.97C127.438 49.32 127.55 49.586 127.774 49.768C127.998 49.964 128.32 50.048 128.74 50.048C129.44 50.048 129.986 49.866 130.378 49.474C130.588 49.264 130.7 48.844 130.7 48.228V47.374ZM135.483 43.776V44.798C136.071 43.986 136.827 43.58 137.751 43.58C138.227 43.58 138.633 43.692 138.983 43.902C139.333 44.126 139.599 44.42 139.767 44.812C140.341 44 141.125 43.58 142.105 43.58C142.777 43.58 143.351 43.79 143.799 44.196C144.247 44.602 144.471 45.162 144.471 45.876V51H142.875V46.562C142.875 46.058 142.777 45.652 142.609 45.358C142.427 45.078 142.091 44.924 141.587 44.924C141.069 44.924 140.677 45.092 140.411 45.414C140.131 45.736 140.005 46.184 140.005 46.758V51H138.409V46.478C138.409 45.974 138.325 45.582 138.171 45.316C138.017 45.064 137.695 44.924 137.219 44.924C136.673 44.924 136.267 45.106 135.987 45.456C135.707 45.806 135.567 46.268 135.567 46.842V51H133.971V43.776H135.483Z" fill="black"/>
<path d="M37.522 92.988H36.808C36.76 92.49 36.454 92.238 35.878 92.238C35.62 92.238 35.422 92.292 35.278 92.4C35.134 92.508 35.062 92.652 35.062 92.832C35.062 93.006 35.11 93.126 35.218 93.186C35.326 93.252 35.56 93.33 35.926 93.42C36.022 93.45 36.094 93.468 36.148 93.48C36.622 93.6 36.946 93.708 37.12 93.804C37.498 94.008 37.69 94.326 37.69 94.758C37.69 94.95 37.654 95.118 37.594 95.268C37.528 95.424 37.444 95.55 37.336 95.652C37.228 95.754 37.096 95.838 36.952 95.904C36.802 95.976 36.646 96.024 36.49 96.054C36.328 96.084 36.16 96.096 35.992 96.096C35.452 96.096 35.02 95.97 34.69 95.712C34.354 95.46 34.192 95.082 34.192 94.584H34.93C34.93 94.896 35.032 95.13 35.236 95.28C35.44 95.43 35.704 95.502 36.034 95.502C36.322 95.502 36.544 95.448 36.706 95.328C36.868 95.208 36.952 95.046 36.952 94.83C36.952 94.698 36.904 94.584 36.82 94.5C36.736 94.416 36.64 94.35 36.544 94.314C36.442 94.278 36.268 94.23 36.022 94.164C35.992 94.158 35.968 94.152 35.956 94.146C35.422 94.014 35.074 93.9 34.906 93.81C34.558 93.63 34.372 93.354 34.348 92.976V92.892C34.348 92.514 34.486 92.214 34.774 91.986C35.062 91.758 35.446 91.644 35.926 91.644C36.388 91.644 36.766 91.758 37.06 91.974C37.348 92.196 37.504 92.532 37.522 92.988Z" fill="black"/>
</svg>
