<svg width="176" height="136" viewBox="0 0 176 136" fill="none" xmlns="http://www.w3.org/2000/svg">
<path d="M0 16C0 7.16344 7.16344 0 16 0H160C168.837 0 176 7.16344 176 16V120C176 128.837 168.837 136 160 136H16C7.16344 136 0 128.837 0 120V16Z" fill="white"/>
<path d="M16 0.5H160C168.56 0.5 175.5 7.43959 175.5 16V120C175.5 128.56 168.56 135.5 160 135.5H16C7.43959 135.5 0.5 128.56 0.5 120V16C0.5 7.43959 7.43959 0.5 16 0.5Z" stroke="#B02E0C" stroke-opacity="0.16"/>
<rect x="15.5" y="82.5" width="146" height="41" stroke="black"/>
<path d="M30 88V118" stroke="black" stroke-linecap="square"/>
<path d="M41.6992 88V118" stroke="black" stroke-linecap="square"/>
<path d="M53.3984 88V118" stroke="black" stroke-linecap="square"/>
<path d="M65.1016 88V118" stroke="black" stroke-linecap="square"/>
<path d="M76.8008 88V118" stroke="black" stroke-linecap="square"/>
<path d="M88.5 88V118" stroke="black" stroke-linecap="square"/>
<path d="M100.199 88V118" stroke="black" stroke-linecap="square"/>
<path d="M111.898 88V118" stroke="black" stroke-linecap="square"/>
<path d="M123.602 88V118" stroke="black" stroke-linecap="square"/>
<path d="M135.301 88V118" stroke="black" stroke-linecap="square"/>
<path d="M147 88V118" stroke="black" stroke-linecap="square"/>
<path d="M21 100V92C21 89.7909 22.7909 88 25 88H152C154.209 88 156 89.7909 156 92V100" stroke="#F7941D" stroke-linecap="square"/>
<path d="M21 106V114C21 116.209 22.7909 118 25 118H152C154.209 118 156 116.209 156 114V106" stroke="#F7941D" stroke-linecap="square"/>
<path d="M30.5 102.5L32.5 103.655V101.345L30.5 102.5ZM41 102.5L39 101.345V103.655L41 102.5ZM32.3 102.5V102.7H39.2V102.5V102.3H32.3V102.5Z" fill="black"/>
<path d="M90.496 131.136V132H86.592V126.304H87.6V131.136H90.496Z" fill="black"/>
<rect x="15.3193" y="12.3193" width="52.3615" height="52.3615" stroke="black" stroke-width="0.638542"/>
<rect x="18.831" y="15.831" width="45.3374" height="45.3374" rx="4.78907" stroke="#F7941D" stroke-width="0.638542"/>
<circle cx="24.898" cy="21.897" r="2.55422" fill="#F7941D"/>
<circle cx="24.898" cy="55.1021" r="2.55422" fill="#F7941D"/>
<circle cx="58" cy="47" r="2" fill="#B02E0C"/>
<circle cx="25" cy="47" r="2" fill="#B02E0C"/>
<circle cx="58.1011" cy="21.897" r="2.55422" fill="#F7941D"/>
<circle cx="58.1011" cy="55.1021" r="2.55422" fill="#F7941D"/>
<path d="M22.3436 26.6865C15.958 16.6293 21.5427 12.798 29.6859 20.301" stroke="#B02E0C" stroke-width="0.519288" stroke-linecap="round"/>
<path d="M38.952 73L40.984 70.048L39.096 67.304H40.288L41.584 69.32L42.936 67.304H44.056L42.168 70.048L44.192 73H42.976L41.552 70.824L40.104 73H38.952Z" fill="black"/>
<path d="M76.24 35.304L74.096 38.736V41H73.112V38.736L70.96 35.304H72.112L73.624 37.824L75.12 35.304H76.24Z" fill="black"/>
<path d="M19 34L21 35.1547V32.8453L19 34ZM20.8 34V34.2H29.5V34V33.8H20.8V34Z" fill="black"/>
<path d="M31.444 31.728H33.466C33.886 31.728 34.234 31.824 34.504 32.016C34.768 32.208 34.906 32.508 34.906 32.916C34.906 33.174 34.84 33.396 34.72 33.576C34.594 33.756 34.42 33.888 34.198 33.966C34.3 33.99 34.39 34.026 34.468 34.074C34.54 34.122 34.6 34.176 34.642 34.23C34.684 34.29 34.72 34.362 34.75 34.446C34.774 34.536 34.792 34.614 34.804 34.68C34.816 34.746 34.822 34.83 34.834 34.938C34.834 34.968 34.84 35.022 34.846 35.1C34.852 35.184 34.858 35.238 34.858 35.262C34.858 35.286 34.864 35.334 34.87 35.394C34.876 35.46 34.882 35.508 34.888 35.532C34.888 35.556 34.894 35.598 34.906 35.646C34.918 35.694 34.924 35.736 34.936 35.76C34.942 35.784 34.954 35.814 34.966 35.85C34.978 35.886 34.99 35.91 35.008 35.934C35.02 35.958 35.038 35.982 35.062 36H34.258C34.246 35.988 34.234 35.97 34.222 35.946C34.21 35.922 34.204 35.898 34.198 35.874C34.186 35.85 34.18 35.826 34.18 35.802C34.174 35.778 34.168 35.748 34.162 35.712C34.156 35.676 34.156 35.64 34.156 35.616L34.144 35.508L34.132 35.4C34.132 35.376 34.126 35.334 34.126 35.274C34.12 35.214 34.12 35.172 34.12 35.148C34.096 34.8 34.024 34.566 33.898 34.434C33.772 34.302 33.532 34.236 33.184 34.236H32.188V36H31.444V31.728ZM32.188 32.34V33.678H33.178C33.322 33.678 33.442 33.672 33.544 33.654C33.64 33.642 33.742 33.612 33.844 33.57C33.946 33.528 34.024 33.456 34.078 33.36C34.132 33.264 34.162 33.144 34.162 32.994C34.162 32.862 34.138 32.748 34.09 32.658C34.042 32.568 33.97 32.502 33.88 32.454C33.79 32.412 33.7 32.382 33.604 32.364C33.508 32.352 33.4 32.34 33.274 32.34H32.188Z" fill="black"/>
<path d="M54.45 25.728H56.076C56.37 25.728 56.628 25.764 56.856 25.824C57.078 25.884 57.282 25.998 57.474 26.166C57.894 26.544 58.104 27.084 58.104 27.792C58.104 28.548 57.9 29.13 57.504 29.526C57.324 29.706 57.132 29.826 56.928 29.898C56.724 29.97 56.454 30 56.118 30H54.45V25.728ZM55.194 26.364V29.37H56.076C56.544 29.37 56.874 29.238 57.066 28.962C57.258 28.692 57.354 28.314 57.354 27.828C57.354 27.372 57.246 27.012 57.03 26.754C56.814 26.496 56.478 26.364 56.028 26.364H55.194ZM60.5921 25.776V30H59.8601V27.096H58.8161V26.592C59.5421 26.592 59.9501 26.322 60.0401 25.776H60.5921Z" fill="black"/>
<path d="M46.45 52.728H48.076C48.37 52.728 48.628 52.764 48.856 52.824C49.078 52.884 49.282 52.998 49.474 53.166C49.894 53.544 50.104 54.084 50.104 54.792C50.104 55.548 49.9 56.13 49.504 56.526C49.324 56.706 49.132 56.826 48.928 56.898C48.724 56.97 48.454 57 48.118 57H46.45V52.728ZM47.194 53.364V56.37H48.076C48.544 56.37 48.874 56.238 49.066 55.962C49.258 55.692 49.354 55.314 49.354 54.828C49.354 54.372 49.246 54.012 49.03 53.754C48.814 53.496 48.478 53.364 48.028 53.364H47.194ZM53.3361 56.394V57H50.4681C50.4681 56.814 50.4981 56.64 50.5461 56.484C50.5941 56.328 50.6481 56.196 50.7081 56.088C50.7681 55.98 50.8641 55.866 50.9841 55.752C51.1041 55.638 51.2181 55.542 51.3141 55.47C51.4101 55.398 51.5481 55.302 51.7221 55.182C51.7341 55.176 51.7881 55.14 51.8961 55.068C52.0041 54.996 52.0701 54.954 52.0941 54.936C52.1181 54.918 52.1721 54.876 52.2561 54.81C52.3401 54.744 52.3941 54.69 52.4181 54.648C52.4421 54.612 52.4781 54.558 52.5261 54.486C52.5741 54.42 52.6041 54.354 52.6221 54.282C52.6341 54.21 52.6461 54.138 52.6461 54.054C52.6461 53.838 52.5801 53.664 52.4601 53.538C52.3401 53.412 52.1721 53.346 51.9681 53.346C51.8481 53.346 51.7401 53.37 51.6561 53.406C51.5661 53.442 51.4941 53.49 51.4461 53.55C51.3981 53.61 51.3561 53.688 51.3261 53.784C51.2901 53.88 51.2721 53.964 51.2601 54.048C51.2481 54.132 51.2421 54.234 51.2421 54.342H50.5761V54.234C50.5761 53.784 50.7021 53.424 50.9541 53.16C51.2061 52.896 51.5541 52.758 51.9861 52.758C52.3941 52.758 52.7181 52.878 52.9701 53.106C53.2161 53.334 53.3421 53.64 53.3421 54.018C53.3421 54.174 53.3181 54.318 53.2701 54.45C53.2221 54.588 53.1681 54.696 53.1141 54.78C53.0601 54.864 52.9701 54.966 52.8381 55.074C52.7061 55.188 52.6041 55.266 52.5441 55.308C52.4781 55.356 52.3581 55.434 52.1901 55.548C51.6861 55.872 51.3861 56.154 51.2901 56.394H53.3361Z" fill="black"/>
<path d="M54.45 38.728H56.076C56.37 38.728 56.628 38.764 56.856 38.824C57.078 38.884 57.282 38.998 57.474 39.166C57.894 39.544 58.104 40.084 58.104 40.792C58.104 41.548 57.9 42.13 57.504 42.526C57.324 42.706 57.132 42.826 56.928 42.898C56.724 42.97 56.454 43 56.118 43H54.45V38.728ZM55.194 39.364V42.37H56.076C56.544 42.37 56.874 42.238 57.066 41.962C57.258 41.692 57.354 41.314 57.354 40.828C57.354 40.372 57.246 40.012 57.03 39.754C56.814 39.496 56.478 39.364 56.028 39.364H55.194ZM58.5941 40.15C58.6061 39.718 58.7321 39.382 58.9781 39.13C59.2181 38.884 59.5481 38.758 59.9621 38.758C60.3461 38.758 60.6641 38.866 60.9041 39.07C61.1441 39.28 61.2641 39.55 61.2641 39.886C61.2641 40.09 61.2101 40.27 61.1021 40.426C60.9941 40.582 60.8561 40.684 60.6761 40.744C60.9101 40.804 61.0961 40.924 61.2341 41.098C61.3661 41.272 61.4381 41.482 61.4381 41.734C61.4381 42.136 61.3001 42.46 61.0241 42.712C60.7481 42.964 60.3881 43.09 59.9501 43.09C59.5121 43.09 59.1581 42.964 58.8941 42.712C58.6241 42.46 58.4921 42.13 58.4921 41.71V41.62H59.1521C59.1701 42.208 59.4401 42.502 59.9681 42.502C60.1961 42.502 60.3821 42.436 60.5201 42.304C60.6521 42.172 60.7241 41.986 60.7241 41.752C60.7241 41.512 60.6461 41.332 60.4901 41.218C60.3341 41.11 60.1301 41.05 59.8841 41.05C59.8061 41.05 59.7341 41.056 59.6681 41.056V40.54H59.7281C59.8481 40.54 59.9561 40.534 60.0461 40.522C60.1301 40.51 60.2201 40.48 60.3101 40.444C60.4001 40.408 60.4721 40.342 60.5201 40.258C60.5681 40.174 60.5921 40.066 60.5921 39.934C60.5921 39.754 60.5321 39.604 60.4181 39.49C60.2981 39.382 60.1421 39.322 59.9501 39.322C59.5001 39.322 59.2661 39.598 59.2481 40.15H58.5941Z" fill="#B02E0C"/>
<path d="M104.046 35.586V37H97.3542C97.3542 36.566 97.4242 36.16 97.5362 35.796C97.6482 35.432 97.7742 35.124 97.9142 34.872C98.0542 34.62 98.2782 34.354 98.5582 34.088C98.8382 33.822 99.1042 33.598 99.3282 33.43C99.5522 33.262 99.8742 33.038 100.28 32.758C100.308 32.744 100.434 32.66 100.686 32.492C100.938 32.324 101.092 32.226 101.148 32.184C101.204 32.142 101.33 32.044 101.526 31.89C101.722 31.736 101.848 31.61 101.904 31.512C101.96 31.428 102.044 31.302 102.156 31.134C102.268 30.98 102.338 30.826 102.38 30.658C102.408 30.49 102.436 30.322 102.436 30.126C102.436 29.622 102.282 29.216 102.002 28.922C101.722 28.628 101.33 28.474 100.854 28.474C100.574 28.474 100.322 28.53 100.126 28.614C99.9162 28.698 99.7482 28.81 99.6362 28.95C99.5242 29.09 99.4262 29.272 99.3562 29.496C99.2722 29.72 99.2302 29.916 99.2022 30.112C99.1742 30.308 99.1602 30.546 99.1602 30.798H97.6062V30.546C97.6062 29.496 97.9002 28.656 98.4882 28.04C99.0762 27.424 99.8882 27.102 100.896 27.102C101.848 27.102 102.604 27.382 103.192 27.914C103.766 28.446 104.06 29.16 104.06 30.042C104.06 30.406 104.004 30.742 103.892 31.05C103.78 31.372 103.654 31.624 103.528 31.82C103.402 32.016 103.192 32.254 102.884 32.506C102.576 32.772 102.338 32.954 102.198 33.052C102.044 33.164 101.764 33.346 101.372 33.612C100.196 34.368 99.4962 35.026 99.2722 35.586H104.046ZM118.298 33.206C118.2 34.438 117.766 35.418 116.982 36.146C116.198 36.874 115.19 37.238 113.958 37.238C112.544 37.238 111.41 36.762 110.57 35.81C109.716 34.858 109.296 33.598 109.296 32.016C109.296 31.064 109.478 30.21 109.842 29.426C110.206 28.642 110.752 28.012 111.48 27.536C112.208 27.06 113.062 26.808 114.042 26.808C115.092 26.808 116.016 27.102 116.8 27.69C117.584 28.278 118.046 29.118 118.214 30.21H116.478C116.352 29.622 116.072 29.146 115.638 28.81C115.19 28.474 114.658 28.292 114.014 28.292C113.342 28.292 112.782 28.488 112.32 28.852C111.858 29.23 111.536 29.692 111.34 30.238C111.144 30.784 111.06 31.372 111.06 32.016C111.06 32.506 111.116 32.968 111.228 33.388C111.34 33.822 111.508 34.214 111.732 34.578C111.956 34.942 112.25 35.222 112.642 35.432C113.034 35.656 113.482 35.754 114 35.754C115.484 35.754 116.324 34.914 116.548 33.206H118.298ZM125.994 29.776V37H124.496V35.922C123.88 36.776 123.096 37.196 122.116 37.196C121.318 37.196 120.702 36.972 120.282 36.524C119.862 36.076 119.652 35.418 119.652 34.564V29.776H121.248V33.906C121.248 34.158 121.248 34.368 121.262 34.522C121.262 34.676 121.29 34.844 121.346 35.04C121.402 35.236 121.472 35.376 121.57 35.474C121.668 35.586 121.808 35.67 121.99 35.74C122.172 35.824 122.396 35.852 122.662 35.852C123.25 35.852 123.698 35.642 123.978 35.222C124.258 34.802 124.398 34.256 124.398 33.598V29.776H125.994ZM131.779 29.636V31.162C131.499 31.134 131.303 31.12 131.219 31.12C129.819 31.12 129.133 32.03 129.133 33.822V37H127.551V29.776H129.049V31.218C129.553 30.154 130.365 29.608 131.471 29.608L131.779 29.636ZM136.14 29.776V30.938H134.684V34.746C134.684 34.97 134.684 35.138 134.698 35.222C134.698 35.306 134.726 35.404 134.782 35.516C134.824 35.628 134.908 35.698 135.02 35.726C135.132 35.768 135.3 35.782 135.51 35.782C135.762 35.782 135.972 35.782 136.14 35.754V37.014C135.818 37.056 135.454 37.07 135.062 37.07C134.782 37.07 134.53 37.056 134.32 37.014C134.11 36.972 133.942 36.916 133.802 36.86C133.662 36.804 133.536 36.72 133.452 36.58C133.354 36.44 133.284 36.328 133.228 36.244C133.172 36.16 133.144 35.992 133.116 35.768C133.088 35.544 133.088 35.376 133.088 35.264V34.648V34.564V34.48V34.382V30.938H131.884V29.776H133.088V27.606H134.684V29.776H136.14ZM137.205 32.002C137.373 30.378 138.423 29.552 140.369 29.552C141.265 29.552 141.993 29.734 142.525 30.084C143.057 30.448 143.337 30.994 143.337 31.736V35.404C143.337 35.614 143.351 35.754 143.407 35.824C143.463 35.908 143.561 35.936 143.715 35.936C143.827 35.936 143.939 35.936 144.079 35.908V37.028C143.659 37.14 143.323 37.182 143.043 37.182C142.357 37.182 141.965 36.902 141.867 36.314C141.251 36.902 140.411 37.182 139.333 37.182C138.577 37.182 137.989 37 137.555 36.608C137.107 36.216 136.897 35.698 136.897 35.026C136.897 34.83 136.911 34.634 136.967 34.452C137.009 34.284 137.065 34.13 137.121 33.99C137.177 33.864 137.275 33.738 137.415 33.626C137.555 33.514 137.667 33.43 137.751 33.346C137.835 33.276 137.989 33.206 138.185 33.136C138.381 33.08 138.535 33.024 138.633 32.996C138.731 32.968 138.899 32.926 139.151 32.884C139.389 32.856 139.543 32.828 139.627 32.814C139.711 32.8 139.879 32.772 140.131 32.744C140.691 32.674 141.083 32.618 141.293 32.562C141.489 32.506 141.629 32.436 141.713 32.324C141.769 32.254 141.811 32.086 141.811 31.806C141.811 31.078 141.307 30.714 140.327 30.714C139.795 30.714 139.417 30.812 139.179 31.008C138.927 31.204 138.773 31.54 138.717 32.002H137.205ZM141.797 33.374C141.671 33.444 141.531 33.5 141.377 33.556C141.209 33.612 141.083 33.64 140.985 33.654C140.887 33.668 140.733 33.682 140.523 33.71C140.313 33.738 140.173 33.766 140.117 33.766C139.921 33.794 139.767 33.822 139.655 33.85C139.543 33.878 139.403 33.906 139.235 33.962C139.067 34.018 138.941 34.088 138.857 34.172C138.773 34.256 138.689 34.354 138.633 34.494C138.563 34.634 138.535 34.788 138.535 34.97C138.535 35.32 138.647 35.586 138.871 35.768C139.095 35.964 139.417 36.048 139.837 36.048C140.537 36.048 141.083 35.866 141.475 35.474C141.685 35.264 141.797 34.844 141.797 34.228V33.374ZM146.692 26.99V28.558H145.096V26.99H146.692ZM146.692 29.776V37H145.096V29.776H146.692ZM150.069 27.032V37H148.487V27.032H150.069ZM93.4437 47.332V48.676H92.1977V51H90.6577L90.6437 48.676H86.4857V47.094L90.6857 41.116H92.1977V47.332H93.4437ZM90.6717 47.332V43.09L87.8017 47.332H90.6717ZM98.8475 41.032H103.398C104.434 41.032 105.232 41.27 105.792 41.718C106.352 42.166 106.632 42.782 106.632 43.538C106.632 44.014 106.492 44.448 106.24 44.826C105.974 45.204 105.624 45.47 105.204 45.638C105.778 45.778 106.24 46.058 106.576 46.478C106.912 46.898 107.08 47.43 107.08 48.06C107.08 48.942 106.786 49.656 106.198 50.188C105.61 50.734 104.854 51 103.93 51H98.8475V41.032ZM100.556 42.446V45.19H102.936C103.608 45.19 104.098 45.092 104.42 44.882C104.728 44.672 104.896 44.322 104.896 43.818C104.896 43.258 104.728 42.894 104.392 42.712C104.056 42.544 103.594 42.446 102.992 42.446H100.556ZM100.556 46.45V49.572H103.174C103.846 49.572 104.364 49.46 104.756 49.236C105.134 49.012 105.33 48.606 105.33 48.018C105.33 47.696 105.26 47.43 105.148 47.206C105.036 46.982 104.868 46.828 104.644 46.716C104.42 46.618 104.196 46.548 103.972 46.506C103.734 46.478 103.454 46.45 103.146 46.45H100.556ZM108.439 46.002C108.607 44.378 109.657 43.552 111.603 43.552C112.499 43.552 113.227 43.734 113.759 44.084C114.291 44.448 114.571 44.994 114.571 45.736V49.404C114.571 49.614 114.585 49.754 114.641 49.824C114.697 49.908 114.795 49.936 114.949 49.936C115.061 49.936 115.173 49.936 115.313 49.908V51.028C114.893 51.14 114.557 51.182 114.277 51.182C113.591 51.182 113.199 50.902 113.101 50.314C112.485 50.902 111.645 51.182 110.567 51.182C109.811 51.182 109.223 51 108.789 50.608C108.341 50.216 108.131 49.698 108.131 49.026C108.131 48.83 108.145 48.634 108.201 48.452C108.243 48.284 108.299 48.13 108.355 47.99C108.411 47.864 108.509 47.738 108.649 47.626C108.789 47.514 108.901 47.43 108.985 47.346C109.069 47.276 109.223 47.206 109.419 47.136C109.615 47.08 109.769 47.024 109.867 46.996C109.965 46.968 110.133 46.926 110.385 46.884C110.623 46.856 110.777 46.828 110.861 46.814C110.945 46.8 111.113 46.772 111.365 46.744C111.925 46.674 112.317 46.618 112.527 46.562C112.723 46.506 112.863 46.436 112.947 46.324C113.003 46.254 113.045 46.086 113.045 45.806C113.045 45.078 112.541 44.714 111.561 44.714C111.029 44.714 110.651 44.812 110.413 45.008C110.161 45.204 110.007 45.54 109.951 46.002H108.439ZM113.031 47.374C112.905 47.444 112.765 47.5 112.611 47.556C112.443 47.612 112.317 47.64 112.219 47.654C112.121 47.668 111.967 47.682 111.757 47.71C111.547 47.738 111.407 47.766 111.351 47.766C111.155 47.794 111.001 47.822 110.889 47.85C110.777 47.878 110.637 47.906 110.469 47.962C110.301 48.018 110.175 48.088 110.091 48.172C110.007 48.256 109.923 48.354 109.867 48.494C109.797 48.634 109.769 48.788 109.769 48.97C109.769 49.32 109.881 49.586 110.105 49.768C110.329 49.964 110.651 50.048 111.071 50.048C111.771 50.048 112.317 49.866 112.709 49.474C112.919 49.264 113.031 48.844 113.031 48.228V47.374ZM120.376 43.636V45.162C120.096 45.134 119.9 45.12 119.816 45.12C118.416 45.12 117.73 46.03 117.73 47.822V51H116.148V43.776H117.646V45.218C118.15 44.154 118.962 43.608 120.068 43.608L120.376 43.636ZM125.303 41.032H129.853C130.889 41.032 131.687 41.27 132.247 41.718C132.807 42.166 133.087 42.782 133.087 43.538C133.087 44.014 132.947 44.448 132.695 44.826C132.429 45.204 132.079 45.47 131.659 45.638C132.233 45.778 132.695 46.058 133.031 46.478C133.367 46.898 133.535 47.43 133.535 48.06C133.535 48.942 133.241 49.656 132.653 50.188C132.065 50.734 131.309 51 130.385 51H125.303V41.032ZM127.011 42.446V45.19H129.391C130.063 45.19 130.553 45.092 130.875 44.882C131.183 44.672 131.351 44.322 131.351 43.818C131.351 43.258 131.183 42.894 130.847 42.712C130.511 42.544 130.049 42.446 129.447 42.446H127.011ZM127.011 46.45V49.572H129.629C130.301 49.572 130.819 49.46 131.211 49.236C131.589 49.012 131.785 48.606 131.785 48.018C131.785 47.696 131.715 47.43 131.603 47.206C131.491 46.982 131.323 46.828 131.099 46.716C130.875 46.618 130.651 46.548 130.427 46.506C130.189 46.478 129.909 46.45 129.601 46.45H127.011ZM141.432 48.746C141.25 49.53 140.858 50.146 140.27 50.58C139.682 51.028 138.968 51.238 138.156 51.238C137.064 51.238 136.196 50.888 135.552 50.188C134.908 49.488 134.6 48.578 134.6 47.472C134.6 46.352 134.922 45.414 135.58 44.672C136.238 43.944 137.078 43.566 138.1 43.566C139.15 43.566 139.99 43.93 140.606 44.658C141.222 45.386 141.53 46.366 141.53 47.612V47.78H136.196C136.21 48.508 136.392 49.082 136.742 49.474C137.078 49.866 137.568 50.062 138.184 50.062C138.618 50.062 138.968 49.964 139.248 49.754C139.528 49.544 139.738 49.208 139.906 48.746H141.432ZM139.934 46.716C139.878 46.114 139.696 45.638 139.36 45.288C139.024 44.938 138.604 44.756 138.086 44.756C137.554 44.756 137.134 44.924 136.812 45.26C136.49 45.596 136.294 46.086 136.224 46.716H139.934ZM142.673 46.002C142.841 44.378 143.891 43.552 145.837 43.552C146.733 43.552 147.461 43.734 147.993 44.084C148.525 44.448 148.805 44.994 148.805 45.736V49.404C148.805 49.614 148.819 49.754 148.875 49.824C148.931 49.908 149.029 49.936 149.183 49.936C149.295 49.936 149.407 49.936 149.547 49.908V51.028C149.127 51.14 148.791 51.182 148.511 51.182C147.825 51.182 147.433 50.902 147.335 50.314C146.719 50.902 145.879 51.182 144.801 51.182C144.045 51.182 143.457 51 143.023 50.608C142.575 50.216 142.365 49.698 142.365 49.026C142.365 48.83 142.379 48.634 142.435 48.452C142.477 48.284 142.533 48.13 142.589 47.99C142.645 47.864 142.743 47.738 142.883 47.626C143.023 47.514 143.135 47.43 143.219 47.346C143.303 47.276 143.457 47.206 143.653 47.136C143.849 47.08 144.003 47.024 144.101 46.996C144.199 46.968 144.367 46.926 144.619 46.884C144.857 46.856 145.011 46.828 145.095 46.814C145.179 46.8 145.347 46.772 145.599 46.744C146.159 46.674 146.551 46.618 146.761 46.562C146.957 46.506 147.097 46.436 147.181 46.324C147.237 46.254 147.279 46.086 147.279 45.806C147.279 45.078 146.775 44.714 145.795 44.714C145.263 44.714 144.885 44.812 144.647 45.008C144.395 45.204 144.241 45.54 144.185 46.002H142.673ZM147.265 47.374C147.139 47.444 146.999 47.5 146.845 47.556C146.677 47.612 146.551 47.64 146.453 47.654C146.355 47.668 146.201 47.682 145.991 47.71C145.781 47.738 145.641 47.766 145.585 47.766C145.389 47.794 145.235 47.822 145.123 47.85C145.011 47.878 144.871 47.906 144.703 47.962C144.535 48.018 144.409 48.088 144.325 48.172C144.241 48.256 144.157 48.354 144.101 48.494C144.031 48.634 144.003 48.788 144.003 48.97C144.003 49.32 144.115 49.586 144.339 49.768C144.563 49.964 144.885 50.048 145.305 50.048C146.005 50.048 146.551 49.866 146.943 49.474C147.153 49.264 147.265 48.844 147.265 48.228V47.374ZM152.049 43.776V44.798C152.637 43.986 153.393 43.58 154.317 43.58C154.793 43.58 155.199 43.692 155.549 43.902C155.899 44.126 156.165 44.42 156.333 44.812C156.907 44 157.691 43.58 158.671 43.58C159.343 43.58 159.917 43.79 160.365 44.196C160.813 44.602 161.037 45.162 161.037 45.876V51H159.441V46.562C159.441 46.058 159.343 45.652 159.175 45.358C158.993 45.078 158.657 44.924 158.153 44.924C157.635 44.924 157.243 45.092 156.977 45.414C156.697 45.736 156.571 46.184 156.571 46.758V51H154.975V46.478C154.975 45.974 154.891 45.582 154.737 45.316C154.583 45.064 154.261 44.924 153.785 44.924C153.239 44.924 152.833 45.106 152.553 45.456C152.273 45.806 152.133 46.268 152.133 46.842V51H150.537V43.776H152.049Z" fill="black"/>
<path d="M94.11 108.374C94.068 108.902 93.882 109.322 93.546 109.634C93.21 109.946 92.778 110.102 92.25 110.102C91.644 110.102 91.158 109.898 90.798 109.49C90.432 109.082 90.252 108.542 90.252 107.864C90.252 107.456 90.33 107.09 90.486 106.754C90.642 106.418 90.876 106.148 91.188 105.944C91.5 105.74 91.866 105.632 92.286 105.632C92.736 105.632 93.132 105.758 93.468 106.01C93.804 106.262 94.002 106.622 94.074 107.09H93.33C93.276 106.838 93.156 106.634 92.97 106.49C92.778 106.346 92.55 106.268 92.274 106.268C91.986 106.268 91.746 106.352 91.548 106.508C91.35 106.67 91.212 106.868 91.128 107.102C91.044 107.336 91.008 107.588 91.008 107.864C91.008 108.074 91.032 108.272 91.08 108.452C91.128 108.638 91.2 108.806 91.296 108.962C91.392 109.118 91.518 109.238 91.686 109.328C91.854 109.424 92.046 109.466 92.268 109.466C92.904 109.466 93.264 109.106 93.36 108.374H94.11ZM97.7021 109.352V110H94.7741V105.728H95.5301V109.352H97.7021Z" fill="#B02E0C"/>
<path d="M30.5 112H146.5" stroke="#B02E0C" stroke-width="0.8" stroke-linecap="square"/>
<path d="M37.522 95.988H36.808C36.76 95.49 36.454 95.238 35.878 95.238C35.62 95.238 35.422 95.292 35.278 95.4C35.134 95.508 35.062 95.652 35.062 95.832C35.062 96.006 35.11 96.126 35.218 96.186C35.326 96.252 35.56 96.33 35.926 96.42C36.022 96.45 36.094 96.468 36.148 96.48C36.622 96.6 36.946 96.708 37.12 96.804C37.498 97.008 37.69 97.326 37.69 97.758C37.69 97.95 37.654 98.118 37.594 98.268C37.528 98.424 37.444 98.55 37.336 98.652C37.228 98.754 37.096 98.838 36.952 98.904C36.802 98.976 36.646 99.024 36.49 99.054C36.328 99.084 36.16 99.096 35.992 99.096C35.452 99.096 35.02 98.97 34.69 98.712C34.354 98.46 34.192 98.082 34.192 97.584H34.93C34.93 97.896 35.032 98.13 35.236 98.28C35.44 98.43 35.704 98.502 36.034 98.502C36.322 98.502 36.544 98.448 36.706 98.328C36.868 98.208 36.952 98.046 36.952 97.83C36.952 97.698 36.904 97.584 36.82 97.5C36.736 97.416 36.64 97.35 36.544 97.314C36.442 97.278 36.268 97.23 36.022 97.164C35.992 97.158 35.968 97.152 35.956 97.146C35.422 97.014 35.074 96.9 34.906 96.81C34.558 96.63 34.372 96.354 34.348 95.976V95.892C34.348 95.514 34.486 95.214 34.774 94.986C35.062 94.758 35.446 94.644 35.926 94.644C36.388 94.644 36.766 94.758 37.06 94.974C37.348 95.196 37.504 95.532 37.522 95.988Z" fill="black"/>
</svg>
