<svg width="176" height="136" viewBox="0 0 176 136" fill="none" xmlns="http://www.w3.org/2000/svg">
<path d="M0 16C0 7.16344 7.16344 0 16 0H160C168.837 0 176 7.16344 176 16V120C176 128.837 168.837 136 160 136H16C7.16344 136 0 128.837 0 120V16Z" fill="white"/>
<path d="M16 0.5H160C168.56 0.5 175.5 7.43959 175.5 16V120C175.5 128.56 168.56 135.5 160 135.5H16C7.43959 135.5 0.5 128.56 0.5 120V16C0.5 7.43959 7.43959 0.5 16 0.5Z" stroke="#B02E0C" stroke-opacity="0.16"/>
<rect x="15.5" y="82.5" width="146" height="41" stroke="black"/>
<path d="M30 88V118" stroke="black" stroke-linecap="square"/>
<path d="M41.6992 88V118" stroke="black" stroke-linecap="square"/>
<path d="M53.3984 88V118" stroke="black" stroke-linecap="square"/>
<path d="M65.1016 88V118" stroke="black" stroke-linecap="square"/>
<path d="M76.8008 88V118" stroke="black" stroke-linecap="square"/>
<path d="M88.5 88V118" stroke="black" stroke-linecap="square"/>
<path d="M100.199 88V118" stroke="black" stroke-linecap="square"/>
<path d="M111.898 88V118" stroke="black" stroke-linecap="square"/>
<path d="M123.602 88V118" stroke="black" stroke-linecap="square"/>
<path d="M135.301 88V118" stroke="black" stroke-linecap="square"/>
<path d="M147 88V118" stroke="black" stroke-linecap="square"/>
<path d="M21 100V92C21 89.7909 22.7909 88 25 88H152C154.209 88 156 89.7909 156 92V100" stroke="#F7941D" stroke-linecap="square"/>
<path d="M21 106V114C21 116.209 22.7909 118 25 118H152C154.209 118 156 116.209 156 114V106" stroke="#F7941D" stroke-linecap="square"/>
<path d="M30.5 102.5L32.5 103.655V101.345L30.5 102.5ZM41 102.5L39 101.345V103.655L41 102.5ZM32.3 102.5V102.7H39.2V102.5V102.3H32.3V102.5Z" fill="black"/>
<path d="M90.496 131.136V132H86.592V126.304H87.6V131.136H90.496Z" fill="black"/>
<rect x="15.3193" y="12.3193" width="52.3615" height="52.3615" stroke="black" stroke-width="0.638542"/>
<rect x="18.831" y="15.831" width="45.3374" height="45.3374" rx="4.78907" stroke="#F7941D" stroke-width="0.638542"/>
<circle cx="24.898" cy="21.897" r="2.55422" fill="#F7941D"/>
<circle cx="41.5542" cy="21.897" r="2.55422" fill="#F7941D"/>
<circle cx="24.898" cy="55.1021" r="2.55422" fill="#F7941D"/>
<circle cx="41.5542" cy="55.1021" r="2.55422" fill="#F7941D"/>
<circle cx="58.1011" cy="21.897" r="2.55422" fill="#F7941D"/>
<circle cx="58.1011" cy="55.1021" r="2.55422" fill="#F7941D"/>
<path d="M22.3436 26.6865C15.958 16.6293 21.5427 12.798 29.6859 20.301" stroke="#B02E0C" stroke-width="0.519288" stroke-linecap="round"/>
<path d="M19 38L21 39.1547V36.8453L19 38ZM20.8 38V38.2H29.5V38V37.8H20.8V38Z" fill="black"/>
<path d="M38.952 73L40.984 70.048L39.096 67.304H40.288L41.584 69.32L42.936 67.304H44.056L42.168 70.048L44.192 73H42.976L41.552 70.824L40.104 73H38.952Z" fill="black"/>
<path d="M76.24 35.304L74.096 38.736V41H73.112V38.736L70.96 35.304H72.112L73.624 37.824L75.12 35.304H76.24Z" fill="black"/>
<path d="M31.444 35.728H33.466C33.886 35.728 34.234 35.824 34.504 36.016C34.768 36.208 34.906 36.508 34.906 36.916C34.906 37.174 34.84 37.396 34.72 37.576C34.594 37.756 34.42 37.888 34.198 37.966C34.3 37.99 34.39 38.026 34.468 38.074C34.54 38.122 34.6 38.176 34.642 38.23C34.684 38.29 34.72 38.362 34.75 38.446C34.774 38.536 34.792 38.614 34.804 38.68C34.816 38.746 34.822 38.83 34.834 38.938C34.834 38.968 34.84 39.022 34.846 39.1C34.852 39.184 34.858 39.238 34.858 39.262C34.858 39.286 34.864 39.334 34.87 39.394C34.876 39.46 34.882 39.508 34.888 39.532C34.888 39.556 34.894 39.598 34.906 39.646C34.918 39.694 34.924 39.736 34.936 39.76C34.942 39.784 34.954 39.814 34.966 39.85C34.978 39.886 34.99 39.91 35.008 39.934C35.02 39.958 35.038 39.982 35.062 40H34.258C34.246 39.988 34.234 39.97 34.222 39.946C34.21 39.922 34.204 39.898 34.198 39.874C34.186 39.85 34.18 39.826 34.18 39.802C34.174 39.778 34.168 39.748 34.162 39.712C34.156 39.676 34.156 39.64 34.156 39.616L34.144 39.508L34.132 39.4C34.132 39.376 34.126 39.334 34.126 39.274C34.12 39.214 34.12 39.172 34.12 39.148C34.096 38.8 34.024 38.566 33.898 38.434C33.772 38.302 33.532 38.236 33.184 38.236H32.188V40H31.444V35.728ZM32.188 36.34V37.678H33.178C33.322 37.678 33.442 37.672 33.544 37.654C33.64 37.642 33.742 37.612 33.844 37.57C33.946 37.528 34.024 37.456 34.078 37.36C34.132 37.264 34.162 37.144 34.162 36.994C34.162 36.862 34.138 36.748 34.09 36.658C34.042 36.568 33.97 36.502 33.88 36.454C33.79 36.412 33.7 36.382 33.604 36.364C33.508 36.352 33.4 36.34 33.274 36.34H32.188Z" fill="black"/>
<path d="M54.45 25.728H56.076C56.37 25.728 56.628 25.764 56.856 25.824C57.078 25.884 57.282 25.998 57.474 26.166C57.894 26.544 58.104 27.084 58.104 27.792C58.104 28.548 57.9 29.13 57.504 29.526C57.324 29.706 57.132 29.826 56.928 29.898C56.724 29.97 56.454 30 56.118 30H54.45V25.728ZM55.194 26.364V29.37H56.076C56.544 29.37 56.874 29.238 57.066 28.962C57.258 28.692 57.354 28.314 57.354 27.828C57.354 27.372 57.246 27.012 57.03 26.754C56.814 26.496 56.478 26.364 56.028 26.364H55.194ZM60.5921 25.776V30H59.8601V27.096H58.8161V26.592C59.5421 26.592 59.9501 26.322 60.0401 25.776H60.5921Z" fill="black"/>
<path d="M54.45 46.728H56.076C56.37 46.728 56.628 46.764 56.856 46.824C57.078 46.884 57.282 46.998 57.474 47.166C57.894 47.544 58.104 48.084 58.104 48.792C58.104 49.548 57.9 50.13 57.504 50.526C57.324 50.706 57.132 50.826 56.928 50.898C56.724 50.97 56.454 51 56.118 51H54.45V46.728ZM55.194 47.364V50.37H56.076C56.544 50.37 56.874 50.238 57.066 49.962C57.258 49.692 57.354 49.314 57.354 48.828C57.354 48.372 57.246 48.012 57.03 47.754C56.814 47.496 56.478 47.364 56.028 47.364H55.194ZM61.3361 50.394V51H58.4681C58.4681 50.814 58.4981 50.64 58.5461 50.484C58.5941 50.328 58.6481 50.196 58.7081 50.088C58.7681 49.98 58.8641 49.866 58.9841 49.752C59.1041 49.638 59.2181 49.542 59.3141 49.47C59.4101 49.398 59.5481 49.302 59.7221 49.182C59.7341 49.176 59.7881 49.14 59.8961 49.068C60.0041 48.996 60.0701 48.954 60.0941 48.936C60.1181 48.918 60.1721 48.876 60.2561 48.81C60.3401 48.744 60.3941 48.69 60.4181 48.648C60.4421 48.612 60.4781 48.558 60.5261 48.486C60.5741 48.42 60.6041 48.354 60.6221 48.282C60.6341 48.21 60.6461 48.138 60.6461 48.054C60.6461 47.838 60.5801 47.664 60.4601 47.538C60.3401 47.412 60.1721 47.346 59.9681 47.346C59.8481 47.346 59.7401 47.37 59.6561 47.406C59.5661 47.442 59.4941 47.49 59.4461 47.55C59.3981 47.61 59.3561 47.688 59.3261 47.784C59.2901 47.88 59.2721 47.964 59.2601 48.048C59.2481 48.132 59.2421 48.234 59.2421 48.342H58.5761V48.234C58.5761 47.784 58.7021 47.424 58.9541 47.16C59.2061 46.896 59.5541 46.758 59.9861 46.758C60.3941 46.758 60.7181 46.878 60.9701 47.106C61.2161 47.334 61.3421 47.64 61.3421 48.018C61.3421 48.174 61.3181 48.318 61.2701 48.45C61.2221 48.588 61.1681 48.696 61.1141 48.78C61.0601 48.864 60.9701 48.966 60.8381 49.074C60.7061 49.188 60.6041 49.266 60.5441 49.308C60.4781 49.356 60.3581 49.434 60.1901 49.548C59.6861 49.872 59.3861 50.154 59.2901 50.394H61.3361Z" fill="black"/>
<path d="M114.533 33.692H112.993C112.825 32.796 112.321 32.348 111.509 32.348C111.271 32.348 111.061 32.404 110.865 32.488C110.669 32.586 110.501 32.698 110.375 32.81C110.235 32.936 110.123 33.118 110.025 33.342C109.913 33.566 109.843 33.762 109.787 33.916C109.731 34.07 109.689 34.294 109.633 34.574C109.577 34.868 109.549 35.064 109.549 35.176C109.535 35.288 109.521 35.484 109.493 35.736C110.025 34.938 110.781 34.532 111.733 34.532C112.629 34.532 113.357 34.84 113.917 35.428C114.477 36.03 114.757 36.814 114.757 37.766C114.757 38.774 114.435 39.586 113.819 40.23C113.203 40.874 112.405 41.196 111.453 41.196C110.319 41.196 109.451 40.776 108.849 39.922C108.233 39.082 107.939 37.864 107.939 36.282C107.939 34.658 108.261 33.384 108.905 32.46C109.549 31.55 110.431 31.088 111.579 31.088C112.405 31.088 113.077 31.326 113.609 31.774C114.127 32.236 114.435 32.88 114.533 33.692ZM111.411 35.806C110.879 35.806 110.473 35.988 110.165 36.352C109.857 36.716 109.703 37.192 109.703 37.78C109.703 38.41 109.857 38.914 110.179 39.292C110.501 39.684 110.921 39.866 111.453 39.866C111.957 39.866 112.377 39.684 112.685 39.306C112.993 38.942 113.161 38.438 113.161 37.822C113.161 37.22 112.993 36.73 112.685 36.366C112.363 36.002 111.943 35.806 111.411 35.806ZM120.146 31.032H124.696C125.732 31.032 126.53 31.27 127.09 31.718C127.65 32.166 127.93 32.782 127.93 33.538C127.93 34.014 127.79 34.448 127.538 34.826C127.272 35.204 126.922 35.47 126.502 35.638C127.076 35.778 127.538 36.058 127.874 36.478C128.21 36.898 128.378 37.43 128.378 38.06C128.378 38.942 128.084 39.656 127.496 40.188C126.908 40.734 126.152 41 125.228 41H120.146V31.032ZM121.854 32.446V35.19H124.234C124.906 35.19 125.396 35.092 125.718 34.882C126.026 34.672 126.194 34.322 126.194 33.818C126.194 33.258 126.026 32.894 125.69 32.712C125.354 32.544 124.892 32.446 124.29 32.446H121.854ZM121.854 36.45V39.572H124.472C125.144 39.572 125.662 39.46 126.054 39.236C126.432 39.012 126.628 38.606 126.628 38.018C126.628 37.696 126.558 37.43 126.446 37.206C126.334 36.982 126.166 36.828 125.942 36.716C125.718 36.618 125.494 36.548 125.27 36.506C125.032 36.478 124.752 36.45 124.444 36.45H121.854ZM129.738 36.002C129.906 34.378 130.956 33.552 132.902 33.552C133.798 33.552 134.526 33.734 135.058 34.084C135.59 34.448 135.87 34.994 135.87 35.736V39.404C135.87 39.614 135.884 39.754 135.94 39.824C135.996 39.908 136.094 39.936 136.248 39.936C136.36 39.936 136.472 39.936 136.612 39.908V41.028C136.192 41.14 135.856 41.182 135.576 41.182C134.89 41.182 134.498 40.902 134.4 40.314C133.784 40.902 132.944 41.182 131.866 41.182C131.11 41.182 130.522 41 130.088 40.608C129.64 40.216 129.43 39.698 129.43 39.026C129.43 38.83 129.444 38.634 129.5 38.452C129.542 38.284 129.598 38.13 129.654 37.99C129.71 37.864 129.808 37.738 129.948 37.626C130.088 37.514 130.2 37.43 130.284 37.346C130.368 37.276 130.522 37.206 130.718 37.136C130.914 37.08 131.068 37.024 131.166 36.996C131.264 36.968 131.432 36.926 131.684 36.884C131.922 36.856 132.076 36.828 132.16 36.814C132.244 36.8 132.412 36.772 132.664 36.744C133.224 36.674 133.616 36.618 133.826 36.562C134.022 36.506 134.162 36.436 134.246 36.324C134.302 36.254 134.344 36.086 134.344 35.806C134.344 35.078 133.84 34.714 132.86 34.714C132.328 34.714 131.95 34.812 131.712 35.008C131.46 35.204 131.306 35.54 131.25 36.002H129.738ZM134.33 37.374C134.204 37.444 134.064 37.5 133.91 37.556C133.742 37.612 133.616 37.64 133.518 37.654C133.42 37.668 133.266 37.682 133.056 37.71C132.846 37.738 132.706 37.766 132.65 37.766C132.454 37.794 132.3 37.822 132.188 37.85C132.076 37.878 131.936 37.906 131.768 37.962C131.6 38.018 131.474 38.088 131.39 38.172C131.306 38.256 131.222 38.354 131.166 38.494C131.096 38.634 131.068 38.788 131.068 38.97C131.068 39.32 131.18 39.586 131.404 39.768C131.628 39.964 131.95 40.048 132.37 40.048C133.07 40.048 133.616 39.866 134.008 39.474C134.218 39.264 134.33 38.844 134.33 38.228V37.374ZM141.675 33.636V35.162C141.395 35.134 141.199 35.12 141.115 35.12C139.715 35.12 139.029 36.03 139.029 37.822V41H137.447V33.776H138.945V35.218C139.449 34.154 140.261 33.608 141.367 33.608L141.675 33.636ZM108.737 45.032H113.287C114.323 45.032 115.121 45.27 115.681 45.718C116.241 46.166 116.521 46.782 116.521 47.538C116.521 48.014 116.381 48.448 116.129 48.826C115.863 49.204 115.513 49.47 115.093 49.638C115.667 49.778 116.129 50.058 116.465 50.478C116.801 50.898 116.969 51.43 116.969 52.06C116.969 52.942 116.675 53.656 116.087 54.188C115.499 54.734 114.743 55 113.819 55H108.737V45.032ZM110.445 46.446V49.19H112.825C113.497 49.19 113.987 49.092 114.309 48.882C114.617 48.672 114.785 48.322 114.785 47.818C114.785 47.258 114.617 46.894 114.281 46.712C113.945 46.544 113.483 46.446 112.881 46.446H110.445ZM110.445 50.45V53.572H113.063C113.735 53.572 114.253 53.46 114.645 53.236C115.023 53.012 115.219 52.606 115.219 52.018C115.219 51.696 115.149 51.43 115.037 51.206C114.925 50.982 114.757 50.828 114.533 50.716C114.309 50.618 114.085 50.548 113.861 50.506C113.623 50.478 113.343 50.45 113.035 50.45H110.445ZM124.867 52.746C124.685 53.53 124.293 54.146 123.705 54.58C123.117 55.028 122.403 55.238 121.591 55.238C120.499 55.238 119.631 54.888 118.987 54.188C118.343 53.488 118.035 52.578 118.035 51.472C118.035 50.352 118.357 49.414 119.015 48.672C119.673 47.944 120.513 47.566 121.535 47.566C122.585 47.566 123.425 47.93 124.041 48.658C124.657 49.386 124.965 50.366 124.965 51.612V51.78H119.631C119.645 52.508 119.827 53.082 120.177 53.474C120.513 53.866 121.003 54.062 121.619 54.062C122.053 54.062 122.403 53.964 122.683 53.754C122.963 53.544 123.173 53.208 123.341 52.746H124.867ZM123.369 50.716C123.313 50.114 123.131 49.638 122.795 49.288C122.459 48.938 122.039 48.756 121.521 48.756C120.989 48.756 120.569 48.924 120.247 49.26C119.925 49.596 119.729 50.086 119.659 50.716H123.369ZM126.108 50.002C126.276 48.378 127.326 47.552 129.272 47.552C130.168 47.552 130.896 47.734 131.428 48.084C131.96 48.448 132.24 48.994 132.24 49.736V53.404C132.24 53.614 132.254 53.754 132.31 53.824C132.366 53.908 132.464 53.936 132.618 53.936C132.73 53.936 132.842 53.936 132.982 53.908V55.028C132.562 55.14 132.226 55.182 131.946 55.182C131.26 55.182 130.868 54.902 130.77 54.314C130.154 54.902 129.314 55.182 128.236 55.182C127.48 55.182 126.892 55 126.458 54.608C126.01 54.216 125.8 53.698 125.8 53.026C125.8 52.83 125.814 52.634 125.87 52.452C125.912 52.284 125.968 52.13 126.024 51.99C126.08 51.864 126.178 51.738 126.318 51.626C126.458 51.514 126.57 51.43 126.654 51.346C126.738 51.276 126.892 51.206 127.088 51.136C127.284 51.08 127.438 51.024 127.536 50.996C127.634 50.968 127.802 50.926 128.054 50.884C128.292 50.856 128.446 50.828 128.53 50.814C128.614 50.8 128.782 50.772 129.034 50.744C129.594 50.674 129.986 50.618 130.196 50.562C130.392 50.506 130.532 50.436 130.616 50.324C130.672 50.254 130.714 50.086 130.714 49.806C130.714 49.078 130.21 48.714 129.23 48.714C128.698 48.714 128.32 48.812 128.082 49.008C127.83 49.204 127.676 49.54 127.62 50.002H126.108ZM130.7 51.374C130.574 51.444 130.434 51.5 130.28 51.556C130.112 51.612 129.986 51.64 129.888 51.654C129.79 51.668 129.636 51.682 129.426 51.71C129.216 51.738 129.076 51.766 129.02 51.766C128.824 51.794 128.67 51.822 128.558 51.85C128.446 51.878 128.306 51.906 128.138 51.962C127.97 52.018 127.844 52.088 127.76 52.172C127.676 52.256 127.592 52.354 127.536 52.494C127.466 52.634 127.438 52.788 127.438 52.97C127.438 53.32 127.55 53.586 127.774 53.768C127.998 53.964 128.32 54.048 128.74 54.048C129.44 54.048 129.986 53.866 130.378 53.474C130.588 53.264 130.7 52.844 130.7 52.228V51.374ZM135.483 47.776V48.798C136.071 47.986 136.827 47.58 137.751 47.58C138.227 47.58 138.633 47.692 138.983 47.902C139.333 48.126 139.599 48.42 139.767 48.812C140.341 48 141.125 47.58 142.105 47.58C142.777 47.58 143.351 47.79 143.799 48.196C144.247 48.602 144.471 49.162 144.471 49.876V55H142.875V50.562C142.875 50.058 142.777 49.652 142.609 49.358C142.427 49.078 142.091 48.924 141.587 48.924C141.069 48.924 140.677 49.092 140.411 49.414C140.131 49.736 140.005 50.184 140.005 50.758V55H138.409V50.478C138.409 49.974 138.325 49.582 138.171 49.316C138.017 49.064 137.695 48.924 137.219 48.924C136.673 48.924 136.267 49.106 135.987 49.456C135.707 49.806 135.567 50.268 135.567 50.842V55H133.971V47.776H135.483Z" fill="black"/>
<path d="M37.522 96.988H36.808C36.76 96.49 36.454 96.238 35.878 96.238C35.62 96.238 35.422 96.292 35.278 96.4C35.134 96.508 35.062 96.652 35.062 96.832C35.062 97.006 35.11 97.126 35.218 97.186C35.326 97.252 35.56 97.33 35.926 97.42C36.022 97.45 36.094 97.468 36.148 97.48C36.622 97.6 36.946 97.708 37.12 97.804C37.498 98.008 37.69 98.326 37.69 98.758C37.69 98.95 37.654 99.118 37.594 99.268C37.528 99.424 37.444 99.55 37.336 99.652C37.228 99.754 37.096 99.838 36.952 99.904C36.802 99.976 36.646 100.024 36.49 100.054C36.328 100.084 36.16 100.096 35.992 100.096C35.452 100.096 35.02 99.97 34.69 99.712C34.354 99.46 34.192 99.082 34.192 98.584H34.93C34.93 98.896 35.032 99.13 35.236 99.28C35.44 99.43 35.704 99.502 36.034 99.502C36.322 99.502 36.544 99.448 36.706 99.328C36.868 99.208 36.952 99.046 36.952 98.83C36.952 98.698 36.904 98.584 36.82 98.5C36.736 98.416 36.64 98.35 36.544 98.314C36.442 98.278 36.268 98.23 36.022 98.164C35.992 98.158 35.968 98.152 35.956 98.146C35.422 98.014 35.074 97.9 34.906 97.81C34.558 97.63 34.372 97.354 34.348 96.976V96.892C34.348 96.514 34.486 96.214 34.774 95.986C35.062 95.758 35.446 95.644 35.926 95.644C36.388 95.644 36.766 95.758 37.06 95.974C37.348 96.196 37.504 96.532 37.522 96.988Z" fill="black"/>
</svg>
