<svg width="176" height="136" viewBox="0 0 176 136" fill="none" xmlns="http://www.w3.org/2000/svg">
<path d="M0 16C0 7.16344 7.16344 0 16 0H160C168.837 0 176 7.16344 176 16V120C176 128.837 168.837 136 160 136H16C7.16344 136 0 128.837 0 120V16Z" fill="white"/>
<path d="M16 0.5H160C168.56 0.5 175.5 7.43959 175.5 16V120C175.5 128.56 168.56 135.5 160 135.5H16C7.43959 135.5 0.5 128.56 0.5 120V16C0.5 7.43959 7.43959 0.5 16 0.5Z" stroke="#B02E0C" stroke-opacity="0.16"/>
<rect x="15.5" y="82.5" width="146" height="41" stroke="black"/>
<path d="M30 88V118" stroke="black" stroke-linecap="square"/>
<path d="M41.6992 88V118" stroke="black" stroke-linecap="square"/>
<path d="M53.4004 88V118" stroke="black" stroke-linecap="square"/>
<path d="M65.0996 88V118" stroke="black" stroke-linecap="square"/>
<path d="M76.8008 88V118" stroke="black" stroke-linecap="square"/>
<path d="M88.5 88V118" stroke="black" stroke-linecap="square"/>
<path d="M100.199 88V118" stroke="black" stroke-linecap="square"/>
<path d="M111.9 88V118" stroke="black" stroke-linecap="square"/>
<path d="M123.6 88V118" stroke="black" stroke-linecap="square"/>
<path d="M135.301 88V118" stroke="black" stroke-linecap="square"/>
<path d="M147 88V118" stroke="black" stroke-linecap="square"/>
<path d="M70.522 95.728V96.358H68.188V97.492H70.354V98.098H68.188V99.358H70.558V100H67.444V95.728H70.522ZM74.3013 96.988H73.5873C73.5393 96.49 73.2333 96.238 72.6573 96.238C72.3993 96.238 72.2013 96.292 72.0573 96.4C71.9133 96.508 71.8413 96.652 71.8413 96.832C71.8413 97.006 71.8893 97.126 71.9973 97.186C72.1053 97.252 72.3393 97.33 72.7053 97.42C72.8013 97.45 72.8733 97.468 72.9273 97.48C73.4013 97.6 73.7253 97.708 73.8993 97.804C74.2773 98.008 74.4693 98.326 74.4693 98.758C74.4693 98.95 74.4333 99.118 74.3733 99.268C74.3073 99.424 74.2233 99.55 74.1153 99.652C74.0073 99.754 73.8753 99.838 73.7313 99.904C73.5813 99.976 73.4253 100.024 73.2693 100.054C73.1073 100.084 72.9393 100.096 72.7713 100.096C72.2313 100.096 71.7993 99.97 71.4693 99.712C71.1333 99.46 70.9713 99.082 70.9713 98.584H71.7093C71.7093 98.896 71.8113 99.13 72.0153 99.28C72.2193 99.43 72.4833 99.502 72.8133 99.502C73.1013 99.502 73.3233 99.448 73.4853 99.328C73.6473 99.208 73.7313 99.046 73.7313 98.83C73.7313 98.698 73.6833 98.584 73.5993 98.5C73.5153 98.416 73.4193 98.35 73.3233 98.314C73.2213 98.278 73.0473 98.23 72.8013 98.164C72.7713 98.158 72.7473 98.152 72.7353 98.146C72.2013 98.014 71.8533 97.9 71.6853 97.81C71.3373 97.63 71.1513 97.354 71.1273 96.976V96.892C71.1273 96.514 71.2653 96.214 71.5533 95.986C71.8413 95.758 72.2253 95.644 72.7053 95.644C73.1673 95.644 73.5453 95.758 73.8393 95.974C74.1273 96.196 74.2833 96.532 74.3013 96.988Z" fill="#B02E0C"/>
<path d="M21 100V92C21 89.7909 22.7909 88 25 88H152C154.209 88 156 89.7909 156 92V100" stroke="#F7941D" stroke-linecap="square"/>
<path d="M21 106V114C21 116.209 22.7909 118 25 118H152C154.209 118 156 116.209 156 114V106" stroke="#F7941D" stroke-linecap="square"/>
<path d="M90.496 131.136V132H86.592V126.304H87.6V131.136H90.496Z" fill="black"/>
<rect x="15.3193" y="12.3193" width="52.3615" height="52.3615" stroke="black" stroke-width="0.638542"/>
<rect x="18.831" y="15.831" width="45.3374" height="45.3374" rx="4.78907" stroke="#F7941D" stroke-width="0.638542"/>
<circle cx="24.898" cy="21.897" r="2.55422" fill="#F7941D"/>
<circle cx="24.898" cy="31.897" r="2.55422" fill="#B02E0C"/>
<circle cx="41.5542" cy="21.897" r="2.55422" fill="#F7941D"/>
<circle cx="24.898" cy="55.1021" r="2.55422" fill="#F7941D"/>
<circle cx="41.5542" cy="55.1021" r="2.55422" fill="#F7941D"/>
<circle cx="58.1011" cy="21.897" r="2.55422" fill="#F7941D"/>
<circle cx="58.1011" cy="31.897" r="2.55422" fill="#B02E0C"/>
<circle cx="58.1011" cy="55.1021" r="2.55422" fill="#F7941D"/>
<path d="M22.3436 26.6865C15.958 16.6293 21.5427 12.798 29.6859 20.301" stroke="#B02E0C" stroke-width="0.519288" stroke-linecap="round"/>
<path d="M38.952 73L40.984 70.048L39.096 67.304H40.288L41.584 69.32L42.936 67.304H44.056L42.168 70.048L44.192 73H42.976L41.552 70.824L40.104 73H38.952Z" fill="black"/>
<path d="M76.24 35.304L74.096 38.736V41H73.112V38.736L70.96 35.304H72.112L73.624 37.824L75.12 35.304H76.24Z" fill="black"/>
<path d="M19 44L21 45.1547V42.8453L19 44ZM20.8 44V44.2H29.5V44V43.8H20.8V44Z" fill="black"/>
<path d="M31.444 41.728H33.466C33.886 41.728 34.234 41.824 34.504 42.016C34.768 42.208 34.906 42.508 34.906 42.916C34.906 43.174 34.84 43.396 34.72 43.576C34.594 43.756 34.42 43.888 34.198 43.966C34.3 43.99 34.39 44.026 34.468 44.074C34.54 44.122 34.6 44.176 34.642 44.23C34.684 44.29 34.72 44.362 34.75 44.446C34.774 44.536 34.792 44.614 34.804 44.68C34.816 44.746 34.822 44.83 34.834 44.938C34.834 44.968 34.84 45.022 34.846 45.1C34.852 45.184 34.858 45.238 34.858 45.262C34.858 45.286 34.864 45.334 34.87 45.394C34.876 45.46 34.882 45.508 34.888 45.532C34.888 45.556 34.894 45.598 34.906 45.646C34.918 45.694 34.924 45.736 34.936 45.76C34.942 45.784 34.954 45.814 34.966 45.85C34.978 45.886 34.99 45.91 35.008 45.934C35.02 45.958 35.038 45.982 35.062 46H34.258C34.246 45.988 34.234 45.97 34.222 45.946C34.21 45.922 34.204 45.898 34.198 45.874C34.186 45.85 34.18 45.826 34.18 45.802C34.174 45.778 34.168 45.748 34.162 45.712C34.156 45.676 34.156 45.64 34.156 45.616L34.144 45.508L34.132 45.4C34.132 45.376 34.126 45.334 34.126 45.274C34.12 45.214 34.12 45.172 34.12 45.148C34.096 44.8 34.024 44.566 33.898 44.434C33.772 44.302 33.532 44.236 33.184 44.236H32.188V46H31.444V41.728ZM32.188 42.34V43.678H33.178C33.322 43.678 33.442 43.672 33.544 43.654C33.64 43.642 33.742 43.612 33.844 43.57C33.946 43.528 34.024 43.456 34.078 43.36C34.132 43.264 34.162 43.144 34.162 42.994C34.162 42.862 34.138 42.748 34.09 42.658C34.042 42.568 33.97 42.502 33.88 42.454C33.79 42.412 33.7 42.382 33.604 42.364C33.508 42.352 33.4 42.34 33.274 42.34H32.188Z" fill="black"/>
<path d="M47.45 19.728H49.076C49.37 19.728 49.628 19.764 49.856 19.824C50.078 19.884 50.282 19.998 50.474 20.166C50.894 20.544 51.104 21.084 51.104 21.792C51.104 22.548 50.9 23.13 50.504 23.526C50.324 23.706 50.132 23.826 49.928 23.898C49.724 23.97 49.454 24 49.118 24H47.45V19.728ZM48.194 20.364V23.37H49.076C49.544 23.37 49.874 23.238 50.066 22.962C50.258 22.692 50.354 22.314 50.354 21.828C50.354 21.372 50.246 21.012 50.03 20.754C49.814 20.496 49.478 20.364 49.028 20.364H48.194ZM53.5921 19.776V24H52.8601V21.096H51.8161V20.592C52.5421 20.592 52.9501 20.322 53.0401 19.776H53.5921Z" fill="black"/>
<path d="M54.45 35.728H56.076C56.37 35.728 56.628 35.764 56.856 35.824C57.078 35.884 57.282 35.998 57.474 36.166C57.894 36.544 58.104 37.084 58.104 37.792C58.104 38.548 57.9 39.13 57.504 39.526C57.324 39.706 57.132 39.826 56.928 39.898C56.724 39.97 56.454 40 56.118 40H54.45V35.728ZM55.194 36.364V39.37H56.076C56.544 39.37 56.874 39.238 57.066 38.962C57.258 38.692 57.354 38.314 57.354 37.828C57.354 37.372 57.246 37.012 57.03 36.754C56.814 36.496 56.478 36.364 56.028 36.364H55.194ZM58.5941 37.15C58.6061 36.718 58.7321 36.382 58.9781 36.13C59.2181 35.884 59.5481 35.758 59.9621 35.758C60.3461 35.758 60.6641 35.866 60.9041 36.07C61.1441 36.28 61.2641 36.55 61.2641 36.886C61.2641 37.09 61.2101 37.27 61.1021 37.426C60.9941 37.582 60.8561 37.684 60.6761 37.744C60.9101 37.804 61.0961 37.924 61.2341 38.098C61.3661 38.272 61.4381 38.482 61.4381 38.734C61.4381 39.136 61.3001 39.46 61.0241 39.712C60.7481 39.964 60.3881 40.09 59.9501 40.09C59.5121 40.09 59.1581 39.964 58.8941 39.712C58.6241 39.46 58.4921 39.13 58.4921 38.71V38.62H59.1521C59.1701 39.208 59.4401 39.502 59.9681 39.502C60.1961 39.502 60.3821 39.436 60.5201 39.304C60.6521 39.172 60.7241 38.986 60.7241 38.752C60.7241 38.512 60.6461 38.332 60.4901 38.218C60.3341 38.11 60.1301 38.05 59.8841 38.05C59.8061 38.05 59.7341 38.056 59.6681 38.056V37.54H59.7281C59.8481 37.54 59.9561 37.534 60.0461 37.522C60.1301 37.51 60.2201 37.48 60.3101 37.444C60.4001 37.408 60.4721 37.342 60.5201 37.258C60.5681 37.174 60.5921 37.066 60.5921 36.934C60.5921 36.754 60.5321 36.604 60.4181 36.49C60.2981 36.382 60.1421 36.322 59.9501 36.322C59.5001 36.322 59.2661 36.598 59.2481 37.15H58.5941Z" fill="#B02E0C"/>
<path d="M54.45 46.728H56.076C56.37 46.728 56.628 46.764 56.856 46.824C57.078 46.884 57.282 46.998 57.474 47.166C57.894 47.544 58.104 48.084 58.104 48.792C58.104 49.548 57.9 50.13 57.504 50.526C57.324 50.706 57.132 50.826 56.928 50.898C56.724 50.97 56.454 51 56.118 51H54.45V46.728ZM55.194 47.364V50.37H56.076C56.544 50.37 56.874 50.238 57.066 49.962C57.258 49.692 57.354 49.314 57.354 48.828C57.354 48.372 57.246 48.012 57.03 47.754C56.814 47.496 56.478 47.364 56.028 47.364H55.194ZM61.3361 50.394V51H58.4681C58.4681 50.814 58.4981 50.64 58.5461 50.484C58.5941 50.328 58.6481 50.196 58.7081 50.088C58.7681 49.98 58.8641 49.866 58.9841 49.752C59.1041 49.638 59.2181 49.542 59.3141 49.47C59.4101 49.398 59.5481 49.302 59.7221 49.182C59.7341 49.176 59.7881 49.14 59.8961 49.068C60.0041 48.996 60.0701 48.954 60.0941 48.936C60.1181 48.918 60.1721 48.876 60.2561 48.81C60.3401 48.744 60.3941 48.69 60.4181 48.648C60.4421 48.612 60.4781 48.558 60.5261 48.486C60.5741 48.42 60.6041 48.354 60.6221 48.282C60.6341 48.21 60.6461 48.138 60.6461 48.054C60.6461 47.838 60.5801 47.664 60.4601 47.538C60.3401 47.412 60.1721 47.346 59.9681 47.346C59.8481 47.346 59.7401 47.37 59.6561 47.406C59.5661 47.442 59.4941 47.49 59.4461 47.55C59.3981 47.61 59.3561 47.688 59.3261 47.784C59.2901 47.88 59.2721 47.964 59.2601 48.048C59.2481 48.132 59.2421 48.234 59.2421 48.342H58.5761V48.234C58.5761 47.784 58.7021 47.424 58.9541 47.16C59.2061 46.896 59.5541 46.758 59.9861 46.758C60.3941 46.758 60.7181 46.878 60.9701 47.106C61.2161 47.334 61.3421 47.64 61.3421 48.018C61.3421 48.174 61.3181 48.318 61.2701 48.45C61.2221 48.588 61.1681 48.696 61.1141 48.78C61.0601 48.864 60.9701 48.966 60.8381 49.074C60.7061 49.188 60.6041 49.266 60.5441 49.308C60.4781 49.356 60.3581 49.434 60.1901 49.548C59.6861 49.872 59.3861 50.154 59.2901 50.394H61.3361Z" fill="black"/>
<path d="M90.1097 33.788V35H84.3737C84.3737 34.628 84.4337 34.28 84.5297 33.968C84.6257 33.656 84.7337 33.392 84.8537 33.176C84.9737 32.96 85.1657 32.732 85.4057 32.504C85.6457 32.276 85.8737 32.084 86.0657 31.94C86.2577 31.796 86.5337 31.604 86.8817 31.364C86.9057 31.352 87.0137 31.28 87.2297 31.136C87.4457 30.992 87.5777 30.908 87.6257 30.872C87.6737 30.836 87.7817 30.752 87.9497 30.62C88.1177 30.488 88.2257 30.38 88.2737 30.296C88.3217 30.224 88.3937 30.116 88.4897 29.972C88.5857 29.84 88.6457 29.708 88.6817 29.564C88.7057 29.42 88.7297 29.276 88.7297 29.108C88.7297 28.676 88.5977 28.328 88.3577 28.076C88.1177 27.824 87.7817 27.692 87.3737 27.692C87.1337 27.692 86.9177 27.74 86.7497 27.812C86.5697 27.884 86.4257 27.98 86.3297 28.1C86.2337 28.22 86.1497 28.376 86.0897 28.568C86.0177 28.76 85.9817 28.928 85.9577 29.096C85.9337 29.264 85.9217 29.468 85.9217 29.684H84.5897V29.468C84.5897 28.568 84.8417 27.848 85.3457 27.32C85.8497 26.792 86.5457 26.516 87.4097 26.516C88.2257 26.516 88.8737 26.756 89.3777 27.212C89.8697 27.668 90.1217 28.28 90.1217 29.036C90.1217 29.348 90.0737 29.636 89.9777 29.9C89.8817 30.176 89.7737 30.392 89.6657 30.56C89.5577 30.728 89.3777 30.932 89.1137 31.148C88.8497 31.376 88.6457 31.532 88.5257 31.616C88.3937 31.712 88.1537 31.868 87.8177 32.096C86.8097 32.744 86.2097 33.308 86.0177 33.788H90.1097ZM101.149 26.456V27.716H96.4815V29.984H100.813V31.196H96.4815V33.716H101.221V35H94.9935V26.456H101.149ZM103.692 28.808V29.72C104.184 29 104.868 28.64 105.744 28.64C106.44 28.64 106.968 28.832 107.316 29.216C107.664 29.6 107.844 30.152 107.844 30.872V35H106.476V31.4C106.476 31.16 106.464 30.956 106.44 30.788C106.416 30.62 106.356 30.452 106.284 30.284C106.212 30.116 106.092 29.996 105.924 29.912C105.756 29.828 105.54 29.78 105.276 29.78C104.268 29.78 103.764 30.416 103.764 31.664V35H102.396V28.808H103.692ZM115.143 26.456V35H113.859V34.148C113.463 34.832 112.803 35.168 111.879 35.168C111.003 35.168 110.307 34.88 109.791 34.28C109.275 33.692 109.023 32.9 109.023 31.892C109.023 30.908 109.275 30.116 109.779 29.528C110.283 28.94 110.967 28.64 111.831 28.64C112.695 28.64 113.355 28.964 113.799 29.612V26.456H115.143ZM112.083 29.744C111.555 29.744 111.147 29.936 110.847 30.32C110.547 30.704 110.403 31.22 110.403 31.868C110.403 32.552 110.547 33.092 110.859 33.476C111.171 33.872 111.591 34.064 112.131 34.064C112.659 34.064 113.079 33.872 113.379 33.488C113.679 33.104 113.835 32.576 113.835 31.892C113.835 31.22 113.679 30.692 113.367 30.308C113.055 29.936 112.635 29.744 112.083 29.744ZM126.274 28.976H124.846C124.75 27.98 124.138 27.476 122.986 27.476C122.47 27.476 122.074 27.584 121.786 27.8C121.498 28.016 121.354 28.304 121.354 28.664C121.354 29.012 121.45 29.252 121.666 29.372C121.882 29.504 122.35 29.66 123.082 29.84C123.274 29.9 123.418 29.936 123.526 29.96C124.474 30.2 125.122 30.416 125.47 30.608C126.226 31.016 126.61 31.652 126.61 32.516C126.61 32.9 126.538 33.236 126.418 33.536C126.286 33.848 126.118 34.1 125.902 34.304C125.686 34.508 125.422 34.676 125.134 34.808C124.834 34.952 124.522 35.048 124.21 35.108C123.886 35.168 123.55 35.192 123.214 35.192C122.134 35.192 121.27 34.94 120.61 34.424C119.938 33.92 119.614 33.164 119.614 32.168H121.09C121.09 32.792 121.294 33.26 121.702 33.56C122.11 33.86 122.638 34.004 123.298 34.004C123.874 34.004 124.318 33.896 124.642 33.656C124.966 33.416 125.134 33.092 125.134 32.66C125.134 32.396 125.038 32.168 124.87 32C124.702 31.832 124.51 31.7 124.318 31.628C124.114 31.556 123.766 31.46 123.274 31.328C123.214 31.316 123.166 31.304 123.142 31.292C122.074 31.028 121.378 30.8 121.042 30.62C120.346 30.26 119.974 29.708 119.926 28.952V28.784C119.926 28.028 120.202 27.428 120.778 26.972C121.354 26.516 122.122 26.288 123.082 26.288C124.006 26.288 124.762 26.516 125.35 26.948C125.926 27.392 126.238 28.064 126.274 28.976ZM133.168 28.808V35H131.884V34.076C131.356 34.808 130.684 35.168 129.844 35.168C129.16 35.168 128.632 34.976 128.272 34.592C127.912 34.208 127.732 33.644 127.732 32.912V28.808H129.1V32.348C129.1 32.564 129.1 32.744 129.112 32.876C129.112 33.008 129.136 33.152 129.184 33.32C129.232 33.488 129.292 33.608 129.376 33.692C129.46 33.788 129.58 33.86 129.736 33.92C129.892 33.992 130.084 34.016 130.312 34.016C130.816 34.016 131.2 33.836 131.44 33.476C131.68 33.116 131.8 32.648 131.8 32.084V28.808H133.168ZM135.93 28.808V29.636C136.338 28.964 137.01 28.628 137.946 28.628C138.798 28.628 139.482 28.928 139.998 29.528C140.502 30.128 140.766 30.932 140.766 31.928C140.766 32.912 140.514 33.692 140.01 34.28C139.506 34.868 138.846 35.156 138.018 35.156C137.13 35.156 136.458 34.832 136.002 34.184V37.292H134.646V28.808H135.93ZM137.67 29.732C137.13 29.732 136.71 29.924 136.41 30.308C136.098 30.692 135.954 31.232 135.954 31.904C135.954 32.576 136.098 33.104 136.41 33.488C136.722 33.872 137.142 34.064 137.694 34.064C138.21 34.064 138.618 33.872 138.93 33.488C139.23 33.104 139.386 32.588 139.386 31.928C139.386 31.256 139.23 30.728 138.918 30.332C138.606 29.936 138.198 29.732 137.67 29.732ZM143.266 28.808V29.636C143.674 28.964 144.346 28.628 145.282 28.628C146.134 28.628 146.818 28.928 147.334 29.528C147.838 30.128 148.102 30.932 148.102 31.928C148.102 32.912 147.85 33.692 147.346 34.28C146.842 34.868 146.182 35.156 145.354 35.156C144.466 35.156 143.794 34.832 143.338 34.184V37.292H141.982V28.808H143.266ZM145.006 29.732C144.466 29.732 144.046 29.924 143.746 30.308C143.434 30.692 143.29 31.232 143.29 31.904C143.29 32.576 143.434 33.104 143.746 33.488C144.058 33.872 144.478 34.064 145.03 34.064C145.546 34.064 145.954 33.872 146.266 33.488C146.566 33.104 146.722 32.588 146.722 31.928C146.722 31.256 146.566 30.728 146.254 30.332C145.942 29.936 145.534 29.732 145.006 29.732ZM152.162 28.628C153.098 28.628 153.854 28.928 154.418 29.516C154.97 30.116 155.258 30.908 155.258 31.904C155.258 32.912 154.97 33.716 154.418 34.304C153.866 34.904 153.11 35.192 152.162 35.192C151.19 35.192 150.422 34.904 149.858 34.304C149.282 33.716 149.006 32.912 149.006 31.904C149.006 30.908 149.282 30.116 149.858 29.516C150.434 28.928 151.202 28.628 152.162 28.628ZM152.138 29.708C151.586 29.708 151.166 29.912 150.854 30.296C150.542 30.692 150.386 31.232 150.386 31.904C150.386 32.6 150.542 33.152 150.854 33.536C151.166 33.932 151.598 34.124 152.15 34.124C152.678 34.124 153.098 33.932 153.41 33.536C153.722 33.14 153.878 32.588 153.878 31.892C153.878 31.22 153.722 30.68 153.41 30.296C153.098 29.912 152.678 29.708 152.138 29.708ZM159.912 28.688V29.996C159.672 29.972 159.504 29.96 159.432 29.96C158.232 29.96 157.644 30.74 157.644 32.276V35H156.288V28.808H157.572V30.044C158.004 29.132 158.7 28.664 159.648 28.664L159.912 28.688ZM163.65 28.808V29.804H162.402V33.068C162.402 33.26 162.402 33.404 162.414 33.476C162.414 33.548 162.438 33.632 162.486 33.728C162.522 33.824 162.594 33.884 162.69 33.908C162.786 33.944 162.93 33.956 163.11 33.956C163.326 33.956 163.506 33.956 163.65 33.932V35.012C163.374 35.048 163.062 35.06 162.726 35.06C162.486 35.06 162.27 35.048 162.09 35.012C161.91 34.976 161.766 34.928 161.646 34.88C161.526 34.832 161.418 34.76 161.346 34.64C161.262 34.52 161.202 34.424 161.154 34.352C161.106 34.28 161.082 34.136 161.058 33.944C161.034 33.752 161.034 33.608 161.034 33.512V32.984V32.912V32.84V32.756V29.804H160.002V28.808H161.034V26.948H162.402V28.808H163.65ZM97.6289 40.736H96.3089C96.1649 39.968 95.7329 39.584 95.0369 39.584C94.8329 39.584 94.6529 39.632 94.4849 39.704C94.3169 39.788 94.1729 39.884 94.0649 39.98C93.9449 40.088 93.8489 40.244 93.7649 40.436C93.6689 40.628 93.6089 40.796 93.5609 40.928C93.5129 41.06 93.4769 41.252 93.4289 41.492C93.3809 41.744 93.3569 41.912 93.3569 42.008C93.3449 42.104 93.3329 42.272 93.3089 42.488C93.7649 41.804 94.4129 41.456 95.2289 41.456C95.9969 41.456 96.6209 41.72 97.1009 42.224C97.5809 42.74 97.8209 43.412 97.8209 44.228C97.8209 45.092 97.5449 45.788 97.0169 46.34C96.4889 46.892 95.8049 47.168 94.9889 47.168C94.0169 47.168 93.2729 46.808 92.7569 46.076C92.2289 45.356 91.9769 44.312 91.9769 42.956C91.9769 41.564 92.2529 40.472 92.8049 39.68C93.3569 38.9 94.1129 38.504 95.0969 38.504C95.8049 38.504 96.3809 38.708 96.8369 39.092C97.2809 39.488 97.5449 40.04 97.6289 40.736ZM94.9529 42.548C94.4969 42.548 94.1489 42.704 93.8849 43.016C93.6209 43.328 93.4889 43.736 93.4889 44.24C93.4889 44.78 93.6209 45.212 93.8969 45.536C94.1729 45.872 94.5329 46.028 94.9889 46.028C95.4209 46.028 95.7809 45.872 96.0449 45.548C96.3089 45.236 96.4529 44.804 96.4529 44.276C96.4529 43.76 96.3089 43.34 96.0449 43.028C95.7689 42.716 95.4089 42.548 94.9529 42.548ZM102.441 38.456H106.341C107.229 38.456 107.913 38.66 108.393 39.044C108.873 39.428 109.113 39.956 109.113 40.604C109.113 41.012 108.993 41.384 108.777 41.708C108.549 42.032 108.249 42.26 107.889 42.404C108.381 42.524 108.777 42.764 109.065 43.124C109.353 43.484 109.497 43.94 109.497 44.48C109.497 45.236 109.245 45.848 108.741 46.304C108.237 46.772 107.589 47 106.797 47H102.441V38.456ZM103.905 39.668V42.02H105.945C106.521 42.02 106.941 41.936 107.217 41.756C107.481 41.576 107.625 41.276 107.625 40.844C107.625 40.364 107.481 40.052 107.193 39.896C106.905 39.752 106.509 39.668 105.993 39.668H103.905ZM103.905 43.1V45.776H106.149C106.725 45.776 107.169 45.68 107.505 45.488C107.829 45.296 107.997 44.948 107.997 44.444C107.997 44.168 107.937 43.94 107.841 43.748C107.745 43.556 107.601 43.424 107.409 43.328C107.217 43.244 107.025 43.184 106.833 43.148C106.629 43.124 106.389 43.1 106.125 43.1H103.905ZM110.662 42.716C110.806 41.324 111.706 40.616 113.374 40.616C114.142 40.616 114.766 40.772 115.222 41.072C115.678 41.384 115.918 41.852 115.918 42.488V45.632C115.918 45.812 115.93 45.932 115.978 45.992C116.026 46.064 116.11 46.088 116.242 46.088C116.338 46.088 116.434 46.088 116.554 46.064V47.024C116.194 47.12 115.906 47.156 115.666 47.156C115.078 47.156 114.742 46.916 114.658 46.412C114.13 46.916 113.41 47.156 112.486 47.156C111.838 47.156 111.334 47 110.962 46.664C110.578 46.328 110.398 45.884 110.398 45.308C110.398 45.14 110.41 44.972 110.458 44.816C110.494 44.672 110.542 44.54 110.59 44.42C110.638 44.312 110.722 44.204 110.842 44.108C110.962 44.012 111.058 43.94 111.13 43.868C111.202 43.808 111.334 43.748 111.502 43.688C111.67 43.64 111.802 43.592 111.886 43.568C111.97 43.544 112.114 43.508 112.33 43.472C112.534 43.448 112.666 43.424 112.738 43.412C112.81 43.4 112.954 43.376 113.17 43.352C113.65 43.292 113.986 43.244 114.166 43.196C114.334 43.148 114.454 43.088 114.526 42.992C114.574 42.932 114.61 42.788 114.61 42.548C114.61 41.924 114.178 41.612 113.338 41.612C112.882 41.612 112.558 41.696 112.354 41.864C112.138 42.032 112.006 42.32 111.958 42.716H110.662ZM114.598 43.892C114.49 43.952 114.37 44 114.238 44.048C114.094 44.096 113.986 44.12 113.902 44.132C113.818 44.144 113.686 44.156 113.506 44.18C113.326 44.204 113.206 44.228 113.158 44.228C112.99 44.252 112.858 44.276 112.762 44.3C112.666 44.324 112.546 44.348 112.402 44.396C112.258 44.444 112.15 44.504 112.078 44.576C112.006 44.648 111.934 44.732 111.886 44.852C111.826 44.972 111.802 45.104 111.802 45.26C111.802 45.56 111.898 45.788 112.09 45.944C112.282 46.112 112.558 46.184 112.918 46.184C113.518 46.184 113.986 46.028 114.322 45.692C114.502 45.512 114.598 45.152 114.598 44.624V43.892ZM120.894 40.688V41.996C120.654 41.972 120.486 41.96 120.414 41.96C119.214 41.96 118.626 42.74 118.626 44.276V47H117.27V40.808H118.554V42.044C118.986 41.132 119.682 40.664 120.63 40.664L120.894 40.688ZM125.117 38.456H129.017C129.905 38.456 130.589 38.66 131.069 39.044C131.549 39.428 131.789 39.956 131.789 40.604C131.789 41.012 131.669 41.384 131.453 41.708C131.225 42.032 130.925 42.26 130.565 42.404C131.057 42.524 131.453 42.764 131.741 43.124C132.029 43.484 132.173 43.94 132.173 44.48C132.173 45.236 131.921 45.848 131.417 46.304C130.913 46.772 130.265 47 129.473 47H125.117V38.456ZM126.581 39.668V42.02H128.621C129.197 42.02 129.617 41.936 129.893 41.756C130.157 41.576 130.301 41.276 130.301 40.844C130.301 40.364 130.157 40.052 129.869 39.896C129.581 39.752 129.185 39.668 128.669 39.668H126.581ZM126.581 43.1V45.776H128.825C129.401 45.776 129.845 45.68 130.181 45.488C130.505 45.296 130.673 44.948 130.673 44.444C130.673 44.168 130.613 43.94 130.517 43.748C130.421 43.556 130.277 43.424 130.085 43.328C129.893 43.244 129.701 43.184 129.509 43.148C129.305 43.124 129.065 43.1 128.801 43.1H126.581ZM138.942 45.068C138.786 45.74 138.45 46.268 137.946 46.64C137.442 47.024 136.83 47.204 136.134 47.204C135.198 47.204 134.454 46.904 133.902 46.304C133.35 45.704 133.086 44.924 133.086 43.976C133.086 43.016 133.362 42.212 133.926 41.576C134.49 40.952 135.21 40.628 136.086 40.628C136.986 40.628 137.706 40.94 138.234 41.564C138.762 42.188 139.026 43.028 139.026 44.096V44.24H134.454C134.466 44.864 134.622 45.356 134.922 45.692C135.21 46.028 135.63 46.196 136.158 46.196C136.53 46.196 136.83 46.112 137.07 45.932C137.31 45.752 137.49 45.464 137.634 45.068H138.942ZM137.658 43.328C137.61 42.812 137.454 42.404 137.166 42.104C136.878 41.804 136.518 41.648 136.074 41.648C135.618 41.648 135.258 41.792 134.982 42.08C134.706 42.368 134.538 42.788 134.478 43.328H137.658ZM140.006 42.716C140.15 41.324 141.05 40.616 142.718 40.616C143.486 40.616 144.11 40.772 144.566 41.072C145.022 41.384 145.262 41.852 145.262 42.488V45.632C145.262 45.812 145.274 45.932 145.322 45.992C145.37 46.064 145.454 46.088 145.586 46.088C145.682 46.088 145.778 46.088 145.898 46.064V47.024C145.538 47.12 145.25 47.156 145.01 47.156C144.422 47.156 144.086 46.916 144.002 46.412C143.474 46.916 142.754 47.156 141.83 47.156C141.182 47.156 140.678 47 140.306 46.664C139.922 46.328 139.742 45.884 139.742 45.308C139.742 45.14 139.754 44.972 139.802 44.816C139.838 44.672 139.886 44.54 139.934 44.42C139.982 44.312 140.066 44.204 140.186 44.108C140.306 44.012 140.402 43.94 140.474 43.868C140.546 43.808 140.678 43.748 140.846 43.688C141.014 43.64 141.146 43.592 141.23 43.568C141.314 43.544 141.458 43.508 141.674 43.472C141.878 43.448 142.01 43.424 142.082 43.412C142.154 43.4 142.298 43.376 142.514 43.352C142.994 43.292 143.33 43.244 143.51 43.196C143.678 43.148 143.798 43.088 143.87 42.992C143.918 42.932 143.954 42.788 143.954 42.548C143.954 41.924 143.522 41.612 142.682 41.612C142.226 41.612 141.902 41.696 141.698 41.864C141.482 42.032 141.35 42.32 141.302 42.716H140.006ZM143.942 43.892C143.834 43.952 143.714 44 143.582 44.048C143.438 44.096 143.33 44.12 143.246 44.132C143.162 44.144 143.03 44.156 142.85 44.18C142.67 44.204 142.55 44.228 142.502 44.228C142.334 44.252 142.202 44.276 142.106 44.3C142.01 44.324 141.89 44.348 141.746 44.396C141.602 44.444 141.494 44.504 141.422 44.576C141.35 44.648 141.278 44.732 141.23 44.852C141.17 44.972 141.146 45.104 141.146 45.26C141.146 45.56 141.242 45.788 141.434 45.944C141.626 46.112 141.902 46.184 142.262 46.184C142.862 46.184 143.33 46.028 143.666 45.692C143.846 45.512 143.942 45.152 143.942 44.624V43.892ZM148.042 40.808V41.684C148.546 40.988 149.194 40.64 149.986 40.64C150.394 40.64 150.742 40.736 151.042 40.916C151.342 41.108 151.57 41.36 151.714 41.696C152.206 41 152.878 40.64 153.718 40.64C154.294 40.64 154.786 40.82 155.17 41.168C155.554 41.516 155.746 41.996 155.746 42.608V47H154.378V43.196C154.378 42.764 154.294 42.416 154.15 42.164C153.994 41.924 153.706 41.792 153.274 41.792C152.83 41.792 152.494 41.936 152.266 42.212C152.026 42.488 151.918 42.872 151.918 43.364V47H150.55V43.124C150.55 42.692 150.478 42.356 150.346 42.128C150.214 41.912 149.938 41.792 149.53 41.792C149.062 41.792 148.714 41.948 148.474 42.248C148.234 42.548 148.114 42.944 148.114 43.436V47H146.746V40.808H148.042Z" fill="black"/>
<path d="M24.5 97.5V93H82.5" stroke="#B02E0C" stroke-width="1.8" stroke-linecap="square"/>
<path d="M152.5 97.5V93H94.5" stroke="#B02E0C" stroke-width="1.8" stroke-linecap="square"/>
<path d="M30.5 111.5L32.5 112.655V110.345L30.5 111.5ZM41 111.5L39 110.345V112.655L41 111.5ZM32.3 111.5V111.7H39.2V111.5V111.3H32.3V111.5Z" fill="black"/>
<path d="M37.522 105.988H36.808C36.76 105.49 36.454 105.238 35.878 105.238C35.62 105.238 35.422 105.292 35.278 105.4C35.134 105.508 35.062 105.652 35.062 105.832C35.062 106.006 35.11 106.126 35.218 106.186C35.326 106.252 35.56 106.33 35.926 106.42C36.022 106.45 36.094 106.468 36.148 106.48C36.622 106.6 36.946 106.708 37.12 106.804C37.498 107.008 37.69 107.326 37.69 107.758C37.69 107.95 37.654 108.118 37.594 108.268C37.528 108.424 37.444 108.55 37.336 108.652C37.228 108.754 37.096 108.838 36.952 108.904C36.802 108.976 36.646 109.024 36.49 109.054C36.328 109.084 36.16 109.096 35.992 109.096C35.452 109.096 35.02 108.97 34.69 108.712C34.354 108.46 34.192 108.082 34.192 107.584H34.93C34.93 107.896 35.032 108.13 35.236 108.28C35.44 108.43 35.704 108.502 36.034 108.502C36.322 108.502 36.544 108.448 36.706 108.328C36.868 108.208 36.952 108.046 36.952 107.83C36.952 107.698 36.904 107.584 36.82 107.5C36.736 107.416 36.64 107.35 36.544 107.314C36.442 107.278 36.268 107.23 36.022 107.164C35.992 107.158 35.968 107.152 35.956 107.146C35.422 107.014 35.074 106.9 34.906 106.81C34.558 106.63 34.372 106.354 34.348 105.976V105.892C34.348 105.514 34.486 105.214 34.774 104.986C35.062 104.758 35.446 104.644 35.926 104.644C36.388 104.644 36.766 104.758 37.06 104.974C37.348 105.196 37.504 105.532 37.522 105.988Z" fill="black"/>
</svg>
