<svg width="176" height="136" viewBox="0 0 176 136" fill="none" xmlns="http://www.w3.org/2000/svg">
<path d="M0 16C0 7.16344 7.16344 0 16 0H160C168.837 0 176 7.16344 176 16V120C176 128.837 168.837 136 160 136H16C7.16344 136 0 128.837 0 120V16Z" fill="white"/>
<path d="M16 0.5H160C168.56 0.5 175.5 7.43959 175.5 16V120C175.5 128.56 168.56 135.5 160 135.5H16C7.43959 135.5 0.5 128.56 0.5 120V16C0.5 7.43959 7.43959 0.5 16 0.5Z" stroke="#B02E0C" stroke-opacity="0.16"/>
<path d="M20.9609 27.6504H155.039C158.524 27.6506 161.349 30.4759 161.35 33.9609V102.039C161.349 105.524 158.524 108.349 155.039 108.35H20.9609C17.4759 108.349 14.6506 105.524 14.6504 102.039V33.9609C14.6506 30.4759 17.4759 27.6506 20.9609 27.6504Z" stroke="#FF9411" stroke-width="1.30118"/>
<path d="M70.9609 27.6504H105.039C108.524 27.6506 111.349 30.4759 111.35 33.9609V102.039C111.349 105.524 108.524 108.349 105.039 108.35H70.9609C67.4759 108.349 64.6506 105.524 64.6504 102.039V33.9609C64.6506 30.4759 67.4759 27.6506 70.9609 27.6504Z" stroke="#FF9411" stroke-width="1.30118"/>
<path d="M45.9609 27.6504H131.039C134.524 27.6506 137.349 30.4759 137.35 33.9609V102.039C137.349 105.524 134.524 108.349 131.039 108.35H45.9609C42.4759 108.349 39.6506 105.524 39.6504 102.039V33.9609C39.6506 30.4759 42.4759 27.6506 45.9609 27.6504Z" stroke="#FF9411" stroke-width="1.30118"/>
<circle cx="25" cy="38" r="4.34738" stroke="black" stroke-width="1.30525"/>
<circle cx="50.1992" cy="38" r="4.34738" stroke="black" stroke-width="1.30525"/>
<circle cx="75.3984" cy="38" r="4.34738" stroke="black" stroke-width="1.30525"/>
<circle cx="100.602" cy="38" r="4.34738" stroke="black" stroke-width="1.30525"/>
<circle cx="125.801" cy="38" r="4.34738" stroke="black" stroke-width="1.30525"/>
<circle cx="151" cy="38" r="4.34738" stroke="black" stroke-width="1.30525"/>
<circle cx="25" cy="98" r="4.34738" stroke="black" stroke-width="1.30525"/>
<circle cx="50.1992" cy="98" r="4.34738" stroke="black" stroke-width="1.30525"/>
<circle cx="75.3984" cy="98" r="4.34738" stroke="black" stroke-width="1.30525"/>
<circle cx="100.602" cy="98" r="4.34738" stroke="black" stroke-width="1.30525"/>
<circle cx="125.801" cy="98" r="4.34738" stroke="black" stroke-width="1.30525"/>
<circle cx="151" cy="98" r="4.34738" stroke="black" stroke-width="1.30525"/>
<circle cx="25" cy="68" r="4.34738" stroke="black" stroke-width="1.30525"/>
<circle cx="151" cy="68" r="4.34738" stroke="black" stroke-width="1.30525"/>
<path d="M165.35 23.6504V112.35H10.6504V23.6504H165.35Z" stroke="black" stroke-width="1.30118"/>
<path d="M18.5018 47.0002C8.50217 23.5001 24.5019 26.0003 34.5014 33.5004" stroke="#B02E0C" stroke-width="1.62648" stroke-linecap="round"/>
<path d="M42.5018 47.0002C32.5022 23.5001 48.5019 26.0003 58.5014 33.5004" stroke="#B02E0C" stroke-width="1.62648" stroke-linecap="round"/>
<path d="M24.444 76.728H26.466C26.886 76.728 27.234 76.824 27.504 77.016C27.768 77.208 27.906 77.508 27.906 77.916C27.906 78.174 27.84 78.396 27.72 78.576C27.594 78.756 27.42 78.888 27.198 78.966C27.3 78.99 27.39 79.026 27.468 79.074C27.54 79.122 27.6 79.176 27.642 79.23C27.684 79.29 27.72 79.362 27.75 79.446C27.774 79.536 27.792 79.614 27.804 79.68C27.816 79.746 27.822 79.83 27.834 79.938C27.834 79.968 27.84 80.022 27.846 80.1C27.852 80.184 27.858 80.238 27.858 80.262C27.858 80.286 27.864 80.334 27.87 80.394C27.876 80.46 27.882 80.508 27.888 80.532C27.888 80.556 27.894 80.598 27.906 80.646C27.918 80.694 27.924 80.736 27.936 80.76C27.942 80.784 27.954 80.814 27.966 80.85C27.978 80.886 27.99 80.91 28.008 80.934C28.02 80.958 28.038 80.982 28.062 81H27.258C27.246 80.988 27.234 80.97 27.222 80.946C27.21 80.922 27.204 80.898 27.198 80.874C27.186 80.85 27.18 80.826 27.18 80.802C27.174 80.778 27.168 80.748 27.162 80.712C27.156 80.676 27.156 80.64 27.156 80.616L27.144 80.508L27.132 80.4C27.132 80.376 27.126 80.334 27.126 80.274C27.12 80.214 27.12 80.172 27.12 80.148C27.096 79.8 27.024 79.566 26.898 79.434C26.772 79.302 26.532 79.236 26.184 79.236H25.188V81H24.444V76.728ZM25.188 77.34V78.678H26.178C26.322 78.678 26.442 78.672 26.544 78.654C26.64 78.642 26.742 78.612 26.844 78.57C26.946 78.528 27.024 78.456 27.078 78.36C27.132 78.264 27.162 78.144 27.162 77.994C27.162 77.862 27.138 77.748 27.09 77.658C27.042 77.568 26.97 77.502 26.88 77.454C26.79 77.412 26.7 77.382 26.604 77.364C26.508 77.352 26.4 77.34 26.274 77.34H25.188ZM30.4866 76.776V81H29.7546V78.096H28.7106V77.592C29.4366 77.592 29.8446 77.322 29.9346 76.776H30.4866Z" fill="#060C12"/>
<path d="M15 79L17.2982 80.3269V77.6731L15 79ZM23 79.2298H23.2298V78.7702H23V79.2298ZM17.0684 79V79.2298H23V79V78.7702H17.0684V79Z" fill="black"/>
<path d="M49.444 76.728H51.466C51.886 76.728 52.234 76.824 52.504 77.016C52.768 77.208 52.906 77.508 52.906 77.916C52.906 78.174 52.84 78.396 52.72 78.576C52.594 78.756 52.42 78.888 52.198 78.966C52.3 78.99 52.39 79.026 52.468 79.074C52.54 79.122 52.6 79.176 52.642 79.23C52.684 79.29 52.72 79.362 52.75 79.446C52.774 79.536 52.792 79.614 52.804 79.68C52.816 79.746 52.822 79.83 52.834 79.938C52.834 79.968 52.84 80.022 52.846 80.1C52.852 80.184 52.858 80.238 52.858 80.262C52.858 80.286 52.864 80.334 52.87 80.394C52.876 80.46 52.882 80.508 52.888 80.532C52.888 80.556 52.894 80.598 52.906 80.646C52.918 80.694 52.924 80.736 52.936 80.76C52.942 80.784 52.954 80.814 52.966 80.85C52.978 80.886 52.99 80.91 53.008 80.934C53.02 80.958 53.038 80.982 53.062 81H52.258C52.246 80.988 52.234 80.97 52.222 80.946C52.21 80.922 52.204 80.898 52.198 80.874C52.186 80.85 52.18 80.826 52.18 80.802C52.174 80.778 52.168 80.748 52.162 80.712C52.156 80.676 52.156 80.64 52.156 80.616L52.144 80.508L52.132 80.4C52.132 80.376 52.126 80.334 52.126 80.274C52.12 80.214 52.12 80.172 52.12 80.148C52.096 79.8 52.024 79.566 51.898 79.434C51.772 79.302 51.532 79.236 51.184 79.236H50.188V81H49.444V76.728ZM50.188 77.34V78.678H51.178C51.322 78.678 51.442 78.672 51.544 78.654C51.64 78.642 51.742 78.612 51.844 78.57C51.946 78.528 52.024 78.456 52.078 78.36C52.132 78.264 52.162 78.144 52.162 77.994C52.162 77.862 52.138 77.748 52.09 77.658C52.042 77.568 51.97 77.502 51.88 77.454C51.79 77.412 51.7 77.382 51.604 77.364C51.508 77.352 51.4 77.34 51.274 77.34H50.188ZM56.2306 80.394V81H53.3626C53.3626 80.814 53.3926 80.64 53.4406 80.484C53.4886 80.328 53.5426 80.196 53.6026 80.088C53.6626 79.98 53.7586 79.866 53.8786 79.752C53.9986 79.638 54.1126 79.542 54.2086 79.47C54.3046 79.398 54.4426 79.302 54.6166 79.182C54.6286 79.176 54.6826 79.14 54.7906 79.068C54.8986 78.996 54.9646 78.954 54.9886 78.936C55.0126 78.918 55.0666 78.876 55.1506 78.81C55.2346 78.744 55.2886 78.69 55.3126 78.648C55.3366 78.612 55.3726 78.558 55.4206 78.486C55.4686 78.42 55.4986 78.354 55.5166 78.282C55.5286 78.21 55.5406 78.138 55.5406 78.054C55.5406 77.838 55.4746 77.664 55.3546 77.538C55.2346 77.412 55.0666 77.346 54.8626 77.346C54.7426 77.346 54.6346 77.37 54.5506 77.406C54.4606 77.442 54.3886 77.49 54.3406 77.55C54.2926 77.61 54.2506 77.688 54.2206 77.784C54.1846 77.88 54.1666 77.964 54.1546 78.048C54.1426 78.132 54.1366 78.234 54.1366 78.342H53.4706V78.234C53.4706 77.784 53.5966 77.424 53.8486 77.16C54.1006 76.896 54.4486 76.758 54.8806 76.758C55.2886 76.758 55.6126 76.878 55.8646 77.106C56.1106 77.334 56.2366 77.64 56.2366 78.018C56.2366 78.174 56.2126 78.318 56.1646 78.45C56.1166 78.588 56.0626 78.696 56.0086 78.78C55.9546 78.864 55.8646 78.966 55.7326 79.074C55.6006 79.188 55.4986 79.266 55.4386 79.308C55.3726 79.356 55.2526 79.434 55.0846 79.548C54.5806 79.872 54.2806 80.154 54.1846 80.394H56.2306Z" fill="#060C12"/>
<path d="M40 79L42.2982 80.3269V77.6731L40 79ZM48 79.2298H48.2298V78.7702H48V79.2298ZM42.0684 79V79.2298H48V79V78.7702H42.0684V79Z" fill="black"/>
<path d="M74.444 76.728H76.466C76.886 76.728 77.234 76.824 77.504 77.016C77.768 77.208 77.906 77.508 77.906 77.916C77.906 78.174 77.84 78.396 77.72 78.576C77.594 78.756 77.42 78.888 77.198 78.966C77.3 78.99 77.39 79.026 77.468 79.074C77.54 79.122 77.6 79.176 77.642 79.23C77.684 79.29 77.72 79.362 77.75 79.446C77.774 79.536 77.792 79.614 77.804 79.68C77.816 79.746 77.822 79.83 77.834 79.938C77.834 79.968 77.84 80.022 77.846 80.1C77.852 80.184 77.858 80.238 77.858 80.262C77.858 80.286 77.864 80.334 77.87 80.394C77.876 80.46 77.882 80.508 77.888 80.532C77.888 80.556 77.894 80.598 77.906 80.646C77.918 80.694 77.924 80.736 77.936 80.76C77.942 80.784 77.954 80.814 77.966 80.85C77.978 80.886 77.99 80.91 78.008 80.934C78.02 80.958 78.038 80.982 78.062 81H77.258C77.246 80.988 77.234 80.97 77.222 80.946C77.21 80.922 77.204 80.898 77.198 80.874C77.186 80.85 77.18 80.826 77.18 80.802C77.174 80.778 77.168 80.748 77.162 80.712C77.156 80.676 77.156 80.64 77.156 80.616L77.144 80.508L77.132 80.4C77.132 80.376 77.126 80.334 77.126 80.274C77.12 80.214 77.12 80.172 77.12 80.148C77.096 79.8 77.024 79.566 76.898 79.434C76.772 79.302 76.532 79.236 76.184 79.236H75.188V81H74.444V76.728ZM75.188 77.34V78.678H76.178C76.322 78.678 76.442 78.672 76.544 78.654C76.64 78.642 76.742 78.612 76.844 78.57C76.946 78.528 77.024 78.456 77.078 78.36C77.132 78.264 77.162 78.144 77.162 77.994C77.162 77.862 77.138 77.748 77.09 77.658C77.042 77.568 76.97 77.502 76.88 77.454C76.79 77.412 76.7 77.382 76.604 77.364C76.508 77.352 76.4 77.34 76.274 77.34H75.188ZM78.4886 78.15C78.5006 77.718 78.6266 77.382 78.8726 77.13C79.1126 76.884 79.4426 76.758 79.8566 76.758C80.2406 76.758 80.5586 76.866 80.7986 77.07C81.0386 77.28 81.1586 77.55 81.1586 77.886C81.1586 78.09 81.1046 78.27 80.9966 78.426C80.8886 78.582 80.7506 78.684 80.5706 78.744C80.8046 78.804 80.9906 78.924 81.1286 79.098C81.2606 79.272 81.3326 79.482 81.3326 79.734C81.3326 80.136 81.1946 80.46 80.9186 80.712C80.6426 80.964 80.2826 81.09 79.8446 81.09C79.4066 81.09 79.0526 80.964 78.7886 80.712C78.5186 80.46 78.3866 80.13 78.3866 79.71V79.62H79.0466C79.0646 80.208 79.3346 80.502 79.8626 80.502C80.0906 80.502 80.2766 80.436 80.4146 80.304C80.5466 80.172 80.6186 79.986 80.6186 79.752C80.6186 79.512 80.5406 79.332 80.3846 79.218C80.2286 79.11 80.0246 79.05 79.7786 79.05C79.7006 79.05 79.6286 79.056 79.5626 79.056V78.54H79.6226C79.7426 78.54 79.8506 78.534 79.9406 78.522C80.0246 78.51 80.1146 78.48 80.2046 78.444C80.2946 78.408 80.3666 78.342 80.4146 78.258C80.4626 78.174 80.4866 78.066 80.4866 77.934C80.4866 77.754 80.4266 77.604 80.3126 77.49C80.1926 77.382 80.0366 77.322 79.8446 77.322C79.3946 77.322 79.1606 77.598 79.1426 78.15H78.4886Z" fill="#060C12"/>
<path d="M65 79L67.2982 80.3269V77.6731L65 79ZM73 79.2298H73.2298V78.7702H73V79.2298ZM67.0684 79V79.2298H73V79V78.7702H67.0684V79Z" fill="black"/>
<path d="M145.991 46.304H148.159C148.551 46.304 148.895 46.352 149.199 46.432C149.495 46.512 149.767 46.664 150.023 46.888C150.583 47.392 150.863 48.112 150.863 49.056C150.863 50.064 150.591 50.84 150.063 51.368C149.823 51.608 149.567 51.768 149.295 51.864C149.023 51.96 148.663 52 148.215 52H145.991V46.304ZM146.983 47.152V51.16H148.159C148.783 51.16 149.223 50.984 149.479 50.616C149.735 50.256 149.863 49.752 149.863 49.104C149.863 48.496 149.719 48.016 149.431 47.672C149.143 47.328 148.695 47.152 148.095 47.152H146.983ZM154.18 46.368V52H153.204V48.128H151.812V47.456C152.78 47.456 153.324 47.096 153.444 46.368H154.18Z" fill="black"/>
<path d="M120.991 54.304H123.159C123.551 54.304 123.895 54.352 124.199 54.432C124.495 54.512 124.767 54.664 125.023 54.888C125.583 55.392 125.863 56.112 125.863 57.056C125.863 58.064 125.591 58.84 125.063 59.368C124.823 59.608 124.567 59.768 124.295 59.864C124.023 59.96 123.663 60 123.215 60H120.991V54.304ZM121.983 55.152V59.16H123.159C123.783 59.16 124.223 58.984 124.479 58.616C124.735 58.256 124.863 57.752 124.863 57.104C124.863 56.496 124.719 56.016 124.431 55.672C124.143 55.328 123.695 55.152 123.095 55.152H121.983ZM130.172 59.192V60H126.348C126.348 59.752 126.388 59.52 126.452 59.312C126.516 59.104 126.588 58.928 126.668 58.784C126.748 58.64 126.876 58.488 127.036 58.336C127.196 58.184 127.348 58.056 127.476 57.96C127.604 57.864 127.788 57.736 128.02 57.576C128.036 57.568 128.108 57.52 128.252 57.424C128.396 57.328 128.484 57.272 128.516 57.248C128.548 57.224 128.62 57.168 128.732 57.08C128.844 56.992 128.916 56.92 128.948 56.864C128.98 56.816 129.028 56.744 129.092 56.648C129.156 56.56 129.196 56.472 129.22 56.376C129.236 56.28 129.252 56.184 129.252 56.072C129.252 55.784 129.164 55.552 129.004 55.384C128.844 55.216 128.62 55.128 128.348 55.128C128.188 55.128 128.044 55.16 127.932 55.208C127.812 55.256 127.716 55.32 127.652 55.4C127.588 55.48 127.532 55.584 127.492 55.712C127.444 55.84 127.42 55.952 127.404 56.064C127.388 56.176 127.38 56.312 127.38 56.456H126.492V56.312C126.492 55.712 126.66 55.232 126.996 54.88C127.332 54.528 127.796 54.344 128.372 54.344C128.916 54.344 129.348 54.504 129.684 54.808C130.012 55.112 130.18 55.52 130.18 56.024C130.18 56.232 130.148 56.424 130.084 56.6C130.02 56.784 129.948 56.928 129.876 57.04C129.804 57.152 129.684 57.288 129.508 57.432C129.332 57.584 129.196 57.688 129.116 57.744C129.028 57.808 128.868 57.912 128.644 58.064C127.972 58.496 127.572 58.872 127.444 59.192H130.172Z" fill="black"/>
<path d="M95.9906 54.304H98.1586C98.5506 54.304 98.8946 54.352 99.1986 54.432C99.4946 54.512 99.7666 54.664 100.023 54.888C100.583 55.392 100.863 56.112 100.863 57.056C100.863 58.064 100.591 58.84 100.063 59.368C99.8226 59.608 99.5666 59.768 99.2946 59.864C99.0226 59.96 98.6626 60 98.2146 60H95.9906V54.304ZM96.9826 55.152V59.16H98.1586C98.7826 59.16 99.2226 58.984 99.4786 58.616C99.7346 58.256 99.8626 57.752 99.8626 57.104C99.8626 56.496 99.7186 56.016 99.4306 55.672C99.1426 55.328 98.6946 55.152 98.0946 55.152H96.9826ZM105.172 59.192V60H101.348C101.348 59.752 101.388 59.52 101.452 59.312C101.516 59.104 101.588 58.928 101.668 58.784C101.748 58.64 101.876 58.488 102.036 58.336C102.196 58.184 102.348 58.056 102.476 57.96C102.604 57.864 102.788 57.736 103.02 57.576C103.036 57.568 103.108 57.52 103.252 57.424C103.396 57.328 103.484 57.272 103.516 57.248C103.548 57.224 103.62 57.168 103.732 57.08C103.844 56.992 103.916 56.92 103.948 56.864C103.98 56.816 104.028 56.744 104.092 56.648C104.156 56.56 104.196 56.472 104.22 56.376C104.236 56.28 104.252 56.184 104.252 56.072C104.252 55.784 104.164 55.552 104.004 55.384C103.844 55.216 103.62 55.128 103.348 55.128C103.188 55.128 103.044 55.16 102.932 55.208C102.812 55.256 102.716 55.32 102.652 55.4C102.588 55.48 102.532 55.584 102.492 55.712C102.444 55.84 102.42 55.952 102.404 56.064C102.388 56.176 102.38 56.312 102.38 56.456H101.492V56.312C101.492 55.712 101.66 55.232 101.996 54.88C102.332 54.528 102.796 54.344 103.372 54.344C103.916 54.344 104.348 54.504 104.684 54.808C105.012 55.112 105.18 55.52 105.18 56.024C105.18 56.232 105.148 56.424 105.084 56.6C105.02 56.784 104.948 56.928 104.876 57.04C104.804 57.152 104.684 57.288 104.508 57.432C104.332 57.584 104.196 57.688 104.116 57.744C104.028 57.808 103.868 57.912 103.644 58.064C102.972 58.496 102.572 58.872 102.444 59.192H105.172Z" fill="black"/>
<path d="M84.3234 121L85.8474 118.786L84.4314 116.728H85.3254L86.2974 118.24L87.3114 116.728H88.1514L86.7354 118.786L88.2534 121H87.3414L86.2734 119.368L85.1874 121H84.3234Z" fill="#060C12"/>
<path d="M10.0024 119L12.3007 120.327V117.673L10.0024 119ZM81.4414 119.23H81.6712V118.77H81.4414V119.23ZM12.0709 119V119.23H81.4414V119V118.77H12.0709V119Z" fill="black"/>
<path d="M166.001 119L163.703 120.327V117.673L166.001 119ZM94.5625 119.23H94.3327V118.77H94.5625V119.23ZM163.933 119V119.23H94.5625V119V118.77H163.933V119Z" fill="black"/>
<path d="M170.93 65.728L169.322 68.302V70H168.584V68.302L166.97 65.728H167.834L168.968 67.618L170.09 65.728H170.93Z" fill="#060C12"/>
<path d="M168.727 22.9999L170.053 25.2981L167.4 25.2981L168.727 22.9999ZM168.956 64.2148L168.956 64.4447L168.497 64.4447L168.497 64.2148L168.956 64.2148ZM168.727 25.0683L168.956 25.0683L168.956 64.2148L168.727 64.2148L168.497 64.2148L168.497 25.0683L168.727 25.0683Z" fill="black"/>
<path d="M168.727 113L170.053 110.702L167.4 110.702L168.727 113ZM168.956 71.7849L168.956 71.5551L168.497 71.5551L168.497 71.7849L168.956 71.7849ZM168.727 110.931L168.956 110.931L168.956 71.7849L168.727 71.7849L168.497 71.7849L168.497 110.931L168.727 110.931Z" fill="black"/>
</svg>
