<svg width="176" height="136" viewBox="0 0 176 136" fill="none" xmlns="http://www.w3.org/2000/svg">
<path d="M0 16C0 7.16344 7.16344 0 16 0H160C168.837 0 176 7.16344 176 16V120C176 128.837 168.837 136 160 136H16C7.16344 136 0 128.837 0 120V16Z" fill="white"/>
<path d="M16 0.5H160C168.56 0.5 175.5 7.43959 175.5 16V120C175.5 128.56 168.56 135.5 160 135.5H16C7.43959 135.5 0.5 128.56 0.5 120V16C0.5 7.43959 7.43959 0.5 16 0.5Z" stroke="#B02E0C" stroke-opacity="0.16"/>
<path d="M164.375 24.6421V110.358H9.52148V24.6421H164.375Z" stroke="black" stroke-width="1.30118"/>
<path d="M21.9609 30.6504H152.039C155.524 30.6506 158.349 33.4759 158.35 36.9609V98.0391C158.349 101.524 155.524 104.349 152.039 104.35H21.9609C18.4759 104.349 15.6506 101.524 15.6504 98.0391V36.9609C15.6506 33.4759 18.4759 30.6506 21.9609 30.6504Z" stroke="#FF9411" stroke-width="1.30118"/>
<circle cx="25.6037" cy="41.695" r="6.02915" stroke="black" stroke-width="1.30525"/>
<circle cx="25.6037" cy="93.695" r="6.02915" stroke="black" stroke-width="1.30525"/>
<circle cx="56.6818" cy="41.6818" r="6.02915" stroke="black" stroke-width="1.30525"/>
<circle cx="56.6818" cy="93.6818" r="6.02915" stroke="black" stroke-width="1.30525"/>
<circle cx="113.682" cy="41.6818" r="6.02915" stroke="black" stroke-width="1.30525"/>
<circle cx="84.5" cy="41.5" r="3.84738" stroke="black" stroke-width="1.30525"/>
<circle cx="84.5" cy="93.5" r="3.84738" stroke="black" stroke-width="1.30525"/>
<circle cx="113.682" cy="93.6818" r="6.02915" stroke="black" stroke-width="1.30525"/>
<circle cx="144.44" cy="41.6818" r="6.02915" stroke="black" stroke-width="1.30525"/>
<circle cx="144.44" cy="93.6818" r="6.02915" stroke="black" stroke-width="1.30525"/>
<path d="M19.3686 53.1486C9.0418 29.0007 19.3689 25.7377 39.5691 38.3552" stroke="#B02E0C" stroke-width="1.62648" stroke-linecap="round"/>
<path d="M110.618 51.728H112.244C112.538 51.728 112.796 51.764 113.024 51.824C113.246 51.884 113.45 51.998 113.642 52.166C114.062 52.544 114.272 53.084 114.272 53.792C114.272 54.548 114.068 55.13 113.672 55.526C113.492 55.706 113.3 55.826 113.096 55.898C112.892 55.97 112.622 56 112.286 56H110.618V51.728ZM111.362 52.364V55.37H112.244C112.712 55.37 113.042 55.238 113.234 54.962C113.426 54.692 113.522 54.314 113.522 53.828C113.522 53.372 113.414 53.012 113.198 52.754C112.982 52.496 112.646 52.364 112.196 52.364H111.362ZM117.504 55.394V56H114.636C114.636 55.814 114.666 55.64 114.714 55.484C114.762 55.328 114.816 55.196 114.876 55.088C114.936 54.98 115.032 54.866 115.152 54.752C115.272 54.638 115.386 54.542 115.482 54.47C115.578 54.398 115.716 54.302 115.89 54.182C115.902 54.176 115.956 54.14 116.064 54.068C116.172 53.996 116.238 53.954 116.262 53.936C116.286 53.918 116.34 53.876 116.424 53.81C116.508 53.744 116.562 53.69 116.586 53.648C116.61 53.612 116.646 53.558 116.694 53.486C116.742 53.42 116.772 53.354 116.79 53.282C116.802 53.21 116.814 53.138 116.814 53.054C116.814 52.838 116.748 52.664 116.628 52.538C116.508 52.412 116.34 52.346 116.136 52.346C116.016 52.346 115.908 52.37 115.824 52.406C115.734 52.442 115.662 52.49 115.614 52.55C115.566 52.61 115.524 52.688 115.494 52.784C115.458 52.88 115.44 52.964 115.428 53.048C115.416 53.132 115.41 53.234 115.41 53.342H114.744V53.234C114.744 52.784 114.87 52.424 115.122 52.16C115.374 51.896 115.722 51.758 116.154 51.758C116.562 51.758 116.886 51.878 117.138 52.106C117.384 52.334 117.51 52.64 117.51 53.018C117.51 53.174 117.486 53.318 117.438 53.45C117.39 53.588 117.336 53.696 117.282 53.78C117.228 53.864 117.138 53.966 117.006 54.074C116.874 54.188 116.772 54.266 116.712 54.308C116.646 54.356 116.526 54.434 116.358 54.548C115.854 54.872 115.554 55.154 115.458 55.394H117.504Z" fill="black"/>
<path d="M140.618 51.728H142.244C142.538 51.728 142.796 51.764 143.024 51.824C143.246 51.884 143.45 51.998 143.642 52.166C144.062 52.544 144.272 53.084 144.272 53.792C144.272 54.548 144.068 55.13 143.672 55.526C143.492 55.706 143.3 55.826 143.096 55.898C142.892 55.97 142.622 56 142.286 56H140.618V51.728ZM141.362 52.364V55.37H142.244C142.712 55.37 143.042 55.238 143.234 54.962C143.426 54.692 143.522 54.314 143.522 53.828C143.522 53.372 143.414 53.012 143.198 52.754C142.982 52.496 142.646 52.364 142.196 52.364H141.362ZM146.76 51.776V56H146.028V53.096H144.984V52.592C145.71 52.592 146.118 52.322 146.208 51.776H146.76Z" fill="black"/>
<path d="M29.444 64.728H31.466C31.886 64.728 32.234 64.824 32.504 65.016C32.768 65.208 32.906 65.508 32.906 65.916C32.906 66.174 32.84 66.396 32.72 66.576C32.594 66.756 32.42 66.888 32.198 66.966C32.3 66.99 32.39 67.026 32.468 67.074C32.54 67.122 32.6 67.176 32.642 67.23C32.684 67.29 32.72 67.362 32.75 67.446C32.774 67.536 32.792 67.614 32.804 67.68C32.816 67.746 32.822 67.83 32.834 67.938C32.834 67.968 32.84 68.022 32.846 68.1C32.852 68.184 32.858 68.238 32.858 68.262C32.858 68.286 32.864 68.334 32.87 68.394C32.876 68.46 32.882 68.508 32.888 68.532C32.888 68.556 32.894 68.598 32.906 68.646C32.918 68.694 32.924 68.736 32.936 68.76C32.942 68.784 32.954 68.814 32.966 68.85C32.978 68.886 32.99 68.91 33.008 68.934C33.02 68.958 33.038 68.982 33.062 69H32.258C32.246 68.988 32.234 68.97 32.222 68.946C32.21 68.922 32.204 68.898 32.198 68.874C32.186 68.85 32.18 68.826 32.18 68.802C32.174 68.778 32.168 68.748 32.162 68.712C32.156 68.676 32.156 68.64 32.156 68.616L32.144 68.508L32.132 68.4C32.132 68.376 32.126 68.334 32.126 68.274C32.12 68.214 32.12 68.172 32.12 68.148C32.096 67.8 32.024 67.566 31.898 67.434C31.772 67.302 31.532 67.236 31.184 67.236H30.188V69H29.444V64.728ZM30.188 65.34V66.678H31.178C31.322 66.678 31.442 66.672 31.544 66.654C31.64 66.642 31.742 66.612 31.844 66.57C31.946 66.528 32.024 66.456 32.078 66.36C32.132 66.264 32.162 66.144 32.162 65.994C32.162 65.862 32.138 65.748 32.09 65.658C32.042 65.568 31.97 65.502 31.88 65.454C31.79 65.412 31.7 65.382 31.604 65.364C31.508 65.352 31.4 65.34 31.274 65.34H30.188Z" fill="#060C12"/>
<path d="M16 67L18.2982 65.6731V68.3269L16 67ZM27.5 66.7702H27.7298V67.2298H27.5V66.7702ZM18.0684 67V66.7702H27.5V67V67.2298H18.0684V67Z" fill="black"/>
<path d="M56.444 64.728H58.466C58.886 64.728 59.234 64.824 59.504 65.016C59.768 65.208 59.906 65.508 59.906 65.916C59.906 66.174 59.84 66.396 59.72 66.576C59.594 66.756 59.42 66.888 59.198 66.966C59.3 66.99 59.39 67.026 59.468 67.074C59.54 67.122 59.6 67.176 59.642 67.23C59.684 67.29 59.72 67.362 59.75 67.446C59.774 67.536 59.792 67.614 59.804 67.68C59.816 67.746 59.822 67.83 59.834 67.938C59.834 67.968 59.84 68.022 59.846 68.1C59.852 68.184 59.858 68.238 59.858 68.262C59.858 68.286 59.864 68.334 59.87 68.394C59.876 68.46 59.882 68.508 59.888 68.532C59.888 68.556 59.894 68.598 59.906 68.646C59.918 68.694 59.924 68.736 59.936 68.76C59.942 68.784 59.954 68.814 59.966 68.85C59.978 68.886 59.99 68.91 60.008 68.934C60.02 68.958 60.038 68.982 60.062 69H59.258C59.246 68.988 59.234 68.97 59.222 68.946C59.21 68.922 59.204 68.898 59.198 68.874C59.186 68.85 59.18 68.826 59.18 68.802C59.174 68.778 59.168 68.748 59.162 68.712C59.156 68.676 59.156 68.64 59.156 68.616L59.144 68.508L59.132 68.4C59.132 68.376 59.126 68.334 59.126 68.274C59.12 68.214 59.12 68.172 59.12 68.148C59.096 67.8 59.024 67.566 58.898 67.434C58.772 67.302 58.532 67.236 58.184 67.236H57.188V69H56.444V64.728ZM57.188 65.34V66.678H58.178C58.322 66.678 58.442 66.672 58.544 66.654C58.64 66.642 58.742 66.612 58.844 66.57C58.946 66.528 59.024 66.456 59.078 66.36C59.132 66.264 59.162 66.144 59.162 65.994C59.162 65.862 59.138 65.748 59.09 65.658C59.042 65.568 58.97 65.502 58.88 65.454C58.79 65.412 58.7 65.382 58.604 65.364C58.508 65.352 58.4 65.34 58.274 65.34H57.188ZM63.2306 68.394V69H60.3626C60.3626 68.814 60.3926 68.64 60.4406 68.484C60.4886 68.328 60.5426 68.196 60.6026 68.088C60.6626 67.98 60.7586 67.866 60.8786 67.752C60.9986 67.638 61.1126 67.542 61.2086 67.47C61.3046 67.398 61.4426 67.302 61.6166 67.182C61.6286 67.176 61.6826 67.14 61.7906 67.068C61.8986 66.996 61.9646 66.954 61.9886 66.936C62.0126 66.918 62.0666 66.876 62.1506 66.81C62.2346 66.744 62.2886 66.69 62.3126 66.648C62.3366 66.612 62.3726 66.558 62.4206 66.486C62.4686 66.42 62.4986 66.354 62.5166 66.282C62.5286 66.21 62.5406 66.138 62.5406 66.054C62.5406 65.838 62.4746 65.664 62.3546 65.538C62.2346 65.412 62.0666 65.346 61.8626 65.346C61.7426 65.346 61.6346 65.37 61.5506 65.406C61.4606 65.442 61.3886 65.49 61.3406 65.55C61.2926 65.61 61.2506 65.688 61.2206 65.784C61.1846 65.88 61.1666 65.964 61.1546 66.048C61.1426 66.132 61.1366 66.234 61.1366 66.342H60.4706V66.234C60.4706 65.784 60.5966 65.424 60.8486 65.16C61.1006 64.896 61.4486 64.758 61.8806 64.758C62.2886 64.758 62.6126 64.878 62.8646 65.106C63.1106 65.334 63.2366 65.64 63.2366 66.018C63.2366 66.174 63.2126 66.318 63.1646 66.45C63.1166 66.588 63.0626 66.696 63.0086 66.78C62.9546 66.864 62.8646 66.966 62.7326 67.074C62.6006 67.188 62.4986 67.266 62.4386 67.308C62.3726 67.356 62.2526 67.434 62.0846 67.548C61.5806 67.872 61.2806 68.154 61.1846 68.394H63.2306Z" fill="#060C12"/>
<path d="M43 67L45.2982 65.6731V68.3269L43 67ZM54.5 66.7702H54.7298V67.2298H54.5V66.7702ZM45.0684 67V66.7702H54.5V67V67.2298H45.0684V67Z" fill="black"/>
<path d="M86.444 64.728H88.466C88.886 64.728 89.234 64.824 89.504 65.016C89.768 65.208 89.906 65.508 89.906 65.916C89.906 66.174 89.84 66.396 89.72 66.576C89.594 66.756 89.42 66.888 89.198 66.966C89.3 66.99 89.39 67.026 89.468 67.074C89.54 67.122 89.6 67.176 89.642 67.23C89.684 67.29 89.72 67.362 89.75 67.446C89.774 67.536 89.792 67.614 89.804 67.68C89.816 67.746 89.822 67.83 89.834 67.938C89.834 67.968 89.84 68.022 89.846 68.1C89.852 68.184 89.858 68.238 89.858 68.262C89.858 68.286 89.864 68.334 89.87 68.394C89.876 68.46 89.882 68.508 89.888 68.532C89.888 68.556 89.894 68.598 89.906 68.646C89.918 68.694 89.924 68.736 89.936 68.76C89.942 68.784 89.954 68.814 89.966 68.85C89.978 68.886 89.99 68.91 90.008 68.934C90.02 68.958 90.038 68.982 90.062 69H89.258C89.246 68.988 89.234 68.97 89.222 68.946C89.21 68.922 89.204 68.898 89.198 68.874C89.186 68.85 89.18 68.826 89.18 68.802C89.174 68.778 89.168 68.748 89.162 68.712C89.156 68.676 89.156 68.64 89.156 68.616L89.144 68.508L89.132 68.4C89.132 68.376 89.126 68.334 89.126 68.274C89.12 68.214 89.12 68.172 89.12 68.148C89.096 67.8 89.024 67.566 88.898 67.434C88.772 67.302 88.532 67.236 88.184 67.236H87.188V69H86.444V64.728ZM87.188 65.34V66.678H88.178C88.322 66.678 88.442 66.672 88.544 66.654C88.64 66.642 88.742 66.612 88.844 66.57C88.946 66.528 89.024 66.456 89.078 66.36C89.132 66.264 89.162 66.144 89.162 65.994C89.162 65.862 89.138 65.748 89.09 65.658C89.042 65.568 88.97 65.502 88.88 65.454C88.79 65.412 88.7 65.382 88.604 65.364C88.508 65.352 88.4 65.34 88.274 65.34H87.188ZM90.4886 66.15C90.5006 65.718 90.6266 65.382 90.8726 65.13C91.1126 64.884 91.4426 64.758 91.8566 64.758C92.2406 64.758 92.5586 64.866 92.7986 65.07C93.0386 65.28 93.1586 65.55 93.1586 65.886C93.1586 66.09 93.1046 66.27 92.9966 66.426C92.8886 66.582 92.7506 66.684 92.5706 66.744C92.8046 66.804 92.9906 66.924 93.1286 67.098C93.2606 67.272 93.3326 67.482 93.3326 67.734C93.3326 68.136 93.1946 68.46 92.9186 68.712C92.6426 68.964 92.2826 69.09 91.8446 69.09C91.4066 69.09 91.0526 68.964 90.7886 68.712C90.5186 68.46 90.3866 68.13 90.3866 67.71V67.62H91.0466C91.0646 68.208 91.3346 68.502 91.8626 68.502C92.0906 68.502 92.2766 68.436 92.4146 68.304C92.5466 68.172 92.6186 67.986 92.6186 67.752C92.6186 67.512 92.5406 67.332 92.3846 67.218C92.2286 67.11 92.0246 67.05 91.7786 67.05C91.7006 67.05 91.6286 67.056 91.5626 67.056V66.54H91.6226C91.7426 66.54 91.8506 66.534 91.9406 66.522C92.0246 66.51 92.1146 66.48 92.2046 66.444C92.2946 66.408 92.3666 66.342 92.4146 66.258C92.4626 66.174 92.4866 66.066 92.4866 65.934C92.4866 65.754 92.4266 65.604 92.3126 65.49C92.1926 65.382 92.0366 65.322 91.8446 65.322C91.3946 65.322 91.1606 65.598 91.1426 66.15H90.4886Z" fill="#060C12"/>
<path d="M73 67L75.2982 65.6731V68.3269L73 67ZM84.5 66.7702H84.7298V67.2298H84.5V66.7702ZM75.0684 67V66.7702H84.5V67V67.2298H75.0684V67Z" fill="black"/>
<path d="M83.3195 118L84.8435 115.786L83.4275 113.728H84.3215L85.2935 115.24L86.3075 113.728H87.1475L85.7315 115.786L87.2495 118H86.3375L85.2695 116.368L84.1835 118H83.3195Z" fill="#060C12"/>
<path d="M8.99838 116L11.2966 117.327V114.673L8.99838 116ZM80.4375 116.23H80.6673V115.77H80.4375V116.23ZM11.0668 116V116.23H80.4375V116V115.77H11.0668V116Z" fill="black"/>
<path d="M165.002 116L162.703 117.327V114.673L165.002 116ZM93.5625 116.23H93.3327V115.77H93.5625V116.23ZM162.933 116V116.23H93.5625V116V115.77H162.933V116Z" fill="black"/>
<mask id="path-27-inside-1_1643_141587" fill="white">
<path d="M42 37C42 33.134 45.134 30 49 30H72V105H49C45.134 105 42 101.866 42 98V37Z"/>
</mask>
<path d="M41 37C41 32.5817 44.5817 29 49 29H72V31H49C45.6863 31 43 33.6863 43 37H41ZM72 106H49C44.5817 106 41 102.418 41 98H43C43 101.314 45.6863 104 49 104H72V106ZM49 106C44.5817 106 41 102.418 41 98V37C41 32.5817 44.5817 29 49 29V31C45.6863 31 43 33.6863 43 37V98C43 101.314 45.6863 104 49 104V106ZM72 30V105V30Z" fill="#FF9411" mask="url(#path-27-inside-1_1643_141587)"/>
<path d="M46.3686 52.1486C36.0418 28.0007 46.3689 24.7377 66.5691 37.3552" stroke="#B02E0C" stroke-width="1.62648" stroke-linecap="round"/>
<path d="M90 37.5C87 33.5 75.5 29.0001 75.5 37.0001V97C75.5 104 84 108 91.5 94.5" stroke="#B02E0C" stroke-linecap="round"/>
<rect x="75.5" y="30.5" width="50" height="74" rx="6.5" stroke="#FF9411"/>
</svg>
