<svg width="176" height="136" viewBox="0 0 176 136" fill="none" xmlns="http://www.w3.org/2000/svg">
<path d="M0 16C0 7.16344 7.16344 0 16 0H160C168.837 0 176 7.16344 176 16V120C176 128.837 168.837 136 160 136H16C7.16344 136 0 128.837 0 120V16Z" fill="white"/>
<path d="M16 0.5H160C168.56 0.5 175.5 7.43959 175.5 16V120C175.5 128.56 168.56 135.5 160 135.5H16C7.43959 135.5 0.5 128.56 0.5 120V16C0.5 7.43959 7.43959 0.5 16 0.5Z" stroke="#B02E0C" stroke-opacity="0.16"/>
<path d="M141.2 15.7998V121.2H35.7998V15.7998H141.2Z" stroke="black" stroke-width="1.6"/>
<path d="M51.583 23.825H125.413C129.699 23.825 133.174 27.2992 133.174 31.5847V105.415C133.174 109.701 129.699 113.176 125.413 113.176H51.583C47.2975 113.175 43.8232 109.7 43.8232 105.415V31.5847C43.8235 27.2993 47.2976 23.8252 51.583 23.825Z" stroke="#FF9411" stroke-width="1.6"/>
<path d="M56.9355 30.2478C60.6025 30.2479 63.623 33.335 63.623 37.2029C63.6229 41.0706 60.6024 44.1578 56.9355 44.158C53.2686 44.158 50.2482 41.0707 50.248 37.2029C50.248 33.335 53.2685 30.2478 56.9355 30.2478Z" stroke="black" stroke-width="1.605"/>
<path d="M56.9355 92.8425C60.6025 92.8427 63.623 95.9298 63.623 99.7976C63.6229 103.665 60.6024 106.753 56.9355 106.753C53.2686 106.753 50.2482 103.665 50.248 99.7976C50.248 95.9297 53.2685 92.8425 56.9355 92.8425Z" stroke="black" stroke-width="1.605"/>
<path d="M120.064 30.2478C123.731 30.2479 126.752 33.335 126.752 37.2029C126.752 41.0706 123.731 44.1578 120.064 44.158C116.397 44.158 113.377 41.0707 113.377 37.2029C113.377 33.335 116.397 30.2478 120.064 30.2478Z" stroke="black" stroke-width="1.605"/>
<path d="M120.064 92.8425C123.731 92.8427 126.752 95.9298 126.752 99.7976C126.752 103.665 123.731 106.753 120.064 106.753C116.397 106.753 113.377 103.665 113.377 99.7976C113.377 95.9297 116.397 92.8425 120.064 92.8425Z" stroke="black" stroke-width="1.605"/>
<path d="M50.2453 52.1831C38.2101 22.4897 50.2457 18.4773 73.7878 33.9924" stroke="#B02E0C" stroke-width="2" stroke-linecap="round"/>
<path d="M117.785 47.728H119.411C119.705 47.728 119.963 47.764 120.191 47.824C120.413 47.884 120.617 47.998 120.809 48.166C121.229 48.544 121.439 49.084 121.439 49.792C121.439 50.548 121.235 51.13 120.839 51.526C120.659 51.706 120.467 51.826 120.263 51.898C120.059 51.97 119.789 52 119.453 52H117.785V47.728ZM118.529 48.364V51.37H119.411C119.879 51.37 120.209 51.238 120.401 50.962C120.593 50.692 120.689 50.314 120.689 49.828C120.689 49.372 120.581 49.012 120.365 48.754C120.149 48.496 119.813 48.364 119.363 48.364H118.529Z" fill="black"/>
<path d="M85.964 129L87.488 126.786L86.072 124.728H86.966L87.938 126.24L88.952 124.728H89.792L88.376 126.786L89.894 129H88.982L87.914 127.368L86.828 129H85.964Z" fill="#060C12"/>
<path d="M57.444 63.728H59.466C59.886 63.728 60.234 63.824 60.504 64.016C60.768 64.208 60.906 64.508 60.906 64.916C60.906 65.174 60.84 65.396 60.72 65.576C60.594 65.756 60.42 65.888 60.198 65.966C60.3 65.99 60.39 66.026 60.468 66.074C60.54 66.122 60.6 66.176 60.642 66.23C60.684 66.29 60.72 66.362 60.75 66.446C60.774 66.536 60.792 66.614 60.804 66.68C60.816 66.746 60.822 66.83 60.834 66.938C60.834 66.968 60.84 67.022 60.846 67.1C60.852 67.184 60.858 67.238 60.858 67.262C60.858 67.286 60.864 67.334 60.87 67.394C60.876 67.46 60.882 67.508 60.888 67.532C60.888 67.556 60.894 67.598 60.906 67.646C60.918 67.694 60.924 67.736 60.936 67.76C60.942 67.784 60.954 67.814 60.966 67.85C60.978 67.886 60.99 67.91 61.008 67.934C61.02 67.958 61.038 67.982 61.062 68H60.258C60.246 67.988 60.234 67.97 60.222 67.946C60.21 67.922 60.204 67.898 60.198 67.874C60.186 67.85 60.18 67.826 60.18 67.802C60.174 67.778 60.168 67.748 60.162 67.712C60.156 67.676 60.156 67.64 60.156 67.616L60.144 67.508L60.132 67.4C60.132 67.376 60.126 67.334 60.126 67.274C60.12 67.214 60.12 67.172 60.12 67.148C60.096 66.8 60.024 66.566 59.898 66.434C59.772 66.302 59.532 66.236 59.184 66.236H58.188V68H57.444V63.728ZM58.188 64.34V65.678H59.178C59.322 65.678 59.442 65.672 59.544 65.654C59.64 65.642 59.742 65.612 59.844 65.57C59.946 65.528 60.024 65.456 60.078 65.36C60.132 65.264 60.162 65.144 60.162 64.994C60.162 64.862 60.138 64.748 60.09 64.658C60.042 64.568 59.97 64.502 59.88 64.454C59.79 64.412 59.7 64.382 59.604 64.364C59.508 64.352 59.4 64.34 59.274 64.34H58.188Z" fill="#060C12"/>
<path d="M44 66L46.2982 64.6731V67.3269L44 66ZM55.5 65.7702H55.7298V66.2298H55.5V65.7702ZM46.0684 66V65.7702H55.5V66V66.2298H46.0684V66Z" fill="black"/>
<path d="M35 127L37.2982 128.327V125.673L35 127ZM84 127.23H84.2298V126.77H84V127.23ZM37.0684 127V127.23H84V127V126.77H37.0684V127Z" fill="black"/>
<path d="M142 127L139.702 128.327V125.673L142 127ZM93 127.23H92.7702V126.77H93V127.23ZM139.932 127V127.23H93V127V126.77H139.932V127Z" fill="black"/>
<path d="M85.964 129L87.488 126.786L86.072 124.728H86.966L87.938 126.24L88.952 124.728H89.792L88.376 126.786L89.894 129H88.982L87.914 127.368L86.828 129H85.964Z" fill="#060C12"/>
<path d="M35 127L37.2982 128.327V125.673L35 127ZM84 127.23H84.2298V126.77H84V127.23ZM37.0684 127V127.23H84V127V126.77H37.0684V127Z" fill="black"/>
<path d="M142 127L139.702 128.327V125.673L142 127ZM93 127.23H92.7702V126.77H93V127.23ZM139.932 127V127.23H93V127V126.77H139.932V127Z" fill="black"/>
<path d="M148.93 66.728L147.322 69.302V71H146.584V69.302L144.97 66.728H145.834L146.968 68.618L148.09 66.728H148.93Z" fill="#060C12"/>
<path d="M147 15L148.327 17.2982L145.673 17.2982L147 15ZM147.23 64L147.23 64.2298L146.77 64.2298L146.77 64L147.23 64ZM147 17.0684L147.23 17.0684L147.23 64L147 64L146.77 64L146.77 17.0684L147 17.0684Z" fill="black"/>
<path d="M147 122L148.327 119.702L145.673 119.702L147 122ZM147.23 73L147.23 72.7702L146.77 72.7702L146.77 73L147.23 73ZM147 119.932L147.23 119.932L147.23 73L147 73L146.77 73L146.77 119.932L147 119.932Z" fill="black"/>
</svg>
