<svg width="176" height="136" viewBox="0 0 176 136" fill="none" xmlns="http://www.w3.org/2000/svg">
<path d="M0 16C0 7.16344 7.16344 0 16 0H160C168.837 0 176 7.16344 176 16V120C176 128.837 168.837 136 160 136H16C7.16344 136 0 128.837 0 120V16Z" fill="white"/>
<path d="M16 0.5H160C168.56 0.5 175.5 7.43959 175.5 16V120C175.5 128.56 168.56 135.5 160 135.5H16C7.43959 135.5 0.5 128.56 0.5 120V16C0.5 7.43959 7.43959 0.5 16 0.5Z" stroke="#B02E0C" stroke-opacity="0.16"/>
<circle cx="88" cy="68" r="54.2" stroke="black" stroke-width="1.6"/>
<circle cx="88" cy="68" r="48.2" stroke="#F7941D" stroke-width="1.6"/>
<circle cx="87.8106" cy="37.83" r="4.5" transform="rotate(-60 87.8106 37.83)" stroke="black"/>
<circle cx="113.791" cy="52.8301" r="4.5" stroke="black"/>
<circle cx="113.791" cy="82.8301" r="4.5" transform="rotate(60 113.791 82.8301)" stroke="black"/>
<circle cx="87.8105" cy="97.8301" r="4.5" transform="rotate(120 87.8105 97.8301)" stroke="black"/>
<circle cx="61.8301" cy="82.8301" r="4.5" transform="rotate(180 61.8301 82.8301)" stroke="black"/>
<circle cx="61.8301" cy="52.83" r="4.5" transform="rotate(-120 61.8301 52.83)" stroke="black"/>
<path d="M56.3313 66.8814C35.8324 41.9976 46.9865 34.6039 75.2819 42.5147" stroke="#B02E0C" stroke-width="2" stroke-linecap="round"/>
<path d="M49.444 71.728H51.466C51.886 71.728 52.234 71.824 52.504 72.016C52.768 72.208 52.906 72.508 52.906 72.916C52.906 73.174 52.84 73.396 52.72 73.576C52.594 73.756 52.42 73.888 52.198 73.966C52.3 73.99 52.39 74.026 52.468 74.074C52.54 74.122 52.6 74.176 52.642 74.23C52.684 74.29 52.72 74.362 52.75 74.446C52.774 74.536 52.792 74.614 52.804 74.68C52.816 74.746 52.822 74.83 52.834 74.938C52.834 74.968 52.84 75.022 52.846 75.1C52.852 75.184 52.858 75.238 52.858 75.262C52.858 75.286 52.864 75.334 52.87 75.394C52.876 75.46 52.882 75.508 52.888 75.532C52.888 75.556 52.894 75.598 52.906 75.646C52.918 75.694 52.924 75.736 52.936 75.76C52.942 75.784 52.954 75.814 52.966 75.85C52.978 75.886 52.99 75.91 53.008 75.934C53.02 75.958 53.038 75.982 53.062 76H52.258C52.246 75.988 52.234 75.97 52.222 75.946C52.21 75.922 52.204 75.898 52.198 75.874C52.186 75.85 52.18 75.826 52.18 75.802C52.174 75.778 52.168 75.748 52.162 75.712C52.156 75.676 52.156 75.64 52.156 75.616L52.144 75.508L52.132 75.4C52.132 75.376 52.126 75.334 52.126 75.274C52.12 75.214 52.12 75.172 52.12 75.148C52.096 74.8 52.024 74.566 51.898 74.434C51.772 74.302 51.532 74.236 51.184 74.236H50.188V76H49.444V71.728ZM50.188 72.34V73.678H51.178C51.322 73.678 51.442 73.672 51.544 73.654C51.64 73.642 51.742 73.612 51.844 73.57C51.946 73.528 52.024 73.456 52.078 73.36C52.132 73.264 52.162 73.144 52.162 72.994C52.162 72.862 52.138 72.748 52.09 72.658C52.042 72.568 51.97 72.502 51.88 72.454C51.79 72.412 51.7 72.382 51.604 72.364C51.508 72.352 51.4 72.34 51.274 72.34H50.188Z" fill="#060C12"/>
<path d="M40 74L42.2982 75.3269V72.6731L40 74ZM48 74.2298H48.2298V73.7702H48V74.2298ZM42.0684 74V74.2298H48V74V73.7702H42.0684V74Z" fill="black"/>
<path d="M105.991 34.304H108.159C108.551 34.304 108.895 34.352 109.199 34.432C109.495 34.512 109.767 34.664 110.023 34.888C110.583 35.392 110.863 36.112 110.863 37.056C110.863 38.064 110.591 38.84 110.063 39.368C109.823 39.608 109.567 39.768 109.295 39.864C109.023 39.96 108.663 40 108.215 40H105.991V34.304ZM106.983 35.152V39.16H108.159C108.783 39.16 109.223 38.984 109.479 38.616C109.735 38.256 109.863 37.752 109.863 37.104C109.863 36.496 109.719 36.016 109.431 35.672C109.143 35.328 108.695 35.152 108.095 35.152H106.983ZM114.18 34.368V40H113.204V36.128H111.812V35.456C112.78 35.456 113.324 35.096 113.444 34.368H114.18Z" fill="black"/>
<path d="M78.2507 65.78H77.1507C77.0307 65.14 76.6707 64.82 76.0907 64.82C75.9207 64.82 75.7707 64.86 75.6307 64.92C75.4907 64.99 75.3707 65.07 75.2807 65.15C75.1807 65.24 75.1007 65.37 75.0307 65.53C74.9507 65.69 74.9007 65.83 74.8607 65.94C74.8207 66.05 74.7907 66.21 74.7507 66.41C74.7107 66.62 74.6907 66.76 74.6907 66.84C74.6807 66.92 74.6707 67.06 74.6507 67.24C75.0307 66.67 75.5707 66.38 76.2507 66.38C76.8907 66.38 77.4107 66.6 77.8107 67.02C78.2107 67.45 78.4107 68.01 78.4107 68.69C78.4107 69.41 78.1807 69.99 77.7407 70.45C77.3007 70.91 76.7307 71.14 76.0507 71.14C75.2407 71.14 74.6207 70.84 74.1907 70.23C73.7507 69.63 73.5407 68.76 73.5407 67.63C73.5407 66.47 73.7707 65.56 74.2307 64.9C74.6907 64.25 75.3207 63.92 76.1407 63.92C76.7307 63.92 77.2107 64.09 77.5907 64.41C77.9607 64.74 78.1807 65.2 78.2507 65.78ZM76.0207 67.29C75.6407 67.29 75.3507 67.42 75.1307 67.68C74.9107 67.94 74.8007 68.28 74.8007 68.7C74.8007 69.15 74.9107 69.51 75.1407 69.78C75.3707 70.06 75.6707 70.19 76.0507 70.19C76.4107 70.19 76.7107 70.06 76.9307 69.79C77.1507 69.53 77.2707 69.17 77.2707 68.73C77.2707 68.3 77.1507 67.95 76.9307 67.69C76.7007 67.43 76.4007 67.29 76.0207 67.29ZM82.2605 63.88H85.5105C86.2505 63.88 86.8205 64.05 87.2205 64.37C87.6205 64.69 87.8205 65.13 87.8205 65.67C87.8205 66.01 87.7205 66.32 87.5405 66.59C87.3505 66.86 87.1005 67.05 86.8005 67.17C87.2105 67.27 87.5405 67.47 87.7805 67.77C88.0205 68.07 88.1405 68.45 88.1405 68.9C88.1405 69.53 87.9305 70.04 87.5105 70.42C87.0905 70.81 86.5505 71 85.8905 71H82.2605V63.88ZM83.4805 64.89V66.85H85.1805C85.6605 66.85 86.0105 66.78 86.2405 66.63C86.4605 66.48 86.5805 66.23 86.5805 65.87C86.5805 65.47 86.4605 65.21 86.2205 65.08C85.9805 64.96 85.6505 64.89 85.2205 64.89H83.4805ZM83.4805 67.75V69.98H85.3505C85.8305 69.98 86.2005 69.9 86.4805 69.74C86.7505 69.58 86.8905 69.29 86.8905 68.87C86.8905 68.64 86.8405 68.45 86.7605 68.29C86.6805 68.13 86.5605 68.02 86.4005 67.94C86.2405 67.87 86.0805 67.82 85.9205 67.79C85.7505 67.77 85.5505 67.75 85.3305 67.75H83.4805ZM89.1115 67.43C89.2315 66.27 89.9815 65.68 91.3715 65.68C92.0115 65.68 92.5315 65.81 92.9115 66.06C93.2915 66.32 93.4915 66.71 93.4915 67.24V69.86C93.4915 70.01 93.5015 70.11 93.5415 70.16C93.5815 70.22 93.6515 70.24 93.7615 70.24C93.8415 70.24 93.9215 70.24 94.0215 70.22V71.02C93.7215 71.1 93.4815 71.13 93.2815 71.13C92.7915 71.13 92.5115 70.93 92.4415 70.51C92.0015 70.93 91.4015 71.13 90.6315 71.13C90.0915 71.13 89.6715 71 89.3615 70.72C89.0415 70.44 88.8915 70.07 88.8915 69.59C88.8915 69.45 88.9015 69.31 88.9415 69.18C88.9715 69.06 89.0115 68.95 89.0515 68.85C89.0915 68.76 89.1615 68.67 89.2615 68.59C89.3615 68.51 89.4415 68.45 89.5015 68.39C89.5615 68.34 89.6715 68.29 89.8115 68.24C89.9515 68.2 90.0615 68.16 90.1315 68.14C90.2015 68.12 90.3215 68.09 90.5015 68.06C90.6715 68.04 90.7815 68.02 90.8415 68.01C90.9015 68 91.0215 67.98 91.2015 67.96C91.6015 67.91 91.8815 67.87 92.0315 67.83C92.1715 67.79 92.2715 67.74 92.3315 67.66C92.3715 67.61 92.4015 67.49 92.4015 67.29C92.4015 66.77 92.0415 66.51 91.3415 66.51C90.9615 66.51 90.6915 66.58 90.5215 66.72C90.3415 66.86 90.2315 67.1 90.1915 67.43H89.1115ZM92.3915 68.41C92.3015 68.46 92.2015 68.5 92.0915 68.54C91.9715 68.58 91.8815 68.6 91.8115 68.61C91.7415 68.62 91.6315 68.63 91.4815 68.65C91.3315 68.67 91.2315 68.69 91.1915 68.69C91.0515 68.71 90.9415 68.73 90.8615 68.75C90.7815 68.77 90.6815 68.79 90.5615 68.83C90.4415 68.87 90.3515 68.92 90.2915 68.98C90.2315 69.04 90.1715 69.11 90.1315 69.21C90.0815 69.31 90.0615 69.42 90.0615 69.55C90.0615 69.8 90.1415 69.99 90.3015 70.12C90.4615 70.26 90.6915 70.32 90.9915 70.32C91.4915 70.32 91.8815 70.19 92.1615 69.91C92.3115 69.76 92.3915 69.46 92.3915 69.02V68.41ZM97.6382 65.74V66.83C97.4382 66.81 97.2982 66.8 97.2382 66.8C96.2382 66.8 95.7482 67.45 95.7482 68.73V71H94.6182V65.84H95.6882V66.87C96.0482 66.11 96.6282 65.72 97.4182 65.72L97.6382 65.74ZM102.324 67.34H101.234C101.164 66.8 100.794 66.52 100.114 66.52C99.8138 66.52 99.5938 66.58 99.4338 66.68C99.2738 66.79 99.1938 66.94 99.1938 67.12C99.1938 67.18 99.1938 67.24 99.2038 67.28C99.2138 67.33 99.2338 67.37 99.2638 67.41C99.2938 67.45 99.3238 67.48 99.3438 67.5C99.3638 67.53 99.4138 67.56 99.4738 67.58C99.5338 67.61 99.5738 67.63 99.6138 67.65C99.6538 67.67 99.7138 67.69 99.8038 67.71C99.8838 67.73 99.9538 67.75 100.004 67.76C100.054 67.78 100.134 67.8 100.254 67.82C100.364 67.84 100.454 67.86 100.514 67.87C100.774 67.93 100.954 67.98 101.074 68.01C101.194 68.04 101.364 68.1 101.584 68.19C101.804 68.28 101.974 68.37 102.084 68.47C102.184 68.57 102.284 68.7 102.374 68.87C102.464 69.04 102.514 69.23 102.514 69.45C102.514 69.97 102.304 70.39 101.904 70.69C101.494 71 100.944 71.15 100.264 71.15C99.5238 71.15 98.9638 71 98.5738 70.69C98.1738 70.39 97.9638 69.94 97.9438 69.35H99.0338C99.0938 70 99.5038 70.32 100.284 70.32C100.614 70.32 100.884 70.26 101.084 70.12C101.284 69.98 101.394 69.8 101.394 69.57C101.394 69.46 101.364 69.36 101.314 69.28C101.264 69.2 101.184 69.14 101.074 69.08C100.954 69.02 100.844 68.98 100.744 68.95C100.644 68.92 100.504 68.88 100.334 68.84L100.274 68.83C100.254 68.83 100.244 68.82 100.224 68.82C100.204 68.82 100.184 68.81 100.164 68.8C99.4238 68.62 98.9638 68.48 98.7638 68.38C98.2838 68.16 98.0538 67.78 98.0538 67.25C98.0538 66.77 98.2338 66.39 98.6138 66.11C98.9838 65.83 99.5038 65.69 100.164 65.69C100.794 65.69 101.314 65.83 101.714 66.1C102.114 66.38 102.324 66.79 102.324 67.34Z" fill="black"/>
</svg>
