<svg width="176" height="136" viewBox="0 0 176 136" fill="none" xmlns="http://www.w3.org/2000/svg">
<path d="M0 16C0 7.16344 7.16344 0 16 0H160C168.837 0 176 7.16344 176 16V120C176 128.837 168.837 136 160 136H16C7.16344 136 0 128.837 0 120V16Z" fill="white"/>
<path d="M16 0.5H160C168.56 0.5 175.5 7.43959 175.5 16V120C175.5 128.56 168.56 135.5 160 135.5H16C7.43959 135.5 0.5 128.56 0.5 120V16C0.5 7.43959 7.43959 0.5 16 0.5Z" stroke="#B02E0C" stroke-opacity="0.16"/>
<circle cx="88" cy="68" r="54.2" stroke="black" stroke-width="1.6"/>
<circle cx="88" cy="68" r="48.2" stroke="#F7941D" stroke-width="1.6"/>
<path d="M51.444 77.728H53.466C53.886 77.728 54.234 77.824 54.504 78.016C54.768 78.208 54.906 78.508 54.906 78.916C54.906 79.174 54.84 79.396 54.72 79.576C54.594 79.756 54.42 79.888 54.198 79.966C54.3 79.99 54.39 80.026 54.468 80.074C54.54 80.122 54.6 80.176 54.642 80.23C54.684 80.29 54.72 80.362 54.75 80.446C54.774 80.536 54.792 80.614 54.804 80.68C54.816 80.746 54.822 80.83 54.834 80.938C54.834 80.968 54.84 81.022 54.846 81.1C54.852 81.184 54.858 81.238 54.858 81.262C54.858 81.286 54.864 81.334 54.87 81.394C54.876 81.46 54.882 81.508 54.888 81.532C54.888 81.556 54.894 81.598 54.906 81.646C54.918 81.694 54.924 81.736 54.936 81.76C54.942 81.784 54.954 81.814 54.966 81.85C54.978 81.886 54.99 81.91 55.008 81.934C55.02 81.958 55.038 81.982 55.062 82H54.258C54.246 81.988 54.234 81.97 54.222 81.946C54.21 81.922 54.204 81.898 54.198 81.874C54.186 81.85 54.18 81.826 54.18 81.802C54.174 81.778 54.168 81.748 54.162 81.712C54.156 81.676 54.156 81.64 54.156 81.616L54.144 81.508L54.132 81.4C54.132 81.376 54.126 81.334 54.126 81.274C54.12 81.214 54.12 81.172 54.12 81.148C54.096 80.8 54.024 80.566 53.898 80.434C53.772 80.302 53.532 80.236 53.184 80.236H52.188V82H51.444V77.728ZM52.188 78.34V79.678H53.178C53.322 79.678 53.442 79.672 53.544 79.654C53.64 79.642 53.742 79.612 53.844 79.57C53.946 79.528 54.024 79.456 54.078 79.36C54.132 79.264 54.162 79.144 54.162 78.994C54.162 78.862 54.138 78.748 54.09 78.658C54.042 78.568 53.97 78.502 53.88 78.454C53.79 78.412 53.7 78.382 53.604 78.364C53.508 78.352 53.4 78.34 53.274 78.34H52.188Z" fill="#060C12"/>
<path d="M42 80L44.2982 81.3269V78.6731L42 80ZM50 80.2298H50.2298V79.7702H50V80.2298ZM44.0684 80V80.2298H50V80V79.7702H44.0684V80Z" fill="black"/>
<path d="M109.991 48.304H112.159C112.551 48.304 112.895 48.352 113.199 48.432C113.495 48.512 113.767 48.664 114.023 48.888C114.583 49.392 114.863 50.112 114.863 51.056C114.863 52.064 114.591 52.84 114.063 53.368C113.823 53.608 113.567 53.768 113.295 53.864C113.023 53.96 112.663 54 112.215 54H109.991V48.304ZM110.983 49.152V53.16H112.159C112.783 53.16 113.223 52.984 113.479 52.616C113.735 52.256 113.863 51.752 113.863 51.104C113.863 50.496 113.719 50.016 113.431 49.672C113.143 49.328 112.695 49.152 112.095 49.152H110.983ZM118.18 48.368V54H117.204V50.128H115.812V49.456C116.78 49.456 117.324 49.096 117.444 48.368H118.18Z" fill="black"/>
<path d="M74.7807 67.23C74.4607 67.12 74.2207 66.94 74.0407 66.68C73.8607 66.42 73.7807 66.12 73.7807 65.77C73.7807 65.23 73.9807 64.78 74.3907 64.43C74.8007 64.09 75.3307 63.91 75.9907 63.91C76.6107 63.91 77.1307 64.09 77.5307 64.43C77.9307 64.77 78.1307 65.21 78.1307 65.74C78.1307 66.46 77.8007 66.95 77.1407 67.23C77.5607 67.38 77.8807 67.59 78.1007 67.85C78.3107 68.12 78.4207 68.48 78.4207 68.92C78.4207 69.58 78.1907 70.12 77.7407 70.52C77.2807 70.92 76.6907 71.12 75.9507 71.12C75.2107 71.12 74.6207 70.93 74.1707 70.53C73.7207 70.14 73.5007 69.62 73.5007 68.98C73.5007 68.55 73.6107 68.18 73.8307 67.88C74.0507 67.58 74.3707 67.36 74.7807 67.23ZM75.9807 64.83C75.6307 64.83 75.3507 64.93 75.1507 65.11C74.9507 65.29 74.8507 65.54 74.8507 65.84C74.8507 66.15 74.9507 66.4 75.1607 66.58C75.3607 66.77 75.6307 66.86 75.9707 66.86C76.3007 66.86 76.5707 66.77 76.7707 66.59C76.9707 66.41 77.0707 66.16 77.0707 65.84C77.0707 65.54 76.9707 65.29 76.7707 65.11C76.5707 64.93 76.3107 64.83 75.9807 64.83ZM75.9507 67.68C75.5607 67.68 75.2507 67.8 75.0107 68.03C74.7707 68.26 74.6507 68.56 74.6507 68.92C74.6507 69.32 74.7707 69.64 75.0107 69.87C75.2507 70.11 75.5707 70.22 75.9907 70.22C76.3907 70.22 76.7007 70.11 76.9307 69.89C77.1507 69.67 77.2707 69.35 77.2707 68.95C77.2707 68.57 77.1507 68.26 76.9107 68.03C76.6707 67.8 76.3507 67.68 75.9507 67.68ZM82.2605 63.88H85.5105C86.2505 63.88 86.8205 64.05 87.2205 64.37C87.6205 64.69 87.8205 65.13 87.8205 65.67C87.8205 66.01 87.7205 66.32 87.5405 66.59C87.3505 66.86 87.1005 67.05 86.8005 67.17C87.2105 67.27 87.5405 67.47 87.7805 67.77C88.0205 68.07 88.1405 68.45 88.1405 68.9C88.1405 69.53 87.9305 70.04 87.5105 70.42C87.0905 70.81 86.5505 71 85.8905 71H82.2605V63.88ZM83.4805 64.89V66.85H85.1805C85.6605 66.85 86.0105 66.78 86.2405 66.63C86.4605 66.48 86.5805 66.23 86.5805 65.87C86.5805 65.47 86.4605 65.21 86.2205 65.08C85.9805 64.96 85.6505 64.89 85.2205 64.89H83.4805ZM83.4805 67.75V69.98H85.3505C85.8305 69.98 86.2005 69.9 86.4805 69.74C86.7505 69.58 86.8905 69.29 86.8905 68.87C86.8905 68.64 86.8405 68.45 86.7605 68.29C86.6805 68.13 86.5605 68.02 86.4005 67.94C86.2405 67.87 86.0805 67.82 85.9205 67.79C85.7505 67.77 85.5505 67.75 85.3305 67.75H83.4805ZM89.1115 67.43C89.2315 66.27 89.9815 65.68 91.3715 65.68C92.0115 65.68 92.5315 65.81 92.9115 66.06C93.2915 66.32 93.4915 66.71 93.4915 67.24V69.86C93.4915 70.01 93.5015 70.11 93.5415 70.16C93.5815 70.22 93.6515 70.24 93.7615 70.24C93.8415 70.24 93.9215 70.24 94.0215 70.22V71.02C93.7215 71.1 93.4815 71.13 93.2815 71.13C92.7915 71.13 92.5115 70.93 92.4415 70.51C92.0015 70.93 91.4015 71.13 90.6315 71.13C90.0915 71.13 89.6715 71 89.3615 70.72C89.0415 70.44 88.8915 70.07 88.8915 69.59C88.8915 69.45 88.9015 69.31 88.9415 69.18C88.9715 69.06 89.0115 68.95 89.0515 68.85C89.0915 68.76 89.1615 68.67 89.2615 68.59C89.3615 68.51 89.4415 68.45 89.5015 68.39C89.5615 68.34 89.6715 68.29 89.8115 68.24C89.9515 68.2 90.0615 68.16 90.1315 68.14C90.2015 68.12 90.3215 68.09 90.5015 68.06C90.6715 68.04 90.7815 68.02 90.8415 68.01C90.9015 68 91.0215 67.98 91.2015 67.96C91.6015 67.91 91.8815 67.87 92.0315 67.83C92.1715 67.79 92.2715 67.74 92.3315 67.66C92.3715 67.61 92.4015 67.49 92.4015 67.29C92.4015 66.77 92.0415 66.51 91.3415 66.51C90.9615 66.51 90.6915 66.58 90.5215 66.72C90.3415 66.86 90.2315 67.1 90.1915 67.43H89.1115ZM92.3915 68.41C92.3015 68.46 92.2015 68.5 92.0915 68.54C91.9715 68.58 91.8815 68.6 91.8115 68.61C91.7415 68.62 91.6315 68.63 91.4815 68.65C91.3315 68.67 91.2315 68.69 91.1915 68.69C91.0515 68.71 90.9415 68.73 90.8615 68.75C90.7815 68.77 90.6815 68.79 90.5615 68.83C90.4415 68.87 90.3515 68.92 90.2915 68.98C90.2315 69.04 90.1715 69.11 90.1315 69.21C90.0815 69.31 90.0615 69.42 90.0615 69.55C90.0615 69.8 90.1415 69.99 90.3015 70.12C90.4615 70.26 90.6915 70.32 90.9915 70.32C91.4915 70.32 91.8815 70.19 92.1615 69.91C92.3115 69.76 92.3915 69.46 92.3915 69.02V68.41ZM97.6382 65.74V66.83C97.4382 66.81 97.2982 66.8 97.2382 66.8C96.2382 66.8 95.7482 67.45 95.7482 68.73V71H94.6182V65.84H95.6882V66.87C96.0482 66.11 96.6282 65.72 97.4182 65.72L97.6382 65.74ZM102.324 67.34H101.234C101.164 66.8 100.794 66.52 100.114 66.52C99.8138 66.52 99.5938 66.58 99.4338 66.68C99.2738 66.79 99.1938 66.94 99.1938 67.12C99.1938 67.18 99.1938 67.24 99.2038 67.28C99.2138 67.33 99.2338 67.37 99.2638 67.41C99.2938 67.45 99.3238 67.48 99.3438 67.5C99.3638 67.53 99.4138 67.56 99.4738 67.58C99.5338 67.61 99.5738 67.63 99.6138 67.65C99.6538 67.67 99.7138 67.69 99.8038 67.71C99.8838 67.73 99.9538 67.75 100.004 67.76C100.054 67.78 100.134 67.8 100.254 67.82C100.364 67.84 100.454 67.86 100.514 67.87C100.774 67.93 100.954 67.98 101.074 68.01C101.194 68.04 101.364 68.1 101.584 68.19C101.804 68.28 101.974 68.37 102.084 68.47C102.184 68.57 102.284 68.7 102.374 68.87C102.464 69.04 102.514 69.23 102.514 69.45C102.514 69.97 102.304 70.39 101.904 70.69C101.494 71 100.944 71.15 100.264 71.15C99.5238 71.15 98.9638 71 98.5738 70.69C98.1738 70.39 97.9638 69.94 97.9438 69.35H99.0338C99.0938 70 99.5038 70.32 100.284 70.32C100.614 70.32 100.884 70.26 101.084 70.12C101.284 69.98 101.394 69.8 101.394 69.57C101.394 69.46 101.364 69.36 101.314 69.28C101.264 69.2 101.184 69.14 101.074 69.08C100.954 69.02 100.844 68.98 100.744 68.95C100.644 68.92 100.504 68.88 100.334 68.84L100.274 68.83C100.254 68.83 100.244 68.82 100.224 68.82C100.204 68.82 100.184 68.81 100.164 68.8C99.4238 68.62 98.9638 68.48 98.7638 68.38C98.2838 68.16 98.0538 67.78 98.0538 67.25C98.0538 66.77 98.2338 66.39 98.6138 66.11C98.9838 65.83 99.5038 65.69 100.164 65.69C100.794 65.69 101.314 65.83 101.714 66.1C102.114 66.38 102.324 66.79 102.324 67.34Z" fill="black"/>
<circle cx="88" cy="30" r="4.5" stroke="black"/>
<circle cx="114.867" cy="41.1301" r="4.5" transform="rotate(45 114.867 41.1301)" stroke="black"/>
<circle cx="126" cy="68" r="4.5" transform="rotate(90 126 68)" stroke="black"/>
<circle cx="114.87" cy="94.8701" r="4.5" transform="rotate(135 114.87 94.8701)" stroke="black"/>
<circle cx="88" cy="106" r="4.5" transform="rotate(180 88 106)" stroke="black"/>
<circle cx="61.1328" cy="94.8699" r="4.5" transform="rotate(-135 61.1328 94.8699)" stroke="black"/>
<circle cx="50" cy="68" r="4.5" transform="rotate(-90 50 68)" stroke="black"/>
<circle cx="61.1297" cy="41.1299" r="4.5" transform="rotate(-45 61.1297 41.1299)" stroke="black"/>
<path d="M56.8905 52.943C47.1058 29.9536 57.0175 26.9018 76.3171 38.983" stroke="#B02E0C" stroke-width="1.54995" stroke-linecap="round"/>
</svg>
