<svg width="176" height="136" viewBox="0 0 176 136" fill="none" xmlns="http://www.w3.org/2000/svg">
<path d="M0 16C0 7.16344 7.16344 0 16 0H160C168.837 0 176 7.16344 176 16V120C176 128.837 168.837 136 160 136H16C7.16344 136 0 128.837 0 120V16Z" fill="white"/>
<path d="M16 0.5H160C168.56 0.5 175.5 7.43959 175.5 16V120C175.5 128.56 168.56 135.5 160 135.5H16C7.43959 135.5 0.5 128.56 0.5 120V16C0.5 7.43959 7.43959 0.5 16 0.5Z" stroke="#B02E0C" stroke-opacity="0.16"/>
<path d="M153.2 15.7998V120.2H22.7998V15.7998H153.2Z" stroke="black" stroke-width="1.6"/>
<path d="M34.5596 19.7998H141.44C145.726 19.8 149.2 23.2742 149.2 27.5596V108.44C149.2 112.726 145.726 116.2 141.44 116.2H34.5596C30.2742 116.2 26.8 112.726 26.7998 108.44V27.5596C26.8 23.2742 30.2742 19.8 34.5596 19.7998Z" stroke="#FF9411" stroke-width="1.6"/>
<circle cx="38" cy="31" r="5.1975" stroke="black" stroke-width="1.605"/>
<circle cx="38" cy="105" r="5.1975" stroke="black" stroke-width="1.605"/>
<circle cx="38" cy="68" r="5.1975" stroke="black" stroke-width="1.605"/>
<circle cx="88" cy="31" r="5.1975" stroke="black" stroke-width="1.605"/>
<circle cx="88" cy="105" r="5.1975" stroke="black" stroke-width="1.605"/>
<circle cx="138" cy="31" r="5.1975" stroke="black" stroke-width="1.605"/>
<circle cx="138" cy="105" r="5.1975" stroke="black" stroke-width="1.605"/>
<circle cx="138" cy="68" r="5.1975" stroke="black" stroke-width="1.605"/>
<path d="M32.0205 47C19.2506 17.397 32.0209 13.3969 57 28.8648" stroke="#B02E0C" stroke-width="2" stroke-linecap="round"/>
<path d="M88 20L27 68L88 116.5L149 68L88 20Z" stroke="#FF9411" stroke-width="1.6" stroke-linecap="square"/>
<path d="M43.9984 79.0001C22.498 73 26.4984 58.0004 47.9979 59.5003" stroke="#B02E0C" stroke-width="2" stroke-linecap="round"/>
<path d="M36.444 90.728H38.466C38.886 90.728 39.234 90.824 39.504 91.016C39.768 91.208 39.906 91.508 39.906 91.916C39.906 92.174 39.84 92.396 39.72 92.576C39.594 92.756 39.42 92.888 39.198 92.966C39.3 92.99 39.39 93.026 39.468 93.074C39.54 93.122 39.6 93.176 39.642 93.23C39.684 93.29 39.72 93.362 39.75 93.446C39.774 93.536 39.792 93.614 39.804 93.68C39.816 93.746 39.822 93.83 39.834 93.938C39.834 93.968 39.84 94.022 39.846 94.1C39.852 94.184 39.858 94.238 39.858 94.262C39.858 94.286 39.864 94.334 39.87 94.394C39.876 94.46 39.882 94.508 39.888 94.532C39.888 94.556 39.894 94.598 39.906 94.646C39.918 94.694 39.924 94.736 39.936 94.76C39.942 94.784 39.954 94.814 39.966 94.85C39.978 94.886 39.99 94.91 40.008 94.934C40.02 94.958 40.038 94.982 40.062 95H39.258C39.246 94.988 39.234 94.97 39.222 94.946C39.21 94.922 39.204 94.898 39.198 94.874C39.186 94.85 39.18 94.826 39.18 94.802C39.174 94.778 39.168 94.748 39.162 94.712C39.156 94.676 39.156 94.64 39.156 94.616L39.144 94.508L39.132 94.4C39.132 94.376 39.126 94.334 39.126 94.274C39.12 94.214 39.12 94.172 39.12 94.148C39.096 93.8 39.024 93.566 38.898 93.434C38.772 93.302 38.532 93.236 38.184 93.236H37.188V95H36.444V90.728ZM37.188 91.34V92.678H38.178C38.322 92.678 38.442 92.672 38.544 92.654C38.64 92.642 38.742 92.612 38.844 92.57C38.946 92.528 39.024 92.456 39.078 92.36C39.132 92.264 39.162 92.144 39.162 91.994C39.162 91.862 39.138 91.748 39.09 91.658C39.042 91.568 38.97 91.502 38.88 91.454C38.79 91.412 38.7 91.382 38.604 91.364C38.508 91.352 38.4 91.34 38.274 91.34H37.188ZM42.4866 90.776V95H41.7546V92.096H40.7106V91.592C41.4366 91.592 41.8446 91.322 41.9346 90.776H42.4866Z" fill="#060C12"/>
<path d="M27 93L29.2982 94.3269V91.6731L27 93ZM35 93.2298H35.2298V92.7702H35V93.2298ZM29.0684 93V93.2298H35V93V92.7702H29.0684V93Z" fill="black"/>
<path d="M63.444 85.728H65.466C65.886 85.728 66.234 85.824 66.504 86.016C66.768 86.208 66.906 86.508 66.906 86.916C66.906 87.174 66.84 87.396 66.72 87.576C66.594 87.756 66.42 87.888 66.198 87.966C66.3 87.99 66.39 88.026 66.468 88.074C66.54 88.122 66.6 88.176 66.642 88.23C66.684 88.29 66.72 88.362 66.75 88.446C66.774 88.536 66.792 88.614 66.804 88.68C66.816 88.746 66.822 88.83 66.834 88.938C66.834 88.968 66.84 89.022 66.846 89.1C66.852 89.184 66.858 89.238 66.858 89.262C66.858 89.286 66.864 89.334 66.87 89.394C66.876 89.46 66.882 89.508 66.888 89.532C66.888 89.556 66.894 89.598 66.906 89.646C66.918 89.694 66.924 89.736 66.936 89.76C66.942 89.784 66.954 89.814 66.966 89.85C66.978 89.886 66.99 89.91 67.008 89.934C67.02 89.958 67.038 89.982 67.062 90H66.258C66.246 89.988 66.234 89.97 66.222 89.946C66.21 89.922 66.204 89.898 66.198 89.874C66.186 89.85 66.18 89.826 66.18 89.802C66.174 89.778 66.168 89.748 66.162 89.712C66.156 89.676 66.156 89.64 66.156 89.616L66.144 89.508L66.132 89.4C66.132 89.376 66.126 89.334 66.126 89.274C66.12 89.214 66.12 89.172 66.12 89.148C66.096 88.8 66.024 88.566 65.898 88.434C65.772 88.302 65.532 88.236 65.184 88.236H64.188V90H63.444V85.728ZM64.188 86.34V87.678H65.178C65.322 87.678 65.442 87.672 65.544 87.654C65.64 87.642 65.742 87.612 65.844 87.57C65.946 87.528 66.024 87.456 66.078 87.36C66.132 87.264 66.162 87.144 66.162 86.994C66.162 86.862 66.138 86.748 66.09 86.658C66.042 86.568 65.97 86.502 65.88 86.454C65.79 86.412 65.7 86.382 65.604 86.364C65.508 86.352 65.4 86.34 65.274 86.34H64.188ZM70.2306 89.394V90H67.3626C67.3626 89.814 67.3926 89.64 67.4406 89.484C67.4886 89.328 67.5426 89.196 67.6026 89.088C67.6626 88.98 67.7586 88.866 67.8786 88.752C67.9986 88.638 68.1126 88.542 68.2086 88.47C68.3046 88.398 68.4426 88.302 68.6166 88.182C68.6286 88.176 68.6826 88.14 68.7906 88.068C68.8986 87.996 68.9646 87.954 68.9886 87.936C69.0126 87.918 69.0666 87.876 69.1506 87.81C69.2346 87.744 69.2886 87.69 69.3126 87.648C69.3366 87.612 69.3726 87.558 69.4206 87.486C69.4686 87.42 69.4986 87.354 69.5166 87.282C69.5286 87.21 69.5406 87.138 69.5406 87.054C69.5406 86.838 69.4746 86.664 69.3546 86.538C69.2346 86.412 69.0666 86.346 68.8626 86.346C68.7426 86.346 68.6346 86.37 68.5506 86.406C68.4606 86.442 68.3886 86.49 68.3406 86.55C68.2926 86.61 68.2506 86.688 68.2206 86.784C68.1846 86.88 68.1666 86.964 68.1546 87.048C68.1426 87.132 68.1366 87.234 68.1366 87.342H67.4706V87.234C67.4706 86.784 67.5966 86.424 67.8486 86.16C68.1006 85.896 68.4486 85.758 68.8806 85.758C69.2886 85.758 69.6126 85.878 69.8646 86.106C70.1106 86.334 70.2366 86.64 70.2366 87.018C70.2366 87.174 70.2126 87.318 70.1646 87.45C70.1166 87.588 70.0626 87.696 70.0086 87.78C69.9546 87.864 69.8646 87.966 69.7326 88.074C69.6006 88.188 69.4986 88.266 69.4386 88.308C69.3726 88.356 69.2526 88.434 69.0846 88.548C68.5806 88.872 68.2806 89.154 68.1846 89.394H70.2306Z" fill="#060C12"/>
<path d="M54 88L56.2982 89.3269V86.6731L54 88ZM62 88.2298H62.2298V87.7702H62V88.2298ZM56.0684 88V88.2298H62V88V87.7702H56.0684V88Z" fill="black"/>
<path d="M82.9906 39.304H85.1586C85.5506 39.304 85.8946 39.352 86.1986 39.432C86.4946 39.512 86.7666 39.664 87.0226 39.888C87.5826 40.392 87.8626 41.112 87.8626 42.056C87.8626 43.064 87.5906 43.84 87.0626 44.368C86.8226 44.608 86.5666 44.768 86.2946 44.864C86.0226 44.96 85.6626 45 85.2146 45H82.9906V39.304ZM83.9826 40.152V44.16H85.1586C85.7826 44.16 86.2226 43.984 86.4786 43.616C86.7346 43.256 86.8626 42.752 86.8626 42.104C86.8626 41.496 86.7186 41.016 86.4306 40.672C86.1426 40.328 85.6946 40.152 85.0946 40.152H83.9826ZM92.1721 44.192V45H88.3481C88.3481 44.752 88.3881 44.52 88.4521 44.312C88.5161 44.104 88.5881 43.928 88.6681 43.784C88.7481 43.64 88.8761 43.488 89.0361 43.336C89.1961 43.184 89.3481 43.056 89.4761 42.96C89.6041 42.864 89.7881 42.736 90.0201 42.576C90.0361 42.568 90.1081 42.52 90.2521 42.424C90.3961 42.328 90.4841 42.272 90.5161 42.248C90.5481 42.224 90.6201 42.168 90.7321 42.08C90.8441 41.992 90.9161 41.92 90.9481 41.864C90.9801 41.816 91.0281 41.744 91.0921 41.648C91.1561 41.56 91.1961 41.472 91.2201 41.376C91.2361 41.28 91.2521 41.184 91.2521 41.072C91.2521 40.784 91.1641 40.552 91.0041 40.384C90.8441 40.216 90.6201 40.128 90.3481 40.128C90.1881 40.128 90.0441 40.16 89.9321 40.208C89.8121 40.256 89.7161 40.32 89.6521 40.4C89.5881 40.48 89.5321 40.584 89.4921 40.712C89.4441 40.84 89.4201 40.952 89.4041 41.064C89.3881 41.176 89.3801 41.312 89.3801 41.456H88.4921V41.312C88.4921 40.712 88.6601 40.232 88.9961 39.88C89.3321 39.528 89.7961 39.344 90.3721 39.344C90.9161 39.344 91.3481 39.504 91.6841 39.808C92.0121 40.112 92.1801 40.52 92.1801 41.024C92.1801 41.232 92.1481 41.424 92.0841 41.6C92.0201 41.784 91.9481 41.928 91.8761 42.04C91.8041 42.152 91.6841 42.288 91.5081 42.432C91.3321 42.584 91.1961 42.688 91.1161 42.744C91.0281 42.808 90.8681 42.912 90.6441 43.064C89.9721 43.496 89.5721 43.872 89.4441 44.192H92.1721Z" fill="black"/>
<path d="M132.991 41.304H135.159C135.551 41.304 135.895 41.352 136.199 41.432C136.495 41.512 136.767 41.664 137.023 41.888C137.583 42.392 137.863 43.112 137.863 44.056C137.863 45.064 137.591 45.84 137.063 46.368C136.823 46.608 136.567 46.768 136.295 46.864C136.023 46.96 135.663 47 135.215 47H132.991V41.304ZM133.983 42.152V46.16H135.159C135.783 46.16 136.223 45.984 136.479 45.616C136.735 45.256 136.863 44.752 136.863 44.104C136.863 43.496 136.719 43.016 136.431 42.672C136.143 42.328 135.695 42.152 135.095 42.152H133.983ZM141.18 41.368V47H140.204V43.128H138.812V42.456C139.78 42.456 140.324 42.096 140.444 41.368H141.18Z" fill="black"/>
<path d="M84.8859 129L86.4099 126.786L84.9939 124.728H85.8879L86.8599 126.24L87.8739 124.728H88.7139L87.2979 126.786L88.8159 129H87.9039L86.8359 127.368L85.7499 129H84.8859Z" fill="#060C12"/>
<path d="M22.0044 127L24.3027 128.327V125.673L22.0044 127ZM82.4531 127.23H82.6829V126.77H82.4531V127.23ZM24.0728 127V127.23H82.4531V127V126.77H24.0728V127Z" fill="black"/>
<path d="M154.003 127L151.705 128.327V125.673L154.003 127ZM93.5547 127.23H93.3249V126.77H93.5547V127.23ZM151.935 127V127.23H93.5547V127V126.77H151.935V127Z" fill="black"/>
<path d="M160.93 65.3725L159.322 67.9465V69.6445H158.584V67.9465L156.97 65.3725H157.834L158.968 67.2625L160.09 65.3725H160.93Z" fill="#060C12"/>
<path d="M158.727 14.9998L160.053 17.298L157.4 17.298L158.727 14.9998ZM158.956 63.542L158.956 63.7718L158.497 63.7718L158.497 63.542L158.956 63.542ZM158.727 17.0682L158.956 17.0682L158.956 63.542L158.727 63.542L158.497 63.542L158.497 17.0682L158.727 17.0682Z" fill="black"/>
<path d="M158.727 121L160.053 118.701L157.4 118.701L158.727 121ZM158.956 72.4575L158.956 72.2277L158.497 72.2277L158.497 72.4575L158.956 72.4575ZM158.727 118.931L158.956 118.931L158.956 72.4575L158.727 72.4575L158.497 72.4575L158.497 118.931L158.727 118.931Z" fill="black"/>
</svg>
