<svg width="176" height="136" viewBox="0 0 176 136" fill="none" xmlns="http://www.w3.org/2000/svg">
<path d="M0 16C0 7.16344 7.16344 0 16 0H160C168.837 0 176 7.16344 176 16V120C176 128.837 168.837 136 160 136H16C7.16344 136 0 128.837 0 120V16Z" fill="white"/>
<path d="M16 0.5H160C168.56 0.5 175.5 7.43959 175.5 16V120C175.5 128.56 168.56 135.5 160 135.5H16C7.43959 135.5 0.5 128.56 0.5 120V16C0.5 7.43959 7.43959 0.5 16 0.5Z" stroke="#B02E0C" stroke-opacity="0.16"/>
<path d="M157.196 15.7998V121.2H16.8232V15.7998H157.196Z" stroke="black" stroke-width="1.6"/>
<path d="M30.5635 20.7998H144.444C148.73 20.8 152.204 24.2742 152.204 28.5596V107.44C152.204 111.726 148.73 115.2 144.444 115.2H30.5635C26.2781 115.2 22.8039 111.726 22.8037 107.44V28.5596C22.8039 24.2742 26.2781 20.8 30.5635 20.7998Z" stroke="#FF9411" stroke-width="1.6"/>
<path d="M64.5635 20.7998H108.444C112.73 20.8 116.204 24.2742 116.204 28.5596V107.44C116.204 111.726 112.73 115.2 108.444 115.2H64.5635C60.2781 115.2 56.8039 111.726 56.8037 107.44V28.5596C56.8039 24.2742 60.2781 20.8 64.5635 20.7998Z" stroke="#FF9411" stroke-width="1.6"/>
<path d="M30.5635 45.7998H144.444C148.73 45.8 152.204 49.2742 152.204 53.5596V84.4404C152.204 88.7258 148.73 92.2 144.444 92.2002H30.5635C26.2781 92.2 22.8039 88.7258 22.8037 84.4404V53.5596C22.8039 49.2742 26.2781 45.8 30.5635 45.7998Z" stroke="#FF9411" stroke-width="1.6"/>
<circle cx="34.0039" cy="32" r="5.1975" stroke="black" stroke-width="1.605"/>
<circle cx="34.0039" cy="104" r="5.1975" stroke="black" stroke-width="1.605"/>
<circle cx="34.0039" cy="80" r="5.1975" transform="rotate(-90 34.0039 80)" stroke="black" stroke-width="1.605"/>
<circle cx="34.0039" cy="80" r="5.1975" transform="rotate(-90 34.0039 80)" stroke="black" stroke-width="1.605"/>
<circle cx="141.004" cy="80" r="5.1975" transform="rotate(-90 141.004 80)" stroke="black" stroke-width="1.605"/>
<circle cx="69.0039" cy="32" r="5.1975" stroke="black" stroke-width="1.605"/>
<circle cx="69.0039" cy="104" r="5.1975" stroke="black" stroke-width="1.605"/>
<circle cx="34.0039" cy="56" r="5.1975" transform="rotate(-90 34.0039 56)" stroke="black" stroke-width="1.605"/>
<circle cx="34.0039" cy="56" r="5.1975" transform="rotate(-90 34.0039 56)" stroke="black" stroke-width="1.605"/>
<circle cx="141.004" cy="56" r="5.1975" transform="rotate(-90 141.004 56)" stroke="black" stroke-width="1.605"/>
<circle cx="104.004" cy="32" r="5.1975" stroke="black" stroke-width="1.605"/>
<circle cx="104.004" cy="104" r="5.1975" stroke="black" stroke-width="1.605"/>
<circle cx="141.004" cy="32" r="5.1975" stroke="black" stroke-width="1.605"/>
<circle cx="141.004" cy="104" r="5.1975" stroke="black" stroke-width="1.605"/>
<path d="M139.785 39.728H141.411C141.705 39.728 141.963 39.764 142.191 39.824C142.413 39.884 142.617 39.998 142.809 40.166C143.229 40.544 143.439 41.084 143.439 41.792C143.439 42.548 143.235 43.13 142.839 43.526C142.659 43.706 142.467 43.826 142.263 43.898C142.059 43.97 141.789 44 141.453 44H139.785V39.728ZM140.529 40.364V43.37H141.411C141.879 43.37 142.209 43.238 142.401 42.962C142.593 42.692 142.689 42.314 142.689 41.828C142.689 41.372 142.581 41.012 142.365 40.754C142.149 40.496 141.813 40.364 141.363 40.364H140.529Z" fill="black"/>
<path d="M76.1979 72.728H78.2199C78.6399 72.728 78.9879 72.824 79.2579 73.016C79.5219 73.208 79.6599 73.508 79.6599 73.916C79.6599 74.174 79.5939 74.396 79.4739 74.576C79.3479 74.756 79.1739 74.888 78.9519 74.966C79.0539 74.99 79.1439 75.026 79.2219 75.074C79.2939 75.122 79.3539 75.176 79.3959 75.23C79.4379 75.29 79.4739 75.362 79.5039 75.446C79.5279 75.536 79.5459 75.614 79.5579 75.68C79.5699 75.746 79.5759 75.83 79.5879 75.938C79.5879 75.968 79.5939 76.022 79.5999 76.1C79.6059 76.184 79.6119 76.238 79.6119 76.262C79.6119 76.286 79.6179 76.334 79.6239 76.394C79.6299 76.46 79.6359 76.508 79.6419 76.532C79.6419 76.556 79.6479 76.598 79.6599 76.646C79.6719 76.694 79.6779 76.736 79.6899 76.76C79.6959 76.784 79.7079 76.814 79.7199 76.85C79.7319 76.886 79.7439 76.91 79.7619 76.934C79.7739 76.958 79.7919 76.982 79.8159 77H79.0119C78.9999 76.988 78.9879 76.97 78.9759 76.946C78.9639 76.922 78.9579 76.898 78.9519 76.874C78.9399 76.85 78.9339 76.826 78.9339 76.802C78.9279 76.778 78.9219 76.748 78.9159 76.712C78.9099 76.676 78.9099 76.64 78.9099 76.616L78.8979 76.508L78.8859 76.4C78.8859 76.376 78.8799 76.334 78.8799 76.274C78.8739 76.214 78.8739 76.172 78.8739 76.148C78.8499 75.8 78.7779 75.566 78.6519 75.434C78.5259 75.302 78.2859 75.236 77.9379 75.236H76.9419V77H76.1979V72.728ZM76.9419 73.34V74.678H77.9319C78.0759 74.678 78.1959 74.672 78.2979 74.654C78.3939 74.642 78.4959 74.612 78.5979 74.57C78.6999 74.528 78.7779 74.456 78.8319 74.36C78.8859 74.264 78.9159 74.144 78.9159 73.994C78.9159 73.862 78.8919 73.748 78.8439 73.658C78.7959 73.568 78.7239 73.502 78.6339 73.454C78.5439 73.412 78.4539 73.382 78.3579 73.364C78.2619 73.352 78.1539 73.34 78.0279 73.34H76.9419ZM80.2425 74.15C80.2545 73.718 80.3805 73.382 80.6265 73.13C80.8665 72.884 81.1965 72.758 81.6105 72.758C81.9945 72.758 82.3125 72.866 82.5525 73.07C82.7925 73.28 82.9125 73.55 82.9125 73.886C82.9125 74.09 82.8585 74.27 82.7505 74.426C82.6425 74.582 82.5045 74.684 82.3245 74.744C82.5585 74.804 82.7445 74.924 82.8825 75.098C83.0145 75.272 83.0865 75.482 83.0865 75.734C83.0865 76.136 82.9485 76.46 82.6725 76.712C82.3965 76.964 82.0365 77.09 81.5985 77.09C81.1605 77.09 80.8065 76.964 80.5425 76.712C80.2725 76.46 80.1405 76.13 80.1405 75.71V75.62H80.8005C80.8185 76.208 81.0885 76.502 81.6165 76.502C81.8445 76.502 82.0305 76.436 82.1685 76.304C82.3005 76.172 82.3725 75.986 82.3725 75.752C82.3725 75.512 82.2945 75.332 82.1385 75.218C81.9825 75.11 81.7785 75.05 81.5325 75.05C81.4545 75.05 81.3825 75.056 81.3165 75.056V74.54H81.3765C81.4965 74.54 81.6045 74.534 81.6945 74.522C81.7785 74.51 81.8685 74.48 81.9585 74.444C82.0485 74.408 82.1205 74.342 82.1685 74.258C82.2165 74.174 82.2405 74.066 82.2405 73.934C82.2405 73.754 82.1805 73.604 82.0665 73.49C81.9465 73.382 81.7905 73.322 81.5985 73.322C81.1485 73.322 80.9145 73.598 80.8965 74.15H80.2425Z" fill="#060C12"/>
<path d="M58.0021 75L60.3004 73.6731V76.3269L58.0021 75ZM73.707 74.7702H73.9369V75.2298H73.707V74.7702ZM60.0705 75V74.7702H73.707V75V75.2298H60.0705V75Z" fill="black"/>
<path d="M83.7062 129L85.2302 126.786L83.8142 124.728H84.7082L85.6802 126.24L86.6942 124.728H87.5342L86.1182 126.786L87.6362 129H86.7242L85.6562 127.368L84.5702 129H83.7062Z" fill="#060C12"/>
<path d="M16.0003 127L18.2985 128.327V125.673L16.0003 127ZM81.0859 127.23H81.3158V126.77H81.0859V127.23ZM18.0687 127V127.23H81.0859V127V126.77H18.0687V127Z" fill="black"/>
<path d="M158.125 127L155.826 128.327V125.673L158.125 127ZM93.0391 127.23H92.8092V126.77H93.0391V127.23ZM156.056 127V127.23H93.0391V127V126.77H156.056V127Z" fill="black"/>
<path d="M163.469 66.728L161.861 69.302V71H161.123V69.302L159.509 66.728H160.373L161.507 68.618L162.629 66.728H163.469Z" fill="#060C12"/>
<path d="M162.27 15L163.596 17.2982L160.943 17.2982L162.27 15ZM162.499 64L162.499 64.2298L162.04 64.2298L162.04 64L162.499 64ZM162.27 17.0684L162.499 17.0684L162.499 64L162.27 64L162.04 64L162.04 17.0684L162.27 17.0684Z" fill="black"/>
<path d="M162.27 122L163.596 119.702L160.943 119.702L162.27 122ZM162.499 73L162.499 72.7702L162.04 72.7702L162.04 73L162.499 73ZM162.27 119.932L162.499 119.932L162.499 73L162.27 73L162.04 73L162.04 119.932L162.27 119.932Z" fill="black"/>
<path d="M39.8034 68.728H41.8254C42.2454 68.728 42.5934 68.824 42.8634 69.016C43.1274 69.208 43.2654 69.508 43.2654 69.916C43.2654 70.174 43.1994 70.396 43.0794 70.576C42.9534 70.756 42.7794 70.888 42.5574 70.966C42.6594 70.99 42.7494 71.026 42.8274 71.074C42.8994 71.122 42.9594 71.176 43.0014 71.23C43.0434 71.29 43.0794 71.362 43.1094 71.446C43.1334 71.536 43.1514 71.614 43.1634 71.68C43.1754 71.746 43.1814 71.83 43.1934 71.938C43.1934 71.968 43.1994 72.022 43.2054 72.1C43.2114 72.184 43.2174 72.238 43.2174 72.262C43.2174 72.286 43.2234 72.334 43.2294 72.394C43.2354 72.46 43.2414 72.508 43.2474 72.532C43.2474 72.556 43.2534 72.598 43.2654 72.646C43.2774 72.694 43.2834 72.736 43.2954 72.76C43.3014 72.784 43.3134 72.814 43.3254 72.85C43.3374 72.886 43.3494 72.91 43.3674 72.934C43.3794 72.958 43.3974 72.982 43.4214 73H42.6174C42.6054 72.988 42.5934 72.97 42.5814 72.946C42.5694 72.922 42.5634 72.898 42.5574 72.874C42.5454 72.85 42.5394 72.826 42.5394 72.802C42.5334 72.778 42.5274 72.748 42.5214 72.712C42.5154 72.676 42.5154 72.64 42.5154 72.616L42.5034 72.508L42.4914 72.4C42.4914 72.376 42.4854 72.334 42.4854 72.274C42.4794 72.214 42.4794 72.172 42.4794 72.148C42.4554 71.8 42.3834 71.566 42.2574 71.434C42.1314 71.302 41.8914 71.236 41.5434 71.236H40.5474V73H39.8034V68.728ZM40.5474 69.34V70.678H41.5374C41.6814 70.678 41.8014 70.672 41.9034 70.654C41.9994 70.642 42.1014 70.612 42.2034 70.57C42.3054 70.528 42.3834 70.456 42.4374 70.36C42.4914 70.264 42.5214 70.144 42.5214 69.994C42.5214 69.862 42.4974 69.748 42.4494 69.658C42.4014 69.568 42.3294 69.502 42.2394 69.454C42.1494 69.412 42.0594 69.382 41.9634 69.364C41.8674 69.352 41.7594 69.34 41.6334 69.34H40.5474Z" fill="#060C12"/>
<path d="M21.6076 71L23.9058 69.6731V72.3269L21.6076 71ZM37.3125 70.7702H37.5423V71.2298H37.3125V70.7702ZM23.676 71V70.7702H37.3125V71V71.2298H23.676V71Z" fill="black"/>
<path d="M77.6647 52.728H79.6867C80.1067 52.728 80.4547 52.824 80.7247 53.016C80.9887 53.208 81.1267 53.508 81.1267 53.916C81.1267 54.174 81.0607 54.396 80.9407 54.576C80.8147 54.756 80.6407 54.888 80.4187 54.966C80.5207 54.99 80.6107 55.026 80.6887 55.074C80.7607 55.122 80.8207 55.176 80.8627 55.23C80.9047 55.29 80.9407 55.362 80.9707 55.446C80.9947 55.536 81.0127 55.614 81.0247 55.68C81.0367 55.746 81.0427 55.83 81.0547 55.938C81.0547 55.968 81.0607 56.022 81.0667 56.1C81.0727 56.184 81.0787 56.238 81.0787 56.262C81.0787 56.286 81.0847 56.334 81.0907 56.394C81.0967 56.46 81.1027 56.508 81.1087 56.532C81.1087 56.556 81.1147 56.598 81.1267 56.646C81.1387 56.694 81.1447 56.736 81.1567 56.76C81.1627 56.784 81.1747 56.814 81.1867 56.85C81.1987 56.886 81.2107 56.91 81.2287 56.934C81.2407 56.958 81.2587 56.982 81.2827 57H80.4787C80.4667 56.988 80.4547 56.97 80.4427 56.946C80.4307 56.922 80.4247 56.898 80.4187 56.874C80.4067 56.85 80.4007 56.826 80.4007 56.802C80.3947 56.778 80.3887 56.748 80.3827 56.712C80.3767 56.676 80.3767 56.64 80.3767 56.616L80.3647 56.508L80.3527 56.4C80.3527 56.376 80.3467 56.334 80.3467 56.274C80.3407 56.214 80.3407 56.172 80.3407 56.148C80.3167 55.8 80.2447 55.566 80.1187 55.434C79.9927 55.302 79.7527 55.236 79.4047 55.236H78.4087V57H77.6647V52.728ZM78.4087 53.34V54.678H79.3987C79.5427 54.678 79.6627 54.672 79.7647 54.654C79.8607 54.642 79.9627 54.612 80.0647 54.57C80.1667 54.528 80.2447 54.456 80.2987 54.36C80.3527 54.264 80.3827 54.144 80.3827 53.994C80.3827 53.862 80.3587 53.748 80.3107 53.658C80.2627 53.568 80.1907 53.502 80.1007 53.454C80.0107 53.412 79.9207 53.382 79.8247 53.364C79.7287 53.352 79.6207 53.34 79.4947 53.34H78.4087ZM84.4513 56.394V57H81.5833C81.5833 56.814 81.6133 56.64 81.6613 56.484C81.7093 56.328 81.7633 56.196 81.8233 56.088C81.8833 55.98 81.9793 55.866 82.0993 55.752C82.2193 55.638 82.3333 55.542 82.4293 55.47C82.5253 55.398 82.6633 55.302 82.8373 55.182C82.8493 55.176 82.9033 55.14 83.0113 55.068C83.1193 54.996 83.1853 54.954 83.2093 54.936C83.2333 54.918 83.2873 54.876 83.3713 54.81C83.4553 54.744 83.5093 54.69 83.5333 54.648C83.5573 54.612 83.5933 54.558 83.6413 54.486C83.6893 54.42 83.7193 54.354 83.7373 54.282C83.7493 54.21 83.7613 54.138 83.7613 54.054C83.7613 53.838 83.6953 53.664 83.5753 53.538C83.4553 53.412 83.2873 53.346 83.0833 53.346C82.9633 53.346 82.8553 53.37 82.7713 53.406C82.6813 53.442 82.6093 53.49 82.5613 53.55C82.5133 53.61 82.4713 53.688 82.4413 53.784C82.4053 53.88 82.3873 53.964 82.3753 54.048C82.3633 54.132 82.3573 54.234 82.3573 54.342H81.6913V54.234C81.6913 53.784 81.8173 53.424 82.0693 53.16C82.3213 52.896 82.6693 52.758 83.1013 52.758C83.5093 52.758 83.8333 52.878 84.0853 53.106C84.3313 53.334 84.4573 53.64 84.4573 54.018C84.4573 54.174 84.4333 54.318 84.3853 54.45C84.3373 54.588 84.2833 54.696 84.2293 54.78C84.1753 54.864 84.0853 54.966 83.9533 55.074C83.8213 55.188 83.7193 55.266 83.6593 55.308C83.5933 55.356 83.4733 55.434 83.3053 55.548C82.8013 55.872 82.5013 56.154 82.4053 56.394H84.4513Z" fill="black"/>
<path d="M65.7298 47V46.7702H65.2702V47H65.7298ZM65.5 54.5H65.2702V54.7298H65.5V54.5ZM76 54.5L73.7018 53.1731V55.8269L76 54.5ZM65.5 47H65.2702V54.5H65.5H65.7298V47H65.5ZM65.5 54.5V54.7298H73.9316V54.5V54.2702H65.5V54.5Z" fill="black"/>
<path d="M27.06 43.0245C16.7332 18.8767 27.0603 15.6137 47.2605 28.2312" stroke="#B02E0C" stroke-width="1.62648" stroke-linecap="round"/>
<path d="M61.06 43.0245C50.7332 18.8767 61.0603 15.6137 81.2605 28.2312" stroke="#B02E0C" stroke-width="1.62648" stroke-linecap="round"/>
<path d="M27.06 68.0245C16.7332 43.8767 27.0603 40.6137 47.2605 53.2312" stroke="#B02E0C" stroke-width="1.62648" stroke-linecap="round"/>
<path d="M46.444 33.728H48.466C48.886 33.728 49.234 33.824 49.504 34.016C49.768 34.208 49.906 34.508 49.906 34.916C49.906 35.174 49.84 35.396 49.72 35.576C49.594 35.756 49.42 35.888 49.198 35.966C49.3 35.99 49.39 36.026 49.468 36.074C49.54 36.122 49.6 36.176 49.642 36.23C49.684 36.29 49.72 36.362 49.75 36.446C49.774 36.536 49.792 36.614 49.804 36.68C49.816 36.746 49.822 36.83 49.834 36.938C49.834 36.968 49.84 37.022 49.846 37.1C49.852 37.184 49.858 37.238 49.858 37.262C49.858 37.286 49.864 37.334 49.87 37.394C49.876 37.46 49.882 37.508 49.888 37.532C49.888 37.556 49.894 37.598 49.906 37.646C49.918 37.694 49.924 37.736 49.936 37.76C49.942 37.784 49.954 37.814 49.966 37.85C49.978 37.886 49.99 37.91 50.008 37.934C50.02 37.958 50.038 37.982 50.062 38H49.258C49.246 37.988 49.234 37.97 49.222 37.946C49.21 37.922 49.204 37.898 49.198 37.874C49.186 37.85 49.18 37.826 49.18 37.802C49.174 37.778 49.168 37.748 49.162 37.712C49.156 37.676 49.156 37.64 49.156 37.616L49.144 37.508L49.132 37.4C49.132 37.376 49.126 37.334 49.126 37.274C49.12 37.214 49.12 37.172 49.12 37.148C49.096 36.8 49.024 36.566 48.898 36.434C48.772 36.302 48.532 36.236 48.184 36.236H47.188V38H46.444V33.728ZM47.188 34.34V35.678H48.178C48.322 35.678 48.442 35.672 48.544 35.654C48.64 35.642 48.742 35.612 48.844 35.57C48.946 35.528 49.024 35.456 49.078 35.36C49.132 35.264 49.162 35.144 49.162 34.994C49.162 34.862 49.138 34.748 49.09 34.658C49.042 34.568 48.97 34.502 48.88 34.454C48.79 34.412 48.7 34.382 48.604 34.364C48.508 34.352 48.4 34.34 48.274 34.34H47.188ZM52.4866 33.776V38H51.7546V35.096H50.7106V34.592C51.4366 34.592 51.8446 34.322 51.9346 33.776H52.4866Z" fill="#060C12"/>
<path d="M50 21L48.6731 23.2982H51.3269L50 21ZM49.7702 32.5V32.7298H50.2298V32.5H49.7702ZM50 23.0684H49.7702V32.5H50H50.2298V23.0684H50Z" fill="black"/>
</svg>
