<svg width="176" height="136" viewBox="0 0 176 136" fill="none" xmlns="http://www.w3.org/2000/svg">
<path d="M0 16C0 7.16344 7.16344 0 16 0H160C168.837 0 176 7.16344 176 16V120C176 128.837 168.837 136 160 136H16C7.16344 136 0 128.837 0 120V16Z" fill="white"/>
<path d="M16 0.5H160C168.56 0.5 175.5 7.43959 175.5 16V120C175.5 128.56 168.56 135.5 160 135.5H16C7.43959 135.5 0.5 128.56 0.5 120V16C0.5 7.43959 7.43959 0.5 16 0.5Z" stroke="#B02E0C" stroke-opacity="0.16"/>
<path d="M161.504 21.6504V107.366H6.65039V21.6504H161.504Z" stroke="black" stroke-width="1.30118"/>
<path d="M19.0898 27.6587H149.168C152.653 27.6589 155.478 30.4842 155.479 33.9692V95.0474C155.478 98.5324 152.653 101.358 149.168 101.358H19.0898C15.6048 101.358 12.7795 98.5324 12.7793 95.0474V33.9692C12.7795 30.4842 15.6048 27.6589 19.0898 27.6587Z" stroke="#FF9411" stroke-width="1.30118"/>
<circle cx="22.7345" cy="38.7033" r="6.02915" stroke="black" stroke-width="1.30525"/>
<circle cx="22.5" cy="65.5" r="4.84738" stroke="black" stroke-width="1.30525"/>
<circle cx="22.7345" cy="90.6603" r="6.02915" stroke="black" stroke-width="1.30525"/>
<circle cx="142.5" cy="65.5" r="4.84738" stroke="black" stroke-width="1.30525"/>
<circle cx="63.8107" cy="38.6901" r="6.02915" stroke="black" stroke-width="1.30525"/>
<circle cx="63.8107" cy="90.6901" r="6.02915" stroke="black" stroke-width="1.30525"/>
<circle cx="102.811" cy="38.6901" r="6.02915" stroke="black" stroke-width="1.30525"/>
<circle cx="102.811" cy="90.6901" r="6.02915" stroke="black" stroke-width="1.30525"/>
<circle cx="142.682" cy="38.6901" r="6.02915" stroke="black" stroke-width="1.30525"/>
<circle cx="142.682" cy="90.6901" r="6.02915" stroke="black" stroke-width="1.30525"/>
<path d="M16.4975 50.1569C6.17071 26.009 16.4978 22.746 36.698 35.3635" stroke="#B02E0C" stroke-width="1.62648" stroke-linecap="round"/>
<path d="M99.7469 48.7363H101.373C101.667 48.7363 101.925 48.7723 102.153 48.8323C102.375 48.8923 102.579 49.0063 102.771 49.1743C103.191 49.5523 103.401 50.0923 103.401 50.8003C103.401 51.5563 103.197 52.1383 102.801 52.5343C102.621 52.7143 102.429 52.8343 102.225 52.9063C102.021 52.9783 101.751 53.0083 101.415 53.0083H99.7469V48.7363ZM100.491 49.3723V52.3783H101.373C101.841 52.3783 102.171 52.2463 102.363 51.9703C102.555 51.7003 102.651 51.3223 102.651 50.8363C102.651 50.3803 102.543 50.0203 102.327 49.7623C102.111 49.5043 101.775 49.3723 101.325 49.3723H100.491ZM106.633 52.4023V53.0083H103.765C103.765 52.8223 103.795 52.6483 103.843 52.4923C103.891 52.3363 103.945 52.2043 104.005 52.0963C104.065 51.9883 104.161 51.8743 104.281 51.7603C104.401 51.6463 104.515 51.5503 104.611 51.4783C104.707 51.4063 104.845 51.3103 105.019 51.1903C105.031 51.1843 105.085 51.1483 105.193 51.0763C105.301 51.0043 105.367 50.9623 105.391 50.9443C105.415 50.9263 105.469 50.8843 105.553 50.8183C105.637 50.7523 105.691 50.6983 105.715 50.6563C105.739 50.6203 105.775 50.5663 105.823 50.4943C105.871 50.4283 105.901 50.3623 105.919 50.2903C105.931 50.2183 105.943 50.1463 105.943 50.0623C105.943 49.8463 105.877 49.6723 105.757 49.5463C105.637 49.4203 105.469 49.3543 105.265 49.3543C105.145 49.3543 105.037 49.3783 104.953 49.4143C104.863 49.4503 104.791 49.4983 104.743 49.5583C104.695 49.6183 104.653 49.6963 104.623 49.7923C104.587 49.8883 104.569 49.9723 104.557 50.0563C104.545 50.1403 104.539 50.2423 104.539 50.3503H103.873V50.2423C103.873 49.7923 103.999 49.4323 104.251 49.1683C104.503 48.9043 104.851 48.7663 105.283 48.7663C105.691 48.7663 106.015 48.8863 106.267 49.1143C106.513 49.3423 106.639 49.6483 106.639 50.0263C106.639 50.1823 106.615 50.3263 106.567 50.4583C106.519 50.5963 106.465 50.7043 106.411 50.7883C106.357 50.8723 106.267 50.9743 106.135 51.0823C106.003 51.1963 105.901 51.2743 105.841 51.3163C105.775 51.3643 105.655 51.4423 105.487 51.5563C104.983 51.8803 104.683 52.1623 104.587 52.4023H106.633Z" fill="black"/>
<path d="M139.618 53.728H141.244C141.538 53.728 141.796 53.764 142.024 53.824C142.246 53.884 142.45 53.998 142.642 54.166C143.062 54.544 143.272 55.084 143.272 55.792C143.272 56.548 143.068 57.13 142.672 57.526C142.492 57.706 142.3 57.826 142.096 57.898C141.892 57.97 141.622 58 141.286 58H139.618V53.728ZM140.362 54.364V57.37H141.244C141.712 57.37 142.042 57.238 142.234 56.962C142.426 56.692 142.522 56.314 142.522 55.828C142.522 55.372 142.414 55.012 142.198 54.754C141.982 54.496 141.646 54.364 141.196 54.364H140.362ZM145.76 53.776V58H145.028V55.096H143.984V54.592C144.71 54.592 145.118 54.322 145.208 53.776H145.76Z" fill="black"/>
<path d="M26.5729 76.7363H28.5949C29.0149 76.7363 29.3629 76.8323 29.6329 77.0243C29.8969 77.2163 30.0349 77.5163 30.0349 77.9243C30.0349 78.1823 29.9689 78.4043 29.8489 78.5843C29.7229 78.7643 29.5489 78.8963 29.3269 78.9743C29.4289 78.9983 29.5189 79.0343 29.5969 79.0823C29.6689 79.1303 29.7289 79.1843 29.7709 79.2383C29.8129 79.2983 29.8489 79.3703 29.8789 79.4543C29.9029 79.5443 29.9209 79.6223 29.9329 79.6883C29.9449 79.7543 29.9509 79.8383 29.9629 79.9463C29.9629 79.9763 29.9689 80.0303 29.9749 80.1083C29.9809 80.1923 29.9869 80.2463 29.9869 80.2703C29.9869 80.2943 29.9929 80.3423 29.9989 80.4023C30.0049 80.4683 30.0109 80.5163 30.0169 80.5403C30.0169 80.5643 30.0229 80.6063 30.0349 80.6543C30.0469 80.7023 30.0529 80.7443 30.0649 80.7683C30.0709 80.7923 30.0829 80.8223 30.0949 80.8583C30.1069 80.8943 30.1189 80.9183 30.1369 80.9423C30.1489 80.9663 30.1669 80.9903 30.1909 81.0083H29.3869C29.3749 80.9963 29.3629 80.9783 29.3509 80.9543C29.3389 80.9303 29.3329 80.9063 29.3269 80.8823C29.3149 80.8583 29.3089 80.8343 29.3089 80.8103C29.3029 80.7863 29.2969 80.7563 29.2909 80.7203C29.2849 80.6843 29.2849 80.6483 29.2849 80.6243L29.2729 80.5163L29.2609 80.4083C29.2609 80.3843 29.2549 80.3423 29.2549 80.2823C29.2489 80.2223 29.2489 80.1803 29.2489 80.1563C29.2249 79.8083 29.1529 79.5743 29.0269 79.4423C28.9009 79.3103 28.6609 79.2443 28.3129 79.2443H27.3169V81.0083H26.5729V76.7363ZM27.3169 77.3483V78.6863H28.3069C28.4509 78.6863 28.5709 78.6803 28.6729 78.6623C28.7689 78.6503 28.8709 78.6203 28.9729 78.5783C29.0749 78.5363 29.1529 78.4643 29.2069 78.3683C29.2609 78.2723 29.2909 78.1523 29.2909 78.0023C29.2909 77.8703 29.2669 77.7563 29.2189 77.6663C29.1709 77.5763 29.0989 77.5103 29.0089 77.4623C28.9189 77.4203 28.8289 77.3903 28.7329 77.3723C28.6369 77.3603 28.5289 77.3483 28.4029 77.3483H27.3169Z" fill="#060C12"/>
<path d="M13.1289 79.0083L15.4271 77.6814V80.3352L13.1289 79.0083ZM24.6289 78.7785H24.8587V79.2381H24.6289V78.7785ZM15.1973 79.0083V78.7785H24.6289V79.0083V79.2381H15.1973V79.0083Z" fill="black"/>
<path d="M67.5729 61.7363H69.5949C70.0149 61.7363 70.3629 61.8323 70.6329 62.0243C70.8969 62.2163 71.0349 62.5163 71.0349 62.9243C71.0349 63.1823 70.9689 63.4043 70.8489 63.5843C70.7229 63.7643 70.5489 63.8963 70.3269 63.9743C70.4289 63.9983 70.5189 64.0343 70.5969 64.0823C70.6689 64.1303 70.7289 64.1843 70.7709 64.2383C70.8129 64.2983 70.8489 64.3703 70.8789 64.4543C70.9029 64.5443 70.9209 64.6223 70.9329 64.6883C70.9449 64.7543 70.9509 64.8383 70.9629 64.9463C70.9629 64.9763 70.9689 65.0303 70.9749 65.1083C70.9809 65.1923 70.9869 65.2463 70.9869 65.2703C70.9869 65.2943 70.9929 65.3423 70.9989 65.4023C71.0049 65.4683 71.0109 65.5163 71.0169 65.5403C71.0169 65.5643 71.0229 65.6063 71.0349 65.6543C71.0469 65.7023 71.0529 65.7443 71.0649 65.7683C71.0709 65.7923 71.0829 65.8223 71.0949 65.8583C71.1069 65.8943 71.1189 65.9183 71.1369 65.9423C71.1489 65.9663 71.1669 65.9903 71.1909 66.0083H70.3869C70.3749 65.9963 70.3629 65.9783 70.3509 65.9543C70.3389 65.9303 70.3329 65.9063 70.3269 65.8823C70.3149 65.8583 70.3089 65.8343 70.3089 65.8103C70.3029 65.7863 70.2969 65.7563 70.2909 65.7203C70.2849 65.6843 70.2849 65.6483 70.2849 65.6243L70.2729 65.5163L70.2609 65.4083C70.2609 65.3843 70.2549 65.3423 70.2549 65.2823C70.2489 65.2223 70.2489 65.1803 70.2489 65.1563C70.2249 64.8083 70.1529 64.5743 70.0269 64.4423C69.9009 64.3103 69.6609 64.2443 69.3129 64.2443H68.3169V66.0083H67.5729V61.7363ZM68.3169 62.3483V63.6863H69.3069C69.4509 63.6863 69.5709 63.6803 69.6729 63.6623C69.7689 63.6503 69.8709 63.6203 69.9729 63.5783C70.0749 63.5363 70.1529 63.4643 70.2069 63.3683C70.2609 63.2723 70.2909 63.1523 70.2909 63.0023C70.2909 62.8703 70.2669 62.7563 70.2189 62.6663C70.1709 62.5763 70.0989 62.5103 70.0089 62.4623C69.9189 62.4203 69.8289 62.3903 69.7329 62.3723C69.6369 62.3603 69.5289 62.3483 69.4029 62.3483H68.3169ZM74.3595 65.4023V66.0083H71.4915C71.4915 65.8223 71.5215 65.6483 71.5695 65.4923C71.6175 65.3363 71.6715 65.2043 71.7315 65.0963C71.7915 64.9883 71.8875 64.8743 72.0075 64.7603C72.1275 64.6463 72.2415 64.5503 72.3375 64.4783C72.4335 64.4063 72.5715 64.3103 72.7455 64.1903C72.7575 64.1843 72.8115 64.1483 72.9195 64.0763C73.0275 64.0043 73.0935 63.9623 73.1175 63.9443C73.1415 63.9263 73.1955 63.8843 73.2795 63.8183C73.3635 63.7523 73.4175 63.6983 73.4415 63.6563C73.4655 63.6203 73.5015 63.5663 73.5495 63.4943C73.5975 63.4283 73.6275 63.3623 73.6455 63.2903C73.6575 63.2183 73.6695 63.1463 73.6695 63.0623C73.6695 62.8463 73.6035 62.6723 73.4835 62.5463C73.3635 62.4203 73.1955 62.3543 72.9915 62.3543C72.8715 62.3543 72.7635 62.3783 72.6795 62.4143C72.5895 62.4503 72.5175 62.4983 72.4695 62.5583C72.4215 62.6183 72.3795 62.6963 72.3495 62.7923C72.3135 62.8883 72.2955 62.9723 72.2835 63.0563C72.2715 63.1403 72.2655 63.2423 72.2655 63.3503H71.5995V63.2423C71.5995 62.7923 71.7255 62.4323 71.9775 62.1683C72.2295 61.9043 72.5775 61.7663 73.0095 61.7663C73.4175 61.7663 73.7415 61.8863 73.9935 62.1143C74.2395 62.3423 74.3655 62.6483 74.3655 63.0263C74.3655 63.1823 74.3415 63.3263 74.2935 63.4583C74.2455 63.5963 74.1915 63.7043 74.1375 63.7883C74.0835 63.8723 73.9935 63.9743 73.8615 64.0823C73.7295 64.1963 73.6275 64.2743 73.5675 64.3163C73.5015 64.3643 73.3815 64.4423 73.2135 64.5563C72.7095 64.8803 72.4095 65.1623 72.3135 65.4023H74.3595Z" fill="#060C12"/>
<path d="M54.1289 64.0083L56.4271 62.6814V65.3352L54.1289 64.0083ZM65.6289 63.7785H65.8587V64.2381H65.6289V63.7785ZM56.1973 64.0083V63.7785H65.6289V64.0083V64.2381H56.1973V64.0083Z" fill="black"/>
<path d="M80.4464 115.008L81.9704 112.794L80.5544 110.736H81.4484L82.4204 112.248L83.4344 110.736H84.2744L82.8584 112.794L84.3764 115.008H83.4644L82.3964 113.376L81.3104 115.008H80.4464Z" fill="#060C12"/>
<path d="M6.12729 113.008L8.42553 114.335V111.681L6.12729 113.008ZM77.5664 113.238H77.7962V112.778H77.5664V113.238ZM8.1957 113.008V113.238H77.5664V113.008V112.778H8.1957V113.008Z" fill="black"/>
<path d="M162.129 113.008L159.83 114.335V111.681L162.129 113.008ZM90.6895 113.238H90.4596V112.778H90.6895V113.238ZM160.06 113.008V113.238H90.6895V113.008V112.778H160.06V113.008Z" fill="black"/>
<rect x="53.6289" y="27.5083" width="59" height="74" rx="6.5" stroke="#FF9411"/>
<path d="M58.1889 50.0328C47.8621 25.885 58.1892 22.622 78.3894 35.2395" stroke="#B02E0C" stroke-width="1.62648" stroke-linecap="round"/>
<path d="M169.059 63.0166L167.451 65.5906V67.2886H166.713V65.5906L165.099 63.0166H165.963L167.097 64.9066L168.219 63.0166H169.059Z" fill="#060C12"/>
<path d="M167.129 21.0083L165.802 23.3065L168.456 23.3065L167.129 21.0083ZM166.899 59.0083L166.899 59.2381L167.359 59.2381L167.359 59.0083L166.899 59.0083ZM167.129 23.0767L166.899 23.0767L166.899 59.0083L167.129 59.0083L167.359 59.0083L167.359 23.0767L167.129 23.0767Z" fill="black"/>
<path d="M167.129 108.008L168.456 105.71L165.802 105.71L167.129 108.008ZM167.359 70.0083L167.359 69.7785L166.899 69.7785L166.899 70.0083L167.359 70.0083ZM167.129 105.94L167.359 105.94L167.359 70.0083L167.129 70.0083L166.899 70.0083L166.899 105.94L167.129 105.94Z" fill="black"/>
</svg>
