<svg width="176" height="136" viewBox="0 0 176 136" fill="none" xmlns="http://www.w3.org/2000/svg">
<path d="M0 16C0 7.16344 7.16344 0 16 0H160C168.837 0 176 7.16344 176 16V120C176 128.837 168.837 136 160 136H16C7.16344 136 0 128.837 0 120V16Z" fill="white"/>
<path d="M16 0.5H160C168.56 0.5 175.5 7.43959 175.5 16V120C175.5 128.56 168.56 135.5 160 135.5H16C7.43959 135.5 0.5 128.56 0.5 120V16C0.5 7.43959 7.43959 0.5 16 0.5Z" stroke="#B02E0C" stroke-opacity="0.16"/>
<path d="M154.361 24.6421V110.358H20.6504V24.6421H154.361Z" stroke="black" stroke-width="1.30118"/>
<path d="M33.6406 31.1479H141.385C144.87 31.1479 147.696 33.9734 147.696 37.4585V97.5405C147.696 101.026 144.87 103.852 141.385 103.852H33.6406C30.1555 103.852 27.3301 101.026 27.3301 97.5405V37.4585C27.3303 33.9735 30.1556 31.1482 33.6406 31.1479Z" stroke="#FF9411" stroke-width="1.30118"/>
<circle cx="37.0648" cy="92.3031" r="5.56062" stroke="black" stroke-width="1.30525"/>
<circle cx="37.0648" cy="42.6952" r="5.56062" stroke="black" stroke-width="1.30525"/>
<circle cx="87.5101" cy="92.3031" r="5.56062" stroke="black" stroke-width="1.30525"/>
<circle cx="87.5101" cy="42.6952" r="5.56062" stroke="black" stroke-width="1.30525"/>
<circle cx="137.217" cy="92.3031" r="5.56062" stroke="black" stroke-width="1.30525"/>
<circle cx="137.217" cy="42.6952" r="5.56062" stroke="black" stroke-width="1.30525"/>
<path d="M31.6704 54.1486C22.7419 30.0007 31.6707 26.7377 49.1359 39.3552" stroke="#B02E0C" stroke-width="1.62648" stroke-linecap="round"/>
<path d="M83.618 51.728H85.244C85.538 51.728 85.796 51.764 86.024 51.824C86.246 51.884 86.45 51.998 86.642 52.166C87.062 52.544 87.272 53.084 87.272 53.792C87.272 54.548 87.068 55.13 86.672 55.526C86.492 55.706 86.3 55.826 86.096 55.898C85.892 55.97 85.622 56 85.286 56H83.618V51.728ZM84.362 52.364V55.37H85.244C85.712 55.37 86.042 55.238 86.234 54.962C86.426 54.692 86.522 54.314 86.522 53.828C86.522 53.372 86.414 53.012 86.198 52.754C85.982 52.496 85.646 52.364 85.196 52.364H84.362ZM90.504 55.394V56H87.636C87.636 55.814 87.666 55.64 87.714 55.484C87.762 55.328 87.816 55.196 87.876 55.088C87.936 54.98 88.032 54.866 88.152 54.752C88.272 54.638 88.386 54.542 88.482 54.47C88.578 54.398 88.716 54.302 88.89 54.182C88.902 54.176 88.956 54.14 89.064 54.068C89.172 53.996 89.238 53.954 89.262 53.936C89.286 53.918 89.34 53.876 89.424 53.81C89.508 53.744 89.562 53.69 89.586 53.648C89.61 53.612 89.646 53.558 89.694 53.486C89.742 53.42 89.772 53.354 89.79 53.282C89.802 53.21 89.814 53.138 89.814 53.054C89.814 52.838 89.748 52.664 89.628 52.538C89.508 52.412 89.34 52.346 89.136 52.346C89.016 52.346 88.908 52.37 88.824 52.406C88.734 52.442 88.662 52.49 88.614 52.55C88.566 52.61 88.524 52.688 88.494 52.784C88.458 52.88 88.44 52.964 88.428 53.048C88.416 53.132 88.41 53.234 88.41 53.342H87.744V53.234C87.744 52.784 87.87 52.424 88.122 52.16C88.374 51.896 88.722 51.758 89.154 51.758C89.562 51.758 89.886 51.878 90.138 52.106C90.384 52.334 90.51 52.64 90.51 53.018C90.51 53.174 90.486 53.318 90.438 53.45C90.39 53.588 90.336 53.696 90.282 53.78C90.228 53.864 90.138 53.966 90.006 54.074C89.874 54.188 89.772 54.266 89.712 54.308C89.646 54.356 89.526 54.434 89.358 54.548C88.854 54.872 88.554 55.154 88.458 55.394H90.504Z" fill="black"/>
<path d="M133.618 51.728H135.244C135.538 51.728 135.796 51.764 136.024 51.824C136.246 51.884 136.45 51.998 136.642 52.166C137.062 52.544 137.272 53.084 137.272 53.792C137.272 54.548 137.068 55.13 136.672 55.526C136.492 55.706 136.3 55.826 136.096 55.898C135.892 55.97 135.622 56 135.286 56H133.618V51.728ZM134.362 52.364V55.37H135.244C135.712 55.37 136.042 55.238 136.234 54.962C136.426 54.692 136.522 54.314 136.522 53.828C136.522 53.372 136.414 53.012 136.198 52.754C135.982 52.496 135.646 52.364 135.196 52.364H134.362ZM139.76 51.776V56H139.028V53.096H137.984V52.592C138.71 52.592 139.118 52.322 139.208 51.776H139.76Z" fill="black"/>
<path d="M41.444 64.728H43.466C43.886 64.728 44.234 64.824 44.504 65.016C44.768 65.208 44.906 65.508 44.906 65.916C44.906 66.174 44.84 66.396 44.72 66.576C44.594 66.756 44.42 66.888 44.198 66.966C44.3 66.99 44.39 67.026 44.468 67.074C44.54 67.122 44.6 67.176 44.642 67.23C44.684 67.29 44.72 67.362 44.75 67.446C44.774 67.536 44.792 67.614 44.804 67.68C44.816 67.746 44.822 67.83 44.834 67.938C44.834 67.968 44.84 68.022 44.846 68.1C44.852 68.184 44.858 68.238 44.858 68.262C44.858 68.286 44.864 68.334 44.87 68.394C44.876 68.46 44.882 68.508 44.888 68.532C44.888 68.556 44.894 68.598 44.906 68.646C44.918 68.694 44.924 68.736 44.936 68.76C44.942 68.784 44.954 68.814 44.966 68.85C44.978 68.886 44.99 68.91 45.008 68.934C45.02 68.958 45.038 68.982 45.062 69H44.258C44.246 68.988 44.234 68.97 44.222 68.946C44.21 68.922 44.204 68.898 44.198 68.874C44.186 68.85 44.18 68.826 44.18 68.802C44.174 68.778 44.168 68.748 44.162 68.712C44.156 68.676 44.156 68.64 44.156 68.616L44.144 68.508L44.132 68.4C44.132 68.376 44.126 68.334 44.126 68.274C44.12 68.214 44.12 68.172 44.12 68.148C44.096 67.8 44.024 67.566 43.898 67.434C43.772 67.302 43.532 67.236 43.184 67.236H42.188V69H41.444V64.728ZM42.188 65.34V66.678H43.178C43.322 66.678 43.442 66.672 43.544 66.654C43.64 66.642 43.742 66.612 43.844 66.57C43.946 66.528 44.024 66.456 44.078 66.36C44.132 66.264 44.162 66.144 44.162 65.994C44.162 65.862 44.138 65.748 44.09 65.658C44.042 65.568 43.97 65.502 43.88 65.454C43.79 65.412 43.7 65.382 43.604 65.364C43.508 65.352 43.4 65.34 43.274 65.34H42.188Z" fill="#060C12"/>
<path d="M28 67L30.2982 65.6731V68.3269L28 67ZM39.5 66.7702H39.7298V67.2298H39.5V66.7702ZM30.0684 67V66.7702H39.5V67V67.2298H30.0684V67Z" fill="black"/>
<path d="M84.3077 118L85.8318 115.786L84.4158 113.728H85.3098L86.2818 115.24L87.2958 113.728H88.1358L86.7198 115.786L88.2378 118H87.3258L86.2578 116.368L85.1718 118H84.3077Z" fill="#060C12"/>
<path d="M19.9979 116L22.2961 117.327V114.673L19.9979 116ZM81.8203 116.23H82.0501V115.77H81.8203V116.23ZM22.0663 116V116.23H81.8203V116V115.77H22.0663V116Z" fill="black"/>
<path d="M154.998 116L152.7 117.327V114.673L154.998 116ZM93.1758 116.23H92.946V115.77H93.1758V116.23ZM152.93 116V116.23H93.1758V116V115.77H152.93V116Z" fill="black"/>
<path d="M162.93 66.0083L161.322 68.5823V70.2803H160.584V68.5823L158.97 66.0083H159.834L160.968 67.8983L162.09 66.0083H162.93Z" fill="#060C12"/>
<path d="M161 24L159.673 26.2982L162.327 26.2982L161 24ZM160.77 63L160.77 63.2298L161.23 63.2298L161.23 63L160.77 63ZM161 26.0684L160.77 26.0684L160.77 63L161 63L161.23 63L161.23 26.0684L161 26.0684Z" fill="black"/>
<path d="M161 111L162.327 108.702L159.673 108.702L161 111ZM161.23 74L161.23 73.7702L160.77 73.7702L160.77 74L161.23 74ZM161 108.932L161.23 108.932L161.23 74L161 74L160.77 74L160.77 108.932L161 108.932Z" fill="black"/>
</svg>
