<svg width="176" height="136" viewBox="0 0 176 136" fill="none" xmlns="http://www.w3.org/2000/svg">
<path d="M0 16C0 7.16344 7.16344 0 16 0H160C168.837 0 176 7.16344 176 16V120C176 128.837 168.837 136 160 136H16C7.16344 136 0 128.837 0 120V16Z" fill="white"/>
<path d="M16 0.5H160C168.56 0.5 175.5 7.43959 175.5 16V120C175.5 128.56 168.56 135.5 160 135.5H16C7.43959 135.5 0.5 128.56 0.5 120V16C0.5 7.43959 7.43959 0.5 16 0.5Z" stroke="#B02E0C" stroke-opacity="0.16"/>
<path d="M120.343 16.0527L137.87 33.1416L138.046 33.0596V88.2207L137.917 88.2793L74.1113 117.321V117.399H37.957V45.0908H38.1279L101.577 16.0098L101.62 15.9902H120.142L120.235 15.9473L120.343 16.0527ZM38.3965 116.96H73.6709V63.4785L55.7227 45.5303H38.3965V116.96ZM74.1113 63.5283V116.839L137.606 87.9375V33.751L74.1113 63.5283ZM56.1934 45.3799L73.9375 63.123L137.443 33.3408L120.143 16.4717L56.1934 45.3799ZM101.718 16.4297L39.1846 45.0908H55.7676L119.17 16.4297H101.718Z" fill="black"/>
<path d="M34.5 45.5L33.3453 47.5H35.6547L34.5 45.5ZM34.5 117.5L35.6547 115.5H33.3453L34.5 117.5ZM34.5 47.3H34.3V115.7H34.5H34.7V47.3H34.5Z" fill="black"/>
<path d="M28.894 76.728V81H28.144V79.08H26.188V81H25.438V76.728H26.188V78.426H28.144V76.728H28.894ZM31.5921 76.776V81H30.8601V78.096H29.8161V77.592C30.5421 77.592 30.9501 77.322 31.0401 76.776H31.5921Z" fill="black"/>
<path d="M52.048 123.728H52.81L53.59 126.98L54.466 123.728H55.228L56.074 126.98L56.878 123.728H57.64L56.458 128H55.696L54.832 124.718L53.95 128H53.176L52.048 123.728ZM59.928 123.776V128H59.196V125.096H58.152V124.592C58.878 124.592 59.286 124.322 59.376 123.776H59.928Z" fill="black"/>
<path d="M107.048 7.728H107.81L108.59 10.98L109.466 7.728H110.228L111.074 10.98L111.878 7.728H112.64L111.458 12H110.696L109.832 8.718L108.95 12H108.176L107.048 7.728ZM115.672 11.394V12H112.804C112.804 11.814 112.834 11.64 112.882 11.484C112.93 11.328 112.984 11.196 113.044 11.088C113.104 10.98 113.2 10.866 113.32 10.752C113.44 10.638 113.554 10.542 113.65 10.47C113.746 10.398 113.884 10.302 114.058 10.182C114.07 10.176 114.124 10.14 114.232 10.068C114.34 9.996 114.406 9.954 114.43 9.936C114.454 9.918 114.508 9.876 114.592 9.81C114.676 9.744 114.73 9.69 114.754 9.648C114.778 9.612 114.814 9.558 114.862 9.486C114.91 9.42 114.94 9.354 114.958 9.282C114.97 9.21 114.982 9.138 114.982 9.054C114.982 8.838 114.916 8.664 114.796 8.538C114.676 8.412 114.508 8.346 114.304 8.346C114.184 8.346 114.076 8.37 113.992 8.406C113.902 8.442 113.83 8.49 113.782 8.55C113.734 8.61 113.692 8.688 113.662 8.784C113.626 8.88 113.608 8.964 113.596 9.048C113.584 9.132 113.578 9.234 113.578 9.342H112.912V9.234C112.912 8.784 113.038 8.424 113.29 8.16C113.542 7.896 113.89 7.758 114.322 7.758C114.73 7.758 115.054 7.878 115.306 8.106C115.552 8.334 115.678 8.64 115.678 9.018C115.678 9.174 115.654 9.318 115.606 9.45C115.558 9.588 115.504 9.696 115.45 9.78C115.396 9.864 115.306 9.966 115.174 10.074C115.042 10.188 114.94 10.266 114.88 10.308C114.814 10.356 114.694 10.434 114.526 10.548C114.022 10.872 113.722 11.154 113.626 11.394H115.672Z" fill="black"/>
<path d="M110.372 112.352V113H107.444V108.728H108.2V112.352H110.372Z" fill="black"/>
<path d="M147.894 58.728V63H147.144V61.08H145.188V63H144.438V58.728H145.188V60.426H147.144V58.728H147.894ZM151.336 62.394V63H148.468C148.468 62.814 148.498 62.64 148.546 62.484C148.594 62.328 148.648 62.196 148.708 62.088C148.768 61.98 148.864 61.866 148.984 61.752C149.104 61.638 149.218 61.542 149.314 61.47C149.41 61.398 149.548 61.302 149.722 61.182C149.734 61.176 149.788 61.14 149.896 61.068C150.004 60.996 150.07 60.954 150.094 60.936C150.118 60.918 150.172 60.876 150.256 60.81C150.34 60.744 150.394 60.69 150.418 60.648C150.442 60.612 150.478 60.558 150.526 60.486C150.574 60.42 150.604 60.354 150.622 60.282C150.634 60.21 150.646 60.138 150.646 60.054C150.646 59.838 150.58 59.664 150.46 59.538C150.34 59.412 150.172 59.346 149.968 59.346C149.848 59.346 149.74 59.37 149.656 59.406C149.566 59.442 149.494 59.49 149.446 59.55C149.398 59.61 149.356 59.688 149.326 59.784C149.29 59.88 149.272 59.964 149.26 60.048C149.248 60.132 149.242 60.234 149.242 60.342H148.576V60.234C148.576 59.784 148.702 59.424 148.954 59.16C149.206 58.896 149.554 58.758 149.986 58.758C150.394 58.758 150.718 58.878 150.97 59.106C151.216 59.334 151.342 59.64 151.342 60.018C151.342 60.174 151.318 60.318 151.27 60.45C151.222 60.588 151.168 60.696 151.114 60.78C151.06 60.864 150.97 60.966 150.838 61.074C150.706 61.188 150.604 61.266 150.544 61.308C150.478 61.356 150.358 61.434 150.19 61.548C149.686 61.872 149.386 62.154 149.29 62.394H151.336Z" fill="black"/>
<path d="M38 121.5L40 122.655V120.345L38 121.5ZM74 121.5L72 120.345V122.655L74 121.5ZM39.8 121.5V121.7H72.2V121.5V121.3H39.8V121.5Z" fill="black"/>
<path d="M74.5 121.5L76.7991 121.718L75.8385 119.618L74.5 121.5ZM139 92L136.701 91.7818L137.661 93.8819L139 92ZM76.1369 120.751L76.2201 120.933L137.446 92.9305L137.363 92.7487L137.28 92.5668L76.0537 120.569L76.1369 120.751Z" fill="black"/>
<path d="M142 33.5L140.845 35.5H143.155L142 33.5ZM142 88L143.155 86H140.845L142 88ZM142 35.3H141.8V86.2H142H142.2V35.3H142Z" fill="black"/>
<path d="M102 14L104 15.1547V12.8453L102 14ZM120.5 14L118.5 12.8453V15.1547L120.5 14ZM103.8 14V14.2H118.7V14V13.8H103.8V14Z" fill="black"/>
</svg>
