<svg width="176" height="136" viewBox="0 0 176 136" fill="none" xmlns="http://www.w3.org/2000/svg">
<path d="M0 16C0 7.16344 7.16344 0 16 0H160C168.837 0 176 7.16344 176 16V120C176 128.837 168.837 136 160 136H16C7.16344 136 0 128.837 0 120V16Z" fill="white"/>
<path d="M16 0.5H160C168.56 0.5 175.5 7.43959 175.5 16V120C175.5 128.56 168.56 135.5 160 135.5H16C7.43959 135.5 0.5 128.56 0.5 120V16C0.5 7.43959 7.43959 0.5 16 0.5Z" stroke="#B02E0C" stroke-opacity="0.16"/>
<path d="M126.093 16.292L126.055 16.3086L145.104 91.124L145.149 91.3027L144.98 91.3789L78.1221 121.476L78.1465 121.571H39.8711V46.0449H40.042L107.256 15.8906L107.299 15.8721H126.003L126.093 16.292ZM40.3105 121.131H77.582L58.8066 46.4844H40.3105V121.131ZM59.2354 46.3887L78.0137 121.042L144.631 91.0527L125.647 16.4922L59.2354 46.3887ZM41.1191 46.0449H58.9307L124.979 16.3115H107.396L41.1191 46.0449Z" fill="black"/>
<path d="M107.5 13.5L109.5 14.6547V12.3453L107.5 13.5ZM126.5 13.5L124.5 12.3453V14.6547L126.5 13.5ZM109.3 13.5V13.7H124.7V13.5V13.3H109.3V13.5Z" fill="black"/>
<path d="M114.048 6.728H114.81L115.59 9.98L116.466 6.728H117.228L118.074 9.98L118.878 6.728H119.64L118.458 11H117.696L116.832 7.718L115.95 11H115.176L114.048 6.728ZM122.672 10.394V11H119.804C119.804 10.814 119.834 10.64 119.882 10.484C119.93 10.328 119.984 10.196 120.044 10.088C120.104 9.98 120.2 9.866 120.32 9.752C120.44 9.638 120.554 9.542 120.65 9.47C120.746 9.398 120.884 9.302 121.058 9.182C121.07 9.176 121.124 9.14 121.232 9.068C121.34 8.996 121.406 8.954 121.43 8.936C121.454 8.918 121.508 8.876 121.592 8.81C121.676 8.744 121.73 8.69 121.754 8.648C121.778 8.612 121.814 8.558 121.862 8.486C121.91 8.42 121.94 8.354 121.958 8.282C121.97 8.21 121.982 8.138 121.982 8.054C121.982 7.838 121.916 7.664 121.796 7.538C121.676 7.412 121.508 7.346 121.304 7.346C121.184 7.346 121.076 7.37 120.992 7.406C120.902 7.442 120.83 7.49 120.782 7.55C120.734 7.61 120.692 7.688 120.662 7.784C120.626 7.88 120.608 7.964 120.596 8.048C120.584 8.132 120.578 8.234 120.578 8.342H119.912V8.234C119.912 7.784 120.038 7.424 120.29 7.16C120.542 6.896 120.89 6.758 121.322 6.758C121.73 6.758 122.054 6.878 122.306 7.106C122.552 7.334 122.678 7.64 122.678 8.018C122.678 8.174 122.654 8.318 122.606 8.45C122.558 8.588 122.504 8.696 122.45 8.78C122.396 8.864 122.306 8.966 122.174 9.074C122.042 9.188 121.94 9.266 121.88 9.308C121.814 9.356 121.694 9.434 121.526 9.548C121.022 9.872 120.722 10.154 120.626 10.394H122.672Z" fill="black"/>
<path d="M54.048 125.728H54.81L55.59 128.98L56.466 125.728H57.228L58.074 128.98L58.878 125.728H59.64L58.458 130H57.696L56.832 126.718L55.95 130H55.176L54.048 125.728ZM61.928 125.776V130H61.196V127.096H60.152V126.592C60.878 126.592 61.286 126.322 61.376 125.776H61.928Z" fill="black"/>
<path d="M117.372 115.352V116H114.444V111.728H115.2V115.352H117.372Z" fill="black"/>
<path d="M33.894 81.728V86H33.144V84.08H31.188V86H30.438V81.728H31.188V83.426H33.144V81.728H33.894Z" fill="black"/>
<path d="M79 125.5L81.2988 125.721L80.3408 123.62L79 125.5ZM147 94.5L144.701 94.279L145.659 96.3803L147 94.5ZM80.6378 124.753L80.7208 124.935L145.445 95.4286L145.362 95.2467L145.279 95.0647L80.5549 124.571L80.6378 124.753Z" fill="black"/>
<path d="M39 124L41 125.155V122.845L39 124ZM79 124L77 122.845V125.155L79 124ZM40.8 124V124.2H77.2V124V123.8H40.8V124Z" fill="black"/>
<path d="M36.5 46L35.3453 48H37.6547L36.5 46ZM36.5 122L37.6547 120H35.3453L36.5 122ZM36.5 47.8H36.3V120.2H36.5H36.7V47.8H36.5Z" fill="black"/>
</svg>
