<svg width="46" height="46" viewBox="0 0 46 46" fill="none" xmlns="http://www.w3.org/2000/svg">
<rect width="46" height="46" rx="11.1034" fill="#F3F3F3"/>
<rect x="0.396552" y="0.396552" width="45.2069" height="45.2069" rx="10.7069" stroke="#B02E0C" stroke-opacity="0.04" stroke-width="0.793103"/>
<g clip-path="url(#clip0_9699_45547)">
<path d="M36.3765 28.363L23.4057 35.8606L23.4023 35.8587V25.5865L36.3735 18.0892L36.3765 18.0912V28.363Z" fill="#FF9411"/>
<path d="M23.4073 35.9821L23.2969 35.9244V25.5225L36.3724 17.9675L36.4815 18.0273V28.4273L23.4073 35.9821ZM23.5078 25.648V35.68L36.2707 28.3029V18.2705L23.5078 25.648Z" fill="#FF9411"/>
<path d="M23.4 35.8607L9.62305 27.9058V17.6341L9.62622 17.6322L23.4035 25.5865V35.8587L23.4 35.8607Z" fill="#E47C00"/>
<path d="M23.397 35.9837L9.51758 27.9679V17.5731L9.62232 17.5098L23.5086 25.5257V35.9227L23.397 35.9837ZM9.72847 27.8453L23.2975 35.6794V25.6474L9.72847 17.8133V27.8453Z" fill="#FF9411"/>
<path d="M9.625 17.6322L23.4023 25.5865L36.3735 18.0893V18.0854L22.5961 10.1362L9.625 17.6283V17.6322Z" fill="#FFB050"/>
<path d="M23.4079 25.7059L9.51953 17.6942V17.568L22.5922 10.0162L36.4806 18.0243V18.1465L23.4079 25.7059ZM9.83393 17.6299L23.4034 25.4643L36.1664 18.0869L22.597 10.2578L9.83393 17.6299Z" fill="#FF9411"/>
</g>
<defs>
<clipPath id="clip0_9699_45547">
<rect width="26.9655" height="25.9675" fill="white" transform="translate(9.51758 10.0162)"/>
</clipPath>
</defs>
</svg>
