<svg width="176" height="136" viewBox="0 0 176 136" fill="none" xmlns="http://www.w3.org/2000/svg">
<path d="M0 16C0 7.16344 7.16344 0 16 0H160C168.837 0 176 7.16344 176 16V120C176 128.837 168.837 136 160 136H16C7.16344 136 0 128.837 0 120V16Z" fill="white"/>
<path d="M16 0.5H160C168.56 0.5 175.5 7.43959 175.5 16V120C175.5 128.56 168.56 135.5 160 135.5H16C7.43959 135.5 0.5 128.56 0.5 120V16C0.5 7.43959 7.43959 0.5 16 0.5Z" stroke="#B02E0C" stroke-opacity="0.16"/>
<path d="M100.886 38.291L100.787 38.335V55.2686L139.055 37.8906L139.098 37.8711H163.882L163.973 38.291L163.875 38.335V76.1318L163.745 76.1895L112.588 99.0518V99.1299H23.8711V61.4727H24.041L75.9678 37.8906L76.0107 37.8711H100.795L100.886 38.291ZM24.3105 98.6895H112.148V61.9121H87.3984V69.1016L87.4434 69.2002L87.3984 69.2197V86.7197H48.6064V61.9121H24.3105V98.6895ZM112.588 61.832V98.5693L163.436 75.8457V38.5361L112.588 61.832ZM50.0127 86.2539H86.958V69.4209L50.0127 86.2539ZM49.0469 61.834V86.21L86.958 68.9375V61.4727H87.1279L100.348 55.4688V38.5352L49.0469 61.834ZM25.1064 61.4727H48.7764L99.7783 38.3105H76.1064L25.1064 61.4727ZM88.1934 61.4727H112.318L162.873 38.3105H139.193L88.1934 61.4727Z" fill="black"/>
<path d="M76 35L78 36.1547V33.8453L76 35ZM101 35L99 33.8453V36.1547L101 35ZM77.8 35V35.2H99.2V35V34.8H77.8V35Z" fill="black"/>
<path d="M139 35L141 36.1547V33.8453L139 35ZM164 35L162 33.8453V36.1547L164 35ZM140.8 35V35.2H162.2V35V34.8H140.8V35Z" fill="black"/>
<path d="M88.516 27.728V28.376H87.154V32H86.404V28.376H85.042V27.728H88.516ZM90.8186 27.776V32H90.0866V29.096H89.0426V28.592C89.7686 28.592 90.1766 28.322 90.2666 27.776H90.8186Z" fill="black"/>
<path d="M15.894 78.728V83H15.144V81.08H13.188V83H12.438V78.728H13.188V80.426H15.144V78.728H15.894ZM18.5921 78.776V83H17.8601V80.096H16.8161V79.592C17.5421 79.592 17.9501 79.322 18.0401 78.776H18.5921Z" fill="black"/>
<path d="M57.894 69.728V74H57.144V72.08H55.188V74H54.438V69.728H55.188V71.426H57.144V69.728H57.894ZM61.3361 73.394V74H58.4681C58.4681 73.814 58.4981 73.64 58.5461 73.484C58.5941 73.328 58.6481 73.196 58.7081 73.088C58.7681 72.98 58.8641 72.866 58.9841 72.752C59.1041 72.638 59.2181 72.542 59.3141 72.47C59.4101 72.398 59.5481 72.302 59.7221 72.182C59.7341 72.176 59.7881 72.14 59.8961 72.068C60.0041 71.996 60.0701 71.954 60.0941 71.936C60.1181 71.918 60.1721 71.876 60.2561 71.81C60.3401 71.744 60.3941 71.69 60.4181 71.648C60.4421 71.612 60.4781 71.558 60.5261 71.486C60.5741 71.42 60.6041 71.354 60.6221 71.282C60.6341 71.21 60.6461 71.138 60.6461 71.054C60.6461 70.838 60.5801 70.664 60.4601 70.538C60.3401 70.412 60.1721 70.346 59.9681 70.346C59.8481 70.346 59.7401 70.37 59.6561 70.406C59.5661 70.442 59.4941 70.49 59.4461 70.55C59.3981 70.61 59.3561 70.688 59.3261 70.784C59.2901 70.88 59.2721 70.964 59.2601 71.048C59.2481 71.132 59.2421 71.234 59.2421 71.342H58.5761V71.234C58.5761 70.784 58.7021 70.424 58.9541 70.16C59.2061 69.896 59.5541 69.758 59.9861 69.758C60.3941 69.758 60.7181 69.878 60.9701 70.106C61.2161 70.334 61.3421 70.64 61.3421 71.018C61.3421 71.174 61.3181 71.318 61.2701 71.45C61.2221 71.588 61.1681 71.696 61.1141 71.78C61.0601 71.864 60.9701 71.966 60.8381 72.074C60.7061 72.188 60.6041 72.266 60.5441 72.308C60.4781 72.356 60.3581 72.434 60.1901 72.548C59.6861 72.872 59.3861 73.154 59.2901 73.394H61.3361Z" fill="black"/>
<path d="M63.048 90.728H63.81L64.59 93.98L65.466 90.728H66.228L67.074 93.98L67.878 90.728H68.64L67.458 95H66.696L65.832 91.718L64.95 95H64.176L63.048 90.728ZM71.672 94.394V95H68.804C68.804 94.814 68.834 94.64 68.882 94.484C68.93 94.328 68.984 94.196 69.044 94.088C69.104 93.98 69.2 93.866 69.32 93.752C69.44 93.638 69.554 93.542 69.65 93.47C69.746 93.398 69.884 93.302 70.058 93.182C70.07 93.176 70.124 93.14 70.232 93.068C70.34 92.996 70.406 92.954 70.43 92.936C70.454 92.918 70.508 92.876 70.592 92.81C70.676 92.744 70.73 92.69 70.754 92.648C70.778 92.612 70.814 92.558 70.862 92.486C70.91 92.42 70.94 92.354 70.958 92.282C70.97 92.21 70.982 92.138 70.982 92.054C70.982 91.838 70.916 91.664 70.796 91.538C70.676 91.412 70.508 91.346 70.304 91.346C70.184 91.346 70.076 91.37 69.992 91.406C69.902 91.442 69.83 91.49 69.782 91.55C69.734 91.61 69.692 91.688 69.662 91.784C69.626 91.88 69.608 91.964 69.596 92.048C69.584 92.132 69.578 92.234 69.578 92.342H68.912V92.234C68.912 91.784 69.038 91.424 69.29 91.16C69.542 90.896 69.89 90.758 70.322 90.758C70.73 90.758 71.054 90.878 71.306 91.106C71.552 91.334 71.678 91.64 71.678 92.018C71.678 92.174 71.654 92.318 71.606 92.45C71.558 92.588 71.504 92.696 71.45 92.78C71.396 92.864 71.306 92.966 71.174 93.074C71.042 93.188 70.94 93.266 70.88 93.308C70.814 93.356 70.694 93.434 70.526 93.548C70.022 93.872 69.722 94.154 69.626 94.394H71.672Z" fill="black"/>
<path d="M63.048 104.728H63.81L64.59 107.98L65.466 104.728H66.228L67.074 107.98L67.878 104.728H68.64L67.458 109H66.696L65.832 105.718L64.95 109H64.176L63.048 104.728ZM70.928 104.776V109H70.196V106.096H69.152V105.592C69.878 105.592 70.286 105.322 70.376 104.776H70.928Z" fill="black"/>
<path d="M145.372 95.352V96H142.444V91.728H143.2V95.352H145.372Z" fill="black"/>
<path d="M24 102.5L26 103.655V101.345L24 102.5ZM113 102.5L111 101.345V103.655L113 102.5ZM25.8 102.5V102.7H111.2V102.5V102.3H25.8V102.5Z" fill="black"/>
<path d="M151.516 27.728V28.376H150.154V32H149.404V28.376H148.042V27.728H151.516ZM154.563 31.394V32H151.695C151.695 31.814 151.725 31.64 151.773 31.484C151.821 31.328 151.875 31.196 151.935 31.088C151.995 30.98 152.091 30.866 152.211 30.752C152.331 30.638 152.445 30.542 152.541 30.47C152.637 30.398 152.775 30.302 152.949 30.182C152.961 30.176 153.015 30.14 153.123 30.068C153.231 29.996 153.297 29.954 153.321 29.936C153.345 29.918 153.399 29.876 153.483 29.81C153.567 29.744 153.621 29.69 153.645 29.648C153.669 29.612 153.705 29.558 153.753 29.486C153.801 29.42 153.831 29.354 153.849 29.282C153.861 29.21 153.873 29.138 153.873 29.054C153.873 28.838 153.807 28.664 153.687 28.538C153.567 28.412 153.399 28.346 153.195 28.346C153.075 28.346 152.967 28.37 152.883 28.406C152.793 28.442 152.721 28.49 152.673 28.55C152.625 28.61 152.583 28.688 152.553 28.784C152.517 28.88 152.499 28.964 152.487 29.048C152.475 29.132 152.469 29.234 152.469 29.342H151.803V29.234C151.803 28.784 151.929 28.424 152.181 28.16C152.433 27.896 152.781 27.758 153.213 27.758C153.621 27.758 153.945 27.878 154.197 28.106C154.443 28.334 154.569 28.64 154.569 29.018C154.569 29.174 154.545 29.318 154.497 29.45C154.449 29.588 154.395 29.696 154.341 29.78C154.287 29.864 154.197 29.966 154.065 30.074C153.933 30.188 153.831 30.266 153.771 30.308C153.705 30.356 153.585 30.434 153.417 30.548C152.913 30.872 152.613 31.154 152.517 31.394H154.563Z" fill="black"/>
<path d="M20 62L18.8453 64H21.1547L20 62ZM20 99L21.1547 97H18.8453L20 99ZM20 63.8H19.8V97.2H20H20.2V63.8H20Z" fill="black"/>
<path d="M52 62L50.8453 64H53.1547L52 62ZM52 84L53.1547 82H50.8453L52 84ZM52 63.8H51.8V82.2H52H52.2V63.8H52Z" fill="black"/>
<path d="M48.5 89L50.5 90.1547V87.8453L48.5 89ZM87.5 89L85.5 87.8453V90.1547L87.5 89ZM50.3 89V89.2H85.7V89V88.8H50.3V89Z" fill="black"/>
<path d="M115 102.5L117.297 102.743L116.359 100.633L115 102.5ZM164.5 80.5L162.203 80.2571L163.141 82.3675L164.5 80.5ZM116.645 101.769L116.726 101.952L162.936 81.4138L162.855 81.231L162.774 81.0483L116.564 101.586L116.645 101.769Z" fill="black"/>
</svg>
