<svg width="176" height="136" viewBox="0 0 176 136" fill="none" xmlns="http://www.w3.org/2000/svg">
<path d="M0 16C0 7.16344 7.16344 0 16 0H160C168.837 0 176 7.16344 176 16V120C176 128.837 168.837 136 160 136H16C7.16344 136 0 128.837 0 120V16Z" fill="white"/>
<path d="M16 0.5H160C168.56 0.5 175.5 7.43959 175.5 16V120C175.5 128.56 168.56 135.5 160 135.5H16C7.43959 135.5 0.5 128.56 0.5 120V16C0.5 7.43959 7.43959 0.5 16 0.5Z" stroke="#B02E0C" stroke-opacity="0.16"/>
<path d="M99.8857 38.291L99.7871 38.335V55.2686L138.055 37.8906L138.098 37.8711H162.882L162.973 38.291L162.875 38.335V76.1318L162.745 76.1895L111.458 99.1104L111.278 98.708L162.436 75.8457V38.5361L111.459 61.8916L111.367 61.6924L111.275 61.4922L161.873 38.3105H138.193L86.2686 61.8926L86.1777 61.6924L86.0869 61.4912L99.3477 55.4688V38.5352L47.918 61.8926L47.8262 61.6924L47.7354 61.4912L98.7783 38.3105H75.1064L23.1816 61.8926L23.0908 61.6924L23 61.4912L74.9678 37.8906L75.0107 37.8711H99.7949L99.8857 38.291Z" fill="black"/>
<path d="M138 35L140 36.1547V33.8453L138 35ZM163 35L161 33.8453V36.1547L163 35ZM139.8 35V35.2H161.2V35V34.8H139.8V35Z" fill="black"/>
<path d="M16.894 78.728V83H16.144V81.08H14.188V83H13.438V78.728H14.188V80.426H16.144V78.728H16.894Z" fill="black"/>
<path d="M62.048 104.728H62.81L63.59 107.98L64.466 104.728H65.228L66.074 107.98L66.878 104.728H67.64L66.458 109H65.696L64.832 105.718L63.95 109H63.176L62.048 104.728Z" fill="black"/>
<path d="M144.372 95.352V96H141.444V91.728H142.2V95.352H144.372Z" fill="black"/>
<path d="M23 102.5L25 103.655V101.345L23 102.5ZM112 102.5L110 101.345V103.655L112 102.5ZM24.8 102.5V102.7H110.2V102.5V102.3H24.8V102.5Z" fill="black"/>
<path d="M152.516 27.728V28.376H151.154V32H150.404V28.376H149.042V27.728H152.516Z" fill="black"/>
<path d="M19 62L17.8453 64H20.1547L19 62ZM19 99L20.1547 97H17.8453L19 99ZM19 63.8H18.8V97.2H19H19.2V63.8H19Z" fill="black"/>
<path d="M114 102.5L116.297 102.743L115.359 100.633L114 102.5ZM163.5 80.5L161.203 80.2571L162.141 82.3675L163.5 80.5ZM115.645 101.769L115.726 101.952L161.936 81.4138L161.855 81.231L161.774 81.0483L115.564 101.586L115.645 101.769Z" fill="black"/>
<path d="M23 61.5V99H111.5V61.5H86V71.5C77.5 91 52.5 88 48 71.5V61.5H23Z" stroke="black" stroke-width="0.4"/>
</svg>
