<svg width="46" height="46" viewBox="0 0 46 46" fill="none" xmlns="http://www.w3.org/2000/svg">
<rect width="46" height="46" rx="11.1034" fill="#F3F3F3"/>
<rect x="0.396552" y="0.396552" width="45.2069" height="45.2069" rx="10.7069" stroke="#B02E0C" stroke-opacity="0.04" stroke-width="0.793103"/>
<g clip-path="url(#clip0_9699_46880)">
<path fill-rule="evenodd" clip-rule="evenodd" d="M11.9518 39.3381H34.0447C35.4727 39.3381 37.2943 37.5006 36.9566 36.1124L33.2496 20.8777C32.4465 17.5749 31.3243 15.7667 27.6599 15.7667H24.8384C26.5244 15.038 27.7051 13.36 27.7051 11.4082C27.7051 8.78616 25.5804 6.66144 22.9584 6.66144C20.3364 6.66144 18.2116 8.78616 18.2116 11.4082C18.2116 13.3627 19.3923 15.0407 21.0783 15.7667H18.5919C14.9408 15.7667 13.4064 17.8196 12.6538 20.9681L9.03728 36.1124C8.70754 37.5006 10.5238 39.3381 11.9518 39.3381ZM18.6052 25.3851H19.9162V30.3313H18.6052V25.3851ZM20.5385 25.3851H21.8628V27.0923C21.9931 26.9487 22.142 26.8424 22.3095 26.7679C22.4744 26.6961 22.6579 26.6615 22.86 26.6615C23.2748 26.6615 23.6205 26.8184 23.8918 27.1322C24.163 27.446 24.2986 27.8981 24.2986 28.4858C24.2986 28.8767 24.2348 29.2224 24.1125 29.5229C23.9875 29.8207 23.8173 30.0441 23.5966 30.193C23.3759 30.3392 23.1339 30.4137 22.8653 30.4137C22.6366 30.4137 22.4265 30.3605 22.2351 30.2595C22.0915 30.177 21.9346 30.0255 21.7644 29.8021V30.3339H20.5385V25.3851ZM21.8521 28.523C21.8521 28.8315 21.908 29.0575 22.017 29.1958C22.126 29.3341 22.267 29.4032 22.4345 29.4032C22.5914 29.4032 22.7217 29.3341 22.8281 29.1984C22.9344 29.0602 22.9876 28.8315 22.9876 28.5097C22.9876 28.2252 22.9371 28.0151 22.8307 27.8821C22.727 27.7492 22.602 27.6827 22.4531 27.6827C22.2749 27.6827 22.1313 27.7518 22.0197 27.8901C21.908 28.031 21.8521 28.2411 21.8521 28.523ZM24.4741 29.3367L25.7718 29.2117C25.825 29.3739 25.8995 29.4883 25.9979 29.5574C26.0936 29.6266 26.2239 29.6611 26.3835 29.6611C26.559 29.6611 26.6946 29.6213 26.7903 29.5415C26.8648 29.483 26.9047 29.4112 26.9047 29.3234C26.9047 29.225 26.8541 29.1479 26.7558 29.0921C26.6866 29.0548 26.4978 29.007 26.1947 28.9511C25.7399 28.8687 25.4261 28.7916 25.248 28.7198C25.0725 28.6506 24.9235 28.5283 24.8012 28.3608C24.6815 28.1906 24.6204 27.9991 24.6204 27.7837C24.6204 27.5471 24.6842 27.3449 24.8145 27.1748C24.9448 27.0019 25.1256 26.8743 25.3543 26.7918C25.583 26.7067 25.8915 26.6642 26.2771 26.6642C26.684 26.6642 26.9844 26.6961 27.1759 26.7626C27.37 26.8291 27.5322 26.9301 27.6599 27.0657C27.7902 27.204 27.8966 27.3902 27.9817 27.6242L26.7425 27.7492C26.7105 27.6348 26.6574 27.5524 26.5829 27.4965C26.4819 27.4247 26.3569 27.3902 26.2106 27.3902C26.0644 27.3902 25.9553 27.4167 25.8888 27.4726C25.8224 27.5284 25.7878 27.5949 25.7878 27.672C25.7878 27.7598 25.8303 27.8263 25.9154 27.8715C26.0005 27.9167 26.1867 27.9566 26.4739 27.9938C26.91 28.0443 27.2318 28.1188 27.4445 28.2092C27.6572 28.3023 27.8194 28.4326 27.9311 28.6028C28.0428 28.7756 28.1013 28.9618 28.1013 29.1665C28.1013 29.3739 28.0428 29.576 27.9232 29.7702C27.8035 29.967 27.6173 30.1212 27.3621 30.2382C27.1068 30.3552 26.7584 30.411 26.317 30.411C25.6947 30.411 25.248 30.318 24.9847 30.1292C24.7188 29.9457 24.5486 29.6798 24.4741 29.3367ZM22.9983 20.7846C26.7877 20.7846 29.8591 23.856 29.8591 27.6454C29.8591 31.4349 26.7877 34.5063 22.9983 34.5063C19.2088 34.5063 16.1374 31.4349 16.1374 27.6454C16.1374 23.856 19.2115 20.7846 22.9983 20.7846ZM22.9584 9.4297C24.0513 9.4297 24.9368 10.3152 24.9368 11.4082C24.9368 12.5011 24.0513 13.3866 22.9584 13.3866C21.8654 13.3866 20.9799 12.5011 20.9799 11.4082C20.9826 10.3152 21.8681 9.4297 22.9584 9.4297Z" fill="#FF9411"/>
</g>
<defs>
<clipPath id="clip0_9699_46880">
<rect width="27.9991" height="32.6767" fill="white" transform="translate(9 6.66168)"/>
</clipPath>
</defs>
</svg>
