<svg width="176" height="136" viewBox="0 0 176 136" fill="none" xmlns="http://www.w3.org/2000/svg">
<path d="M0 16C0 7.16344 7.16344 0 16 0H160C168.837 0 176 7.16344 176 16V120C176 128.837 168.837 136 160 136H16C7.16344 136 0 128.837 0 120V16Z" fill="white"/>
<path d="M16 0.5H160C168.56 0.5 175.5 7.43959 175.5 16V120C175.5 128.56 168.56 135.5 160 135.5H16C7.43959 135.5 0.5 128.56 0.5 120V16C0.5 7.43959 7.43959 0.5 16 0.5Z" stroke="#B02E0C" stroke-opacity="0.16"/>
<path d="M94.3926 21.3965C101.365 21.3965 107.658 22.5895 112.193 24.5029C114.462 25.4599 116.272 26.5895 117.509 27.8232C118.744 29.0556 119.388 30.3702 119.388 31.7129C119.388 33.0554 118.744 34.3693 117.509 35.6016C116.272 36.8353 114.462 37.9649 112.193 38.9219C107.658 40.8353 101.365 42.0283 94.3926 42.0283C87.4207 42.0283 81.1273 40.8352 76.5918 38.9219C74.3232 37.9648 72.5125 36.8355 71.2754 35.6016C70.04 34.3693 69.3966 33.0554 69.3965 31.7129C69.3965 30.3702 70.0398 29.0556 71.2754 27.8232C72.5125 26.5893 74.3233 25.46 76.5918 24.5029C81.1273 22.5896 87.4207 21.3965 94.3926 21.3965Z" stroke="black" stroke-width="0.793514"/>
<path d="M94.3906 27.7441C97.4177 27.7442 100.14 28.2707 102.09 29.1064C103.065 29.5246 103.829 30.0129 104.344 30.5342C104.857 31.0538 105.102 31.5853 105.103 32.1084C105.103 32.6316 104.857 33.1639 104.344 33.6836C103.829 34.2048 103.065 34.6923 102.09 35.1104C100.14 35.9461 97.4177 36.4726 94.3906 36.4727C91.3634 36.4727 88.6416 35.9461 86.6914 35.1104C85.7157 34.6922 84.9511 34.205 84.4365 33.6836C83.9236 33.1639 83.6777 32.6316 83.6777 32.1084C83.6778 31.5853 83.9238 31.0538 84.4365 30.5342C84.9511 30.0128 85.7156 29.5246 86.6914 29.1064C88.6415 28.2707 91.3635 27.7441 94.3906 27.7441Z" stroke="black" stroke-width="0.793514"/>
<path d="M69.3945 31.7129V111.461C69.3961 124.554 118.197 123.76 119.386 111.586V31.7129" stroke="black" stroke-width="0.793514"/>
<path d="M90.4662 29.5747H92.1505C92.4551 29.5747 92.7223 29.612 92.9585 29.6741C93.1885 29.7363 93.3998 29.8544 93.5987 30.0284C94.0338 30.42 94.2513 30.9793 94.2513 31.7127C94.2513 32.4959 94.04 33.0988 93.6298 33.509C93.4433 33.6954 93.2444 33.8198 93.0331 33.8943C92.8218 33.9689 92.5421 34 92.194 34H90.4662V29.5747ZM91.2369 30.2335V33.3474H92.1505C92.6353 33.3474 92.9772 33.2106 93.176 32.9247C93.3749 32.6451 93.4744 32.2535 93.4744 31.75C93.4744 31.2777 93.3625 30.9048 93.1388 30.6375C92.915 30.3702 92.5669 30.2335 92.1008 30.2335H91.2369ZM96.8287 29.6244V34H96.0704V30.9918H94.9889V30.4697C95.741 30.4697 96.1636 30.19 96.2569 29.6244H96.8287Z" fill="black"/>
<path d="M90.4662 14.5747H92.1505C92.4551 14.5747 92.7223 14.612 92.9585 14.6741C93.1885 14.7363 93.3998 14.8544 93.5987 15.0284C94.0338 15.42 94.2513 15.9793 94.2513 16.7127C94.2513 17.4959 94.04 18.0988 93.6298 18.509C93.4433 18.6954 93.2444 18.8198 93.0331 18.8943C92.8218 18.9689 92.5421 19 92.194 19H90.4662V14.5747ZM91.2369 15.2335V18.3474H92.1505C92.6353 18.3474 92.9772 18.2106 93.176 17.9247C93.3749 17.6451 93.4744 17.2535 93.4744 16.75C93.4744 16.2777 93.3625 15.9048 93.1388 15.6375C92.915 15.3702 92.5669 15.2335 92.1008 15.2335H91.2369ZM97.5994 18.3722V19H94.6285C94.6285 18.8073 94.6595 18.6271 94.7093 18.4655C94.759 18.3039 94.8149 18.1671 94.8771 18.0553C94.9392 17.9434 95.0387 17.8253 95.163 17.7072C95.2873 17.5891 95.4054 17.4897 95.5048 17.4151C95.6043 17.3405 95.7472 17.2411 95.9275 17.1167C95.9399 17.1105 95.9958 17.0732 96.1077 16.9987C96.2196 16.9241 96.288 16.8806 96.3128 16.8619C96.3377 16.8433 96.3936 16.7998 96.4806 16.7314C96.5676 16.663 96.6236 16.6071 96.6484 16.5636C96.6733 16.5263 96.7106 16.4703 96.7603 16.3958C96.81 16.3274 96.8411 16.259 96.8598 16.1844C96.8722 16.1099 96.8846 16.0353 96.8846 15.9483C96.8846 15.7245 96.8163 15.5443 96.692 15.4137C96.5676 15.2832 96.3936 15.2148 96.1823 15.2148C96.058 15.2148 95.9461 15.2397 95.8591 15.277C95.7659 15.3143 95.6913 15.364 95.6416 15.4262C95.5918 15.4883 95.5483 15.5691 95.5172 15.6686C95.48 15.768 95.4613 15.855 95.4489 15.942C95.4364 16.0291 95.4302 16.1347 95.4302 16.2466H94.7403V16.1347C94.7403 15.6686 94.8709 15.2956 95.1319 15.0222C95.3929 14.7487 95.7534 14.6057 96.2009 14.6057C96.6236 14.6057 96.9592 14.73 97.2203 14.9662C97.4751 15.2024 97.6056 15.5194 97.6056 15.911C97.6056 16.0726 97.5807 16.2217 97.531 16.3585C97.4813 16.5014 97.4254 16.6133 97.3694 16.7003C97.3135 16.7873 97.2203 16.893 97.0835 17.0049C96.9468 17.123 96.8411 17.2038 96.779 17.2473C96.7106 17.297 96.5863 17.3778 96.4123 17.4959C95.8902 17.8315 95.5794 18.1236 95.48 18.3722H97.5994Z" fill="black"/>
<path d="M119.5 17L117.5 15.8453V18.1547L119.5 17ZM99.5 17V17.2H117.7V17V16.8H99.5V17Z" fill="black"/>
<path d="M69 17L71 15.8453V18.1547L69 17ZM89 17V17.2H70.8V17V16.8H89V17Z" fill="black"/>
<path d="M60.0338 72.5747V77H59.2568V75.0111H57.2306V77H56.4537V72.5747H57.2306V74.3336H59.2568V72.5747H60.0338Z" fill="black"/>
<path d="M63.5 31.5L62.3453 33.5H64.6547L63.5 31.5ZM63.5 119L64.6547 117H62.3453L63.5 119ZM63.5 33.3H63.3V117.2H63.5H63.7V33.3H63.5Z" fill="black"/>
</svg>
