<svg width="176" height="136" viewBox="0 0 176 136" fill="none" xmlns="http://www.w3.org/2000/svg">
<path d="M0 16C0 7.16344 7.16344 0 16 0H160C168.837 0 176 7.16344 176 16V120C176 128.837 168.837 136 160 136H16C7.16344 136 0 128.837 0 120V16Z" fill="white"/>
<path d="M16 0.5H160C168.56 0.5 175.5 7.43959 175.5 16V120C175.5 128.56 168.56 135.5 160 135.5H16C7.43959 135.5 0.5 128.56 0.5 120V16C0.5 7.43959 7.43959 0.5 16 0.5Z" stroke="#B02E0C" stroke-opacity="0.16"/>
<path d="M88.0801 18.0674L103.025 33.2471L103.037 33.2588H103.053V33.2744L103.091 33.3125L103.053 33.3506V105.045L103.018 105.072L87.5586 117.572L87.5 117.62L87.4414 117.572L72.0742 105.072L72.0391 105.044V34.0518L72 34.0137L88.0137 18L88.0801 18.0674ZM87.4062 48.998V49.082C87.4065 49.1637 87.4068 49.2856 87.4072 49.4453C87.4081 49.7647 87.4095 50.2363 87.4111 50.8457C87.4144 52.0649 87.4189 53.8358 87.4248 56.041C87.4367 60.4518 87.4538 66.602 87.4727 73.5576C87.5102 87.3986 87.5562 104.431 87.5928 117.304L102.865 104.956V33.5391L87.4062 48.998ZM72.2266 104.956L87.4053 117.303C87.3687 104.43 87.3227 87.399 87.2852 73.5586C87.2663 66.6029 87.2501 60.4528 87.2383 56.042C87.2324 53.8367 87.2279 52.066 87.2246 50.8467C87.223 50.237 87.2216 49.7647 87.2207 49.4453C87.2203 49.286 87.2199 49.1646 87.2197 49.083C87.2196 49.0464 87.2189 49.0175 87.2188 48.9971L72.2266 34.2363V104.956ZM72.2656 34.0117L87.3105 48.8271L102.827 33.3105L88.0117 18.2656L72.2656 34.0117ZM98.4209 33.0781L98.3555 33.1445L87.1455 44.3545L87.0791 44.4199L76.2051 33.5459L76.2705 33.4795L87.4805 22.2695L87.5469 22.2041L98.4209 33.0781Z" fill="black"/>
<path d="M105.5 34L104.345 36H106.655L105.5 34ZM105.5 105.5L106.655 103.5H104.345L105.5 105.5ZM105.5 35.8H105.3V103.7H105.5H105.7V35.8H105.5Z" fill="black"/>
<path d="M110.894 66.728V71H110.144V69.08H108.188V71H107.438V66.728H108.188V68.426H110.144V66.728H110.894Z" fill="black"/>
<path d="M97.048 114.728H97.81L98.59 117.98L99.466 114.728H100.228L101.074 117.98L101.878 114.728H102.64L101.458 119H100.696L99.832 115.718L98.95 119H98.176L97.048 114.728Z" fill="black"/>
<path d="M72.048 114.728H72.81L73.59 117.98L74.466 114.728H75.228L76.074 117.98L76.878 114.728H77.64L76.458 119H75.696L74.832 115.718L73.95 119H73.176L72.048 114.728Z" fill="black"/>
<path d="M87.5 120L89.7901 119.702L88.3873 117.868L87.5 120ZM104.5 107L102.21 107.298L103.613 109.132L104.5 107ZM88.9298 118.907L89.0513 119.065L103.192 108.252L103.07 108.093L102.949 107.935L88.8084 118.748L88.9298 118.907Z" fill="black"/>
<path d="M87 120L84.7099 119.702L86.1127 117.868L87 120ZM70 107L72.2901 107.298L70.8873 109.132L70 107ZM85.5702 118.907L85.4487 119.065L71.3084 108.252L71.4298 108.093L71.5513 107.935L85.6916 118.748L85.5702 118.907Z" fill="black"/>
</svg>
